<svg xmlns="http://www.w3.org/2000/svg" width="501.81" height="454" viewBox="0 0 501.81 454">
  <g id="Group_12" data-name="Group 12" transform="translate(0 0.001)">
    <path id="Path_24" data-name="Path 24" d="M470.341,537.64H260.962a9.954,9.954,0,0,1-9.943-9.943V243.456a9.954,9.954,0,0,1,9.943-9.943h209.38a9.954,9.954,0,0,1,9.943,9.943V527.7a9.954,9.954,0,0,1-9.943,9.943Z" transform="translate(-251.019 -162.16)" fill="#fff"/>
    <path id="Path_25" data-name="Path 25" d="M366.925,321.2a38.9,38.9,0,0,1-26.847,36.987c-.233.074-.466.148-.7.219-1.011.311-2.036.576-3.079.8a38.228,38.228,0,0,1-5.731.8q-1.257.085-2.528.085a38.821,38.821,0,0,1-12.858-2.178l-.357-.127a38.892,38.892,0,1,1,52.1-36.584Z" transform="translate(-261.73 -175.873)" fill="#fff"/>
    <circle id="Ellipse_11" data-name="Ellipse 11" cx="18.921" cy="18.921" r="18.921" transform="translate(46.453 133.252)" fill="#e99629"/>
    <path id="Path_26" data-name="Path 26" d="M341.575,355.4l.02-.707a5.848,5.848,0,0,1-3.346-.756,2.174,2.174,0,0,1-.842-1.6,1.242,1.242,0,0,1,.408-1.023,2.142,2.142,0,0,1,2.188-.019l.585.268-1.122-8.2-.7.1.954,6.974a2.5,2.5,0,0,0-2.361.34,1.934,1.934,0,0,0-.658,1.588,2.875,2.875,0,0,0,1.131,2.147A6.512,6.512,0,0,0,341.575,355.4Z" transform="translate(-275.097 -193.031)" fill="#2f2e41"/>
    <rect id="Rectangle_77" data-name="Rectangle 77" width="3.808" height="0.707" transform="translate(56.395 151.028)" fill="#2f2e41"/>
    <rect id="Rectangle_78" data-name="Rectangle 78" width="3.808" height="0.707" transform="translate(68.415 151.028)" fill="#2f2e41"/>
    <path id="Path_27" data-name="Path 27" d="M342.52,381.125a3.462,3.462,0,0,0,.078-.707,3.364,3.364,0,0,0-3.359-3.359H334.29a3.362,3.362,0,0,0-3.359,3.359,3.268,3.268,0,0,0,.078.711,19,19,0,0,0-5.236,2.591c-.311.216-.619.449-.912.693l.357.127a38.819,38.819,0,0,0,12.858,2.178q1.273,0,2.528-.085a38.225,38.225,0,0,0,5.731-.8c1.043-.226,2.068-.491,3.079-.8A19.161,19.161,0,0,0,342.52,381.125Z" transform="translate(-271.771 -202.501)" fill="#2f2e41"/>
    <path id="Path_28" data-name="Path 28" d="M348.038,389.616a2.6,2.6,0,0,0-1.28.449,38.224,38.224,0,0,0,5.731-.8Z" transform="translate(-277.925 -205.933)" fill="#2f2e41"/>
    <path id="Path_29" data-name="Path 29" d="M352.6,330.3l-32.87-12.025a1.414,1.414,0,0,1-.842-1.814l.111-.526c2.567-7.017,11.075-11.433,18.092-8.866l10.115,3.7c7.017,2.567,10.067,10.876,7.5,17.893l-.293.795A1.414,1.414,0,0,1,352.6,330.3Z" transform="translate(-270.069 -182.625)" fill="#2f2e41"/>
    <path id="Path_30" data-name="Path 30" d="M351.484,333.342c-45.813,1.69-49.816-4.066-35.857-13.118l2.961-5.449,33.939,12.374Z" transform="translate(-267.18 -184.997)" fill="#2f2e41"/>
    <ellipse id="Ellipse_12" data-name="Ellipse 12" cx="1.591" cy="3.005" rx="1.591" ry="3.005" transform="translate(69.108 127.078) rotate(-73.27)" fill="#2f2e41"/>
    <path id="Path_31" data-name="Path 31" d="M327.625,360.74a39.853,39.853,0,0,1-13.209-2.237l-.369-.132a39.949,39.949,0,1,1,25.947.415c-.251.08-.488.155-.728.227-1,.309-2.07.587-3.158.823a39.363,39.363,0,0,1-5.89.818C329.366,360.711,328.492,360.74,327.625,360.74Zm0-77.777a37.833,37.833,0,0,0-12.855,73.413l.35.125a37.729,37.729,0,0,0,12.5,2.117c.82,0,1.646-.028,2.456-.083a37.3,37.3,0,0,0,5.578-.774c1.03-.223,2.036-.486,2.992-.779.237-.071.461-.142.686-.214a37.833,37.833,0,0,0-11.712-73.806Z" transform="translate(-261.319 -175.463)" fill="#ccc"/>
    <path id="Path_32" data-name="Path 32" d="M269.607,502.682" transform="translate(-256.242 -237.806)" fill="#f2f2f2"/>
    <path id="Path_33" data-name="Path 33" d="M470.341,537.64H260.962a9.954,9.954,0,0,1-9.943-9.943V243.456a9.954,9.954,0,0,1,9.943-9.943h209.38a9.954,9.954,0,0,1,9.943,9.943V527.7a9.954,9.954,0,0,1-9.943,9.943ZM260.962,234.683a8.783,8.783,0,0,0-8.773,8.773V527.7a8.783,8.783,0,0,0,8.773,8.773h209.38a8.783,8.783,0,0,0,8.773-8.773V243.456a8.783,8.783,0,0,0-8.773-8.773Z" transform="translate(-251.019 -162.16)" fill="#ccc"/>
    <path id="Path_34" data-name="Path 34" d="M474.7,332.529H415.456a4.687,4.687,0,0,1,0-9.374H474.7a4.687,4.687,0,0,1,0,9.374Z" transform="translate(-295.914 -187.352)" fill="#e6e6e6"/>
    <path id="Path_35" data-name="Path 35" d="M494.038,354.531H415.456a4.687,4.687,0,1,1,0-9.374h78.582a4.687,4.687,0,0,1,0,9.374Z" transform="translate(-295.914 -193.535)" fill="#e6e6e6"/>
    <path id="Path_36" data-name="Path 36" d="M440.063,438.921H292.5a4.687,4.687,0,0,1,0-9.374H440.063a4.687,4.687,0,0,1,0,9.374Z" transform="translate(-261.359 -217.252)" fill="#e6e6e6"/>
    <path id="Path_37" data-name="Path 37" d="M459.4,460.923H292.5a4.687,4.687,0,0,1,0-9.374H459.4a4.687,4.687,0,0,1,0,9.374Z" transform="translate(-261.359 -223.435)" fill="#e6e6e6"/>
    <path id="Path_38" data-name="Path 38" d="M440.063,511.494H292.5a4.687,4.687,0,0,1,0-9.374H440.063a4.687,4.687,0,0,1,0,9.374Z" transform="translate(-261.359 -237.648)" fill="#e6e6e6"/>
    <path id="Path_39" data-name="Path 39" d="M459.4,533.5H292.5a4.687,4.687,0,1,1,0-9.374H459.4a4.687,4.687,0,0,1,0,9.374Z" transform="translate(-261.359 -243.831)" fill="#e6e6e6"/>
    <path id="Path_40" data-name="Path 40" d="M440.063,584.067H292.5a4.687,4.687,0,1,1,0-9.374H440.063a4.687,4.687,0,0,1,0,9.374Z" transform="translate(-261.359 -258.043)" fill="#e6e6e6"/>
    <path id="Path_41" data-name="Path 41" d="M459.4,606.069H292.5a4.687,4.687,0,1,1,0-9.374H459.4a4.687,4.687,0,0,1,0,9.374Z" transform="translate(-261.359 -264.226)" fill="#e6e6e6"/>
    <path id="Path_42" data-name="Path 42" d="M849.421,438.4H640.04a9.954,9.954,0,0,1-9.943-9.943V144.211a9.954,9.954,0,0,1,9.943-9.943H849.421a9.954,9.954,0,0,1,9.943,9.943V428.453a9.954,9.954,0,0,1-9.943,9.943Z" transform="translate(-357.553 -134.268)" fill="#fff"/>
    <path id="Path_43" data-name="Path 43" d="M849.421,438.4H640.04a9.954,9.954,0,0,1-9.943-9.943V144.211a9.954,9.954,0,0,1,9.943-9.943H849.421a9.954,9.954,0,0,1,9.943,9.943V428.453a9.954,9.954,0,0,1-9.943,9.943ZM640.04,135.438a8.783,8.783,0,0,0-8.773,8.773V428.453a8.783,8.783,0,0,0,8.773,8.773H849.421a8.783,8.783,0,0,0,8.773-8.773V144.211a8.783,8.783,0,0,0-8.773-8.773Z" transform="translate(-357.553 -134.268)" fill="#ccc"/>
    <path id="Path_44" data-name="Path 44" d="M746.146,221.419a38.889,38.889,0,1,1-38.889-38.889A38.889,38.889,0,0,1,746.146,221.419Z" transform="translate(-368.309 -147.832)" fill="#fff"/>
    <path id="Path_45" data-name="Path 45" d="M732.666,238.585c-.425,24.871-37.42,24.867-37.842,0C695.249,213.713,732.245,213.717,732.666,238.585Z" transform="translate(-375.744 -158.343)" fill="#e99629"/>
    <path id="Path_46" data-name="Path 46" d="M720.089,251.908l-.02-.707c4.873.651,5.923-5.389,1.008-3.131l1.122-8.2.7.1-.954,6.974C727.12,246.171,725.206,252.615,720.089,251.908Z" transform="translate(-382.838 -163.947)" fill="#2f2e41"/>
    <rect id="Rectangle_79" data-name="Rectangle 79" width="3.808" height="0.707" transform="translate(343.526 76.622)" fill="#2f2e41"/>
    <rect id="Rectangle_80" data-name="Rectangle 80" width="3.808" height="0.707" transform="translate(331.505 76.622)" fill="#2f2e41"/>
    <path id="Path_47" data-name="Path 47" d="M722.619,281.06c.742-5.01-5.123-4.02-8.227-4.069a3.365,3.365,0,0,0-3.281,4.066,18.4,18.4,0,0,0-6.537,3.606,39.057,39.057,0,0,0,24.9.276A18.3,18.3,0,0,0,722.619,281.06Z" transform="translate(-378.484 -174.365)" fill="#2f2e41"/>
    <path id="Path_48" data-name="Path 48" d="M703.832,224.105c3.506-2.027,7.759-.472,11.381.378,6.872,2.113,16.509-.533,17.345-8.719.87-7.613-9.545-11.856-12.874-4.279l.969-.127c-10.8-16.044-29.575-15.436-29.451,6.622-.04.681,1.021.679,1.06,0-.4-13,8.2-21.883,20.365-13.53a35.828,35.828,0,0,1,7.11,7.444c1.266,1.419,1.542-4.693,7.6-3.092,6.671,2.584,4.494,12.136-1.468,14.233-7.367,3.764-15.346-3.534-22.575.154a.531.531,0,0,0,.535.916Z" transform="translate(-374.725 -152.812)" fill="#2f2e41"/>
    <path id="Path_49" data-name="Path 49" d="M706.869,260.978a39.916,39.916,0,1,1,12.369-1.954,39.915,39.915,0,0,1-12.369,1.954Zm0-77.777a37.833,37.833,0,1,0,37.828,37.83A37.834,37.834,0,0,0,706.869,183.2Z" transform="translate(-367.92 -147.442)" fill="#ccc"/>
    <path id="Path_50" data-name="Path 50" d="M853.783,233.285H794.535a4.687,4.687,0,0,1,0-9.374h59.247a4.687,4.687,0,1,1,0,9.374Z" transform="translate(-402.448 -159.461)" fill="#e6e6e6"/>
    <path id="Path_51" data-name="Path 51" d="M873.118,255.287H794.536a4.687,4.687,0,0,1,0-9.374h78.582a4.687,4.687,0,0,1,0,9.374Z" transform="translate(-402.449 -165.644)" fill="#e6e6e6"/>
    <path id="Path_52" data-name="Path 52" d="M819.143,339.676H671.582a4.687,4.687,0,0,1,0-9.374H819.143a4.687,4.687,0,0,1,0,9.374Z" transform="translate(-367.894 -189.361)" fill="#e6e6e6"/>
    <path id="Path_53" data-name="Path 53" d="M838.477,361.679h-166.9a4.687,4.687,0,0,1,0-9.374h166.9a4.687,4.687,0,0,1,0,9.374Z" transform="translate(-367.894 -195.544)" fill="#e6e6e6"/>
    <path id="Path_54" data-name="Path 54" d="M819.143,412.249H671.582a4.687,4.687,0,0,1,0-9.374H819.143a4.687,4.687,0,0,1,0,9.374Z" transform="translate(-367.894 -209.756)" fill="#e6e6e6"/>
    <path id="Path_55" data-name="Path 55" d="M838.477,434.252h-166.9a4.687,4.687,0,0,1,0-9.374h166.9a4.687,4.687,0,0,1,0,9.374Z" transform="translate(-367.894 -215.94)" fill="#e6e6e6"/>
    <path id="Path_56" data-name="Path 56" d="M819.143,484.823H671.582a4.687,4.687,0,0,1,0-9.374H819.143a4.687,4.687,0,0,1,0,9.374Z" transform="translate(-367.894 -230.152)" fill="#e6e6e6"/>
    <path id="Path_57" data-name="Path 57" d="M838.477,506.825h-166.9a4.687,4.687,0,0,1,0-9.374h166.9a4.687,4.687,0,0,1,0,9.374Z" transform="translate(-367.894 -236.335)" fill="#e6e6e6"/>
    <path id="Path_58" data-name="Path 58" d="M673.71,608.413H464.331a9.954,9.954,0,0,1-9.943-9.943V314.228a9.954,9.954,0,0,1,9.943-9.943H673.71a9.954,9.954,0,0,1,9.943,9.943V598.47a9.954,9.954,0,0,1-9.943,9.943Z" transform="translate(-308.172 -182.049)" fill="#fff"/>
    <path id="Path_59" data-name="Path 59" d="M492.506,390.862a38.771,38.771,0,0,0,11.433,27.544c.3.3.615.6.93.894a38.834,38.834,0,0,0,6.173,4.706c.424.262.849.513,1.283.757a38.666,38.666,0,0,0,7.028,3.086c.421.138.848.269,1.276.389a39.049,39.049,0,0,0,23.623-.665l.442-.159a38.892,38.892,0,1,0-52.188-36.552Z" transform="translate(-318.885 -195.451)" fill="#fff"/>
    <path id="Path_60" data-name="Path 60" d="M528.977,432.376a12.051,12.051,0,0,1-3.112,8.158,8.745,8.745,0,0,1-7.98,3.048,5.662,5.662,0,0,1-4.733-5.9,4.368,4.368,0,0,1,5.4-3.923c2.628.682,3.675,4.469,1.485,6.247-.525.427-1.28-.319-.75-.75a2.649,2.649,0,0,0-.747-4.391,3.329,3.329,0,0,0-4.336,2.943,4.641,4.641,0,0,0,4.032,4.76,7.633,7.633,0,0,0,6.688-2.58,10.944,10.944,0,0,0,3-7.616.531.531,0,0,1,1.061,0Z" transform="translate(-324.68 -217.903)" fill="#2f2e41"/>
    <circle id="Ellipse_13" data-name="Ellipse 13" cx="18.921" cy="18.921" r="18.921" transform="translate(195.733 183.373)" fill="#e99629"/>
    <path id="Path_61" data-name="Path 61" d="M548.223,422.161l-.02-.707a5.848,5.848,0,0,0,3.346-.756,2.174,2.174,0,0,0,.842-1.6,1.243,1.243,0,0,0-.408-1.023,2.142,2.142,0,0,0-2.188-.019l-.585.268,1.122-8.2.7.1-.954,6.974a2.5,2.5,0,0,1,2.361.34,1.934,1.934,0,0,1,.658,1.588,2.875,2.875,0,0,1-1.131,2.147A6.514,6.514,0,0,1,548.223,422.161Z" transform="translate(-334.538 -211.794)" fill="#2f2e41"/>
    <rect id="Rectangle_81" data-name="Rectangle 81" width="3.808" height="0.707" transform="translate(219.96 199.028)" fill="#2f2e41"/>
    <rect id="Rectangle_82" data-name="Rectangle 82" width="3.808" height="0.707" transform="translate(207.941 199.028)" fill="#2f2e41"/>
    <path id="Path_62" data-name="Path 62" d="M531.622,454.949a39.048,39.048,0,0,0,23.623-.665l.442-.159a18.835,18.835,0,0,0-5.992-3.1,3.015,3.015,0,0,0-.007-1.662,3.344,3.344,0,0,0-3.235-2.347h-4.61a3.332,3.332,0,0,0-3.228,2.344,3.028,3.028,0,0,0-.007,1.665,18.851,18.851,0,0,0-5.345,2.62q-.493.345-.954.721C532.075,454.557,531.845,454.752,531.622,454.949Z" transform="translate(-329.878 -222.163)" fill="#2f2e41"/>
    <path id="Path_63" data-name="Path 63" d="M570.193,410.358c0,3.189,1.57,5.833,3.61,6.293a2.916,2.916,0,0,0,.633.071c2.337,0,4.242-2.853,4.242-6.364a7.815,7.815,0,0,0-1.633-5.013,4.093,4.093,0,0,0-1.248-1.015,2.959,2.959,0,0,0-1.361-.336,3.1,3.1,0,0,0-1.807.608A7.083,7.083,0,0,0,570.193,410.358Z" transform="translate(-340.718 -210.071)" fill="#3f3d56"/>
    <path id="Path_64" data-name="Path 64" d="M517.578,410.358c0,2.743,1.16,5.084,2.786,5.978a3.02,3.02,0,0,0,1.457.385,2.742,2.742,0,0,0,.339-.021c2.178-.258,3.9-3,3.9-6.342,0-2.676-1.107-4.971-2.669-5.908a3.032,3.032,0,0,0-1.573-.456,2.958,2.958,0,0,0-1.361.336,4.116,4.116,0,0,0-1.252,1.018,7.83,7.83,0,0,0-1.63,5.01Z" transform="translate(-325.93 -210.071)" fill="#3f3d56"/>
    <path id="Path_65" data-name="Path 65" d="M521.18,408.961a.531.531,0,0,0,.5-.7,20.681,20.681,0,1,1,39.839-2.324.53.53,0,1,0,1.038.219,21.743,21.743,0,1,0-41.881,2.445.53.53,0,0,0,.5.361Z" transform="translate(-326.483 -203.306)" fill="#3f3d56"/>
    <path id="Path_66" data-name="Path 66" d="M556.366,398.5a2.652,2.652,0,0,1-.41,3.283,4.439,4.439,0,0,1-4.087,1.007c-1.6-.239-3.289-.987-4.9-.483-1.377.43-2.359,1.679-3.79,1.992a2.628,2.628,0,0,1-3.231-1.443c-.214-.65.81-.928,1.023-.282.288.875,1.53.857,2.242.615,1.141-.388,2.02-1.333,3.141-1.784a6.874,6.874,0,0,1,4.1.011c1.269.286,2.729.709,3.992.176.935-.395,1.679-1.639,1.007-2.557-.4-.551.516-1.081.916-.535Z" transform="translate(-332.208 -208.461)" fill="#2f2e41"/>
    <path id="Path_67" data-name="Path 67" d="M530.982,430.4a39.874,39.874,0,0,1-11.059-1.555c-.422-.119-.866-.254-1.312-.4a39.844,39.844,0,0,1-7.218-3.17c-.431-.241-.863-.5-1.32-.778a39.982,39.982,0,0,1-6.34-4.833c-.321-.3-.64-.607-.951-.914A39.946,39.946,0,1,1,544.644,428l-.448.161A39.857,39.857,0,0,1,530.982,430.4Zm0-77.777a37.83,37.83,0,0,0-26.706,64.621c.293.29.6.583.9.87a37.862,37.862,0,0,0,6,4.578c.433.267.84.507,1.247.735a37.706,37.706,0,0,0,6.837,3c.42.138.835.264,1.235.376a37.988,37.988,0,0,0,22.986-.644l.428-.154a37.833,37.833,0,0,0-12.936-73.383Z" transform="translate(-318.472 -195.041)" fill="#ccc"/>
    <path id="Path_68" data-name="Path 68" d="M673.71,608.413H464.331a9.954,9.954,0,0,1-9.943-9.943V314.228a9.954,9.954,0,0,1,9.943-9.943H673.71a9.954,9.954,0,0,1,9.943,9.943V598.47a9.954,9.954,0,0,1-9.943,9.943ZM464.331,305.455a8.783,8.783,0,0,0-8.773,8.773V598.47a8.783,8.783,0,0,0,8.773,8.773H673.71a8.783,8.783,0,0,0,8.773-8.773V314.228a8.783,8.783,0,0,0-8.773-8.773Z" transform="translate(-308.172 -182.049)" fill="#3f3d56"/>
    <path id="Path_69" data-name="Path 69" d="M678.073,403.3H618.825a4.687,4.687,0,0,1,0-9.374h59.247a4.687,4.687,0,0,1,0,9.374Z" transform="translate(-353.068 -207.242)" fill="#e99629"/>
    <path id="Path_70" data-name="Path 70" d="M697.407,425.3H618.825a4.687,4.687,0,0,1,0-9.374h78.582a4.687,4.687,0,0,1,0,9.374Z" transform="translate(-353.068 -213.425)" fill="#e99629"/>
    <path id="Path_71" data-name="Path 71" d="M643.432,509.693H495.87a4.687,4.687,0,1,1,0-9.374H643.432a4.687,4.687,0,0,1,0,9.374Z" transform="translate(-318.513 -237.141)" fill="#ccc"/>
    <path id="Path_72" data-name="Path 72" d="M662.766,531.7H495.87a4.687,4.687,0,1,1,0-9.374h166.9a4.687,4.687,0,0,1,0,9.374Z" transform="translate(-318.513 -243.325)" fill="#ccc"/>
    <path id="Path_73" data-name="Path 73" d="M643.432,582.266H495.87a4.687,4.687,0,1,1,0-9.374H643.432a4.687,4.687,0,0,1,0,9.374Z" transform="translate(-318.513 -257.537)" fill="#ccc"/>
    <path id="Path_74" data-name="Path 74" d="M662.766,604.269H495.87a4.687,4.687,0,0,1,0-9.374h166.9a4.687,4.687,0,1,1,0,9.374Z" transform="translate(-318.513 -263.721)" fill="#ccc"/>
    <path id="Path_75" data-name="Path 75" d="M643.432,654.839H495.87a4.687,4.687,0,0,1,0-9.374H643.432a4.687,4.687,0,1,1,0,9.374Z" transform="translate(-318.513 -277.933)" fill="#ccc"/>
    <path id="Path_76" data-name="Path 76" d="M662.766,676.842H495.87a4.687,4.687,0,0,1,0-9.374h166.9a4.687,4.687,0,1,1,0,9.374Z" transform="translate(-318.513 -284.116)" fill="#ccc"/>
    <path id="Path_77" data-name="Path 77" d="M738.011,637.268a46.18,46.18,0,1,0,0,92.36h0a46.18,46.18,0,1,0,0-92.361Z" transform="translate(-374.902 -275.629)" fill="#e99629"/>
    <path id="f276b720-7c73-4755-84a7-b208d54eb1fc" d="M742.8,712.111a5.6,5.6,0,0,1-3.372-1.12l-.06-.045-12.7-9.715a5.644,5.644,0,1,1,6.867-8.958l8.226,6.308L761.2,673.222a5.641,5.641,0,0,1,7.909-1.045h0l-.121.168.124-.168a5.648,5.648,0,0,1,1.043,7.911L747.292,709.9a5.644,5.644,0,0,1-4.489,2.2Z" transform="translate(-384.071 -285.112)" fill="#fff"/>
  </g>
</svg>
