<svg id="Group_11" data-name="Group 11" xmlns="http://www.w3.org/2000/svg" width="536.401" height="372.415" viewBox="0 0 536.401 372.415">
  <circle id="Ellipse_182" data-name="Ellipse 182" cx="2.825" cy="2.825" r="2.825" transform="translate(57.589 33.488)" fill="#fff"/>
  <circle id="Ellipse_183" data-name="Ellipse 183" cx="2.825" cy="2.825" r="2.825" transform="translate(68.312 33.488)" fill="#fff"/>
  <circle id="Ellipse_184" data-name="Ellipse 184" cx="2.825" cy="2.825" r="2.825" transform="translate(79.034 33.488)" fill="#fff"/>
  <rect id="Rectangle_266" data-name="Rectangle 266" width="358.755" height="1.994" transform="translate(53.55 42.95)" fill="#fff"/>
  <rect id="Rectangle_246" data-name="Rectangle 246" width="412.437" height="264.143" transform="translate(0.176 0.234)" fill="#e6e6e6"/>
  <rect id="Rectangle_264" data-name="Rectangle 264" width="412.437" height="17.522" fill="#e99629"/>
  <rect id="Rectangle_247" data-name="Rectangle 247" width="388.85" height="100.694" transform="translate(12.31 31.655)" fill="#fff"/>
  <rect id="Rectangle_259" data-name="Rectangle 259" width="388.85" height="100.694" transform="translate(12.556 148.895)" fill="#fff"/>
  <g id="Group_31" data-name="Group 31" transform="translate(143.619 53.93)">
    <rect id="Rectangle_250" data-name="Rectangle 250" width="210.446" height="9.379" fill="#e6e6e6"/>
    <rect id="Rectangle_251" data-name="Rectangle 251" width="75.034" height="9.379" transform="translate(0 23.448)" fill="#e6e6e6"/>
    <rect id="Rectangle_252" data-name="Rectangle 252" width="149.482" height="9.379" transform="translate(0 46.896)" fill="#e6e6e6"/>
  </g>
  <path id="Path_952" data-name="Path 952" d="M345.542,450.263a34.98,34.98,0,0,1-5.718,19.224,34.182,34.182,0,0,1-2.573,3.455,35.316,35.316,0,0,1-7.538,6.7q-1.15.762-2.365,1.427a34.869,34.869,0,0,1-13.663,4.208c-1.09.106-2.2.157-3.316.157a35.03,35.03,0,0,1-9.076-1.187,33.7,33.7,0,0,1-4.91-1.7q-1.219-.527-2.383-1.145a34.645,34.645,0,0,1-5.3-3.432q-1.157-.9-2.231-1.9a35.168,35.168,0,1,1,59.072-25.8Z" transform="translate(-217.751 -251.537)" fill="#e99629"/>
  <g id="Group_32" data-name="Group 32" transform="translate(76.206 182.308)">
    <rect id="Rectangle_273" data-name="Rectangle 273" width="4.312" height="32.827" transform="translate(14.258)" fill="#fff"/>
    <rect id="Rectangle_274" data-name="Rectangle 274" width="32.827" height="4.312" transform="translate(0 14.258)" fill="#fff"/>
  </g>
  <g id="Group_33" data-name="Group 33" transform="translate(138.343 171.17)">
    <rect id="Rectangle_250-2" data-name="Rectangle 250-2" width="210.446" height="9.379" fill="#e6e6e6"/>
    <rect id="Rectangle_251-2" data-name="Rectangle 251-2" width="75.034" height="9.379" transform="translate(0 23.448)" fill="#e6e6e6"/>
    <rect id="Rectangle_252-2" data-name="Rectangle 252-2" width="149.482" height="9.379" transform="translate(0 46.896)" fill="#e6e6e6"/>
  </g>
  <circle id="Ellipse_194" data-name="Ellipse 194" cx="2.898" cy="2.898" r="2.898" transform="translate(24.379 5.818)" fill="#fff"/>
  <circle id="Ellipse_195" data-name="Ellipse 195" cx="2.898" cy="2.898" r="2.898" transform="translate(35.381 5.818)" fill="#fff"/>
  <circle id="Ellipse_246" data-name="Ellipse 246" cx="2.898" cy="2.898" r="2.898" transform="translate(13.348 5.818)" fill="#fff"/>
  <path id="Path_2" data-name="Path 2" d="M341.661,327.29a60.106,60.106,0,0,0-9.59-4.036l-.422-4.665-17.1-1.843-2.174,5.963-6.138,2.3a2.987,2.987,0,0,0-.623.324H305.6a3.041,3.041,0,0,0-1.3,2.024,3.109,3.109,0,0,0,.046,1.22l.324,1.33c.467.279.947.545,1.427.8l.305.156c.7.363,1.415.707,2.148,1.025.149.065.311.13.461.195.013.007.019.007.032.013.344.143.688.279,1.038.409a34.1,34.1,0,0,0,3.517,1.129,36.166,36.166,0,0,0,9.324,1.22c1.148,0,2.284-.052,3.407-.162a36.018,36.018,0,0,0,7.553-1.525c.006,0,.013-.006.019-.006a35.452,35.452,0,0,0,4.536-1.8c.006-.007.019-.007.026-.013.331-.156.649-.324.973-.487l.156-.078c.259-.136.519-.273.779-.415.649-.357,1.285-.733,1.914-1.136.175-.1.344-.214.519-.331.246-.162.493-.331.733-.506Q342.637,327.816,341.661,327.29Z" transform="translate(-227.956 -217.002)" fill="#3f3d56"/>
  <path id="Path_3" data-name="Path 3" d="M307.947,334.81l-1.071-4.834h-2.8a.666.666,0,0,0-.084.007h-.007a6.06,6.06,0,0,0-2.816.973,6.237,6.237,0,0,0-1.505,1.35c.83.629,1.693,1.213,2.582,1.771l.039.019c.253.156.513.311.772.461.467.279.947.545,1.427.8l.305.156c.7.363,1.415.707,2.148,1.025.149.065.311.13.461.195.013.007.019.007.032.013.344.143.688.279,1.038.409Z" transform="translate(-226.341 -221.647)" fill="#3f3d56"/>
  <circle id="Ellipse_9" data-name="Ellipse 9" cx="12.318" cy="12.318" r="12.318" transform="translate(82.152 72.158)" fill="#ffb8b8"/>
  <path id="Path_4" data-name="Path 4" d="M316.553,277.711c1.275,1.509,3.433,1.935,5.424,2.109a51.085,51.085,0,0,0,13.873-1.133c.282,2.733-.487,5.68,1.123,7.928a36.805,36.805,0,0,0,1.308-8.344,7.986,7.986,0,0,0-.462-3.574,3.287,3.287,0,0,0-2.8-2.064,7.017,7.017,0,0,1,3.13-1.338l-3.911-1.966,1-1.031-7.081-.433,2.051-1.3a44.471,44.471,0,0,0-9.317-.294,8,8,0,0,0-4.121,1.146,2.976,2.976,0,0,0-1.119,3.725,5.409,5.409,0,0,0-4.122,3.271,8.732,8.732,0,0,0-.313,4.2,29.751,29.751,0,0,0,1.56,6.6Z" transform="translate(-230.353 -199.236)" fill="#2f2e41"/>
  <path id="Path_5" data-name="Path 5" d="M347.6,259.5a36.148,36.148,0,1,0-62.466,34.338c.324.409.662.818,1.006,1.213.026.026.045.052.071.078a35.07,35.07,0,0,0,2.693,2.777c.247.227.506.461.766.681.493.441,1,.863,1.525,1.265.208.162.409.324.623.48.83.629,1.693,1.213,2.582,1.771l.039.019c.253.156.513.311.772.461.467.279.947.545,1.427.8l.305.156c.7.363,1.415.707,2.148,1.025.149.065.311.13.461.195.013.006.019.006.032.013.344.143.688.279,1.038.409a34.107,34.107,0,0,0,3.517,1.129,36.165,36.165,0,0,0,9.324,1.22c1.148,0,2.284-.052,3.406-.162a36.02,36.02,0,0,0,7.553-1.525c.006,0,.013-.007.019-.007a35.454,35.454,0,0,0,4.536-1.8c.006-.006.019-.006.026-.013.331-.156.649-.324.973-.487l.156-.078c.259-.136.519-.273.779-.415.649-.357,1.285-.733,1.914-1.136.175-.1.344-.214.519-.331.246-.162.493-.331.733-.506.318-.221.636-.448.947-.681.1-.071.2-.143.3-.221A36.135,36.135,0,0,0,347.6,259.5ZM334.131,298.6c-.214.169-.435.331-.656.48s-.428.318-.649.461c-.188.136-.376.266-.571.389l-.058.039c-.143.1-.285.188-.428.279q-.808.506-1.635.973l-.175.1c-.246.136-.493.266-.739.4-.033.019-.072.032-.1.052l-.039.019c-.311.162-.63.318-.947.467a31.831,31.831,0,0,1-3.783,1.531c-.169.058-.337.117-.506.169a34.036,34.036,0,0,1-7.15,1.453c-1.064.1-2.141.149-3.225.149a33.709,33.709,0,0,1-8.818-1.155,32.042,32.042,0,0,1-4.328-1.466c-.072-.032-.15-.058-.221-.091s-.149-.058-.221-.091-.149-.065-.227-.1c-.61-.266-1.213-.558-1.8-.863l-.285-.149c-.72-.376-1.428-.779-2.115-1.207-.2-.123-.409-.253-.6-.389-.052-.032-.1-.065-.149-.1-.461-.3-.921-.623-1.369-.954-.3-.227-.61-.454-.908-.688-.5-.376-.98-.779-1.447-1.194-.246-.208-.487-.435-.72-.649a32.974,32.974,0,0,1-2.608-2.7c-.272-.311-.539-.623-.792-.947a2.485,2.485,0,0,1-.162-.2,34.168,34.168,0,1,1,47.445,5.989Z" transform="translate(-218.492 -188.382)" fill="#3f3d56"/>
  <path id="Path_6" data-name="Path 6" d="M821.692,526.865A36.148,36.148,0,1,0,759.226,561.2c.324.409.662.818,1.006,1.213.026.026.045.052.071.078A35.111,35.111,0,0,0,763,565.271c.247.227.506.461.765.681.493.441,1,.863,1.525,1.265a35.552,35.552,0,0,0,3.205,2.251l.039.02c.72.448,1.453.863,2.2,1.259l.3.156c.7.363,1.415.707,2.148,1.025.149.065.311.13.461.195.013.007.02.007.033.013a35.124,35.124,0,0,0,4.555,1.538,36.167,36.167,0,0,0,9.324,1.22c1.148,0,2.284-.052,3.406-.162a36.016,36.016,0,0,0,7.553-1.525c.007,0,.013-.007.019-.007a35.432,35.432,0,0,0,4.536-1.8c.006-.007.02-.007.026-.013.331-.156.649-.324.973-.487l.156-.078c.26-.136.519-.273.778-.415.649-.357,1.285-.733,1.914-1.136.175-.1.344-.214.519-.331.571-.376,1.135-.779,1.68-1.187.1-.071.2-.143.3-.221a36.137,36.137,0,0,0,12.276-40.671Z" transform="translate(-384.963 -282.262)" fill="#fff"/>
  <circle id="Ellipse_188" data-name="Ellipse 188" cx="5.417" cy="5.417" r="5.417" transform="translate(409.103 260.549)" fill="#2f2e41"/>
  <path id="Path_969" data-name="Path 969" d="M825.538,564.365a5.418,5.418,0,0,1,4.769,7.989,5.416,5.416,0,1,0-9-5.951,5.4,5.4,0,0,1,4.23-2.037Z" transform="translate(-409.509 -303.666)" fill="#2f2e41"/>
  <circle id="Ellipse_189" data-name="Ellipse 189" cx="15.914" cy="15.914" r="15.914" transform="translate(388.483 234.127)" fill="#2f2e41"/>
  <path id="Path_970" data-name="Path 970" d="M788.014,529.86a15.911,15.911,0,0,1,22.055-1.669c-.13-.124-.26-.249-.394-.369a15.914,15.914,0,0,0-21.237,23.706l.091.081c.135.12.274.234.412.348a15.911,15.911,0,0,1-.926-22.1Z" transform="translate(-396.107 -289.693)" fill="#2f2e41"/>
  <circle id="Ellipse_190" data-name="Ellipse 190" cx="10.249" cy="10.249" r="10.249" transform="translate(394.012 245.321)" fill="#a0616a"/>
  <path id="Path_7" data-name="Path 7" d="M812.732,589.554v3.439c-.63.4-1.265.779-1.914,1.135-.259.143-.519.279-.778.415l-.156.078c-.324.162-.643.331-.973.487-.006.006-.02.006-.026.013a35.443,35.443,0,0,1-4.536,1.8c-.006,0-.013.007-.019.007a36.011,36.011,0,0,1-7.553,1.525c-1.123.11-2.258.162-3.407.162a36.161,36.161,0,0,1-9.324-1.22,35.123,35.123,0,0,1-4.555-1.538c-.013-.006-.02-.006-.033-.013-.149-.065-.311-.13-.461-.195-.733-.318-1.447-.662-2.148-1.025l-.3-.156c-.746-.4-1.48-.811-2.2-1.259l-.039-.019a35.545,35.545,0,0,1-3.205-2.252c-.526-.4-1.032-.824-1.525-1.265-.259-.221-.519-.454-.765-.681a35.123,35.123,0,0,1-2.693-2.777,13.132,13.132,0,0,1,.493-1.992l.006-.006a2.915,2.915,0,0,1,.136-.324,2.589,2.589,0,0,1,.123-.273c1.161-2.174,3.264-2.712,5.872-2.829,1.473-.065,3.1.006,4.821-.013.908-.007,1.849-.039,2.79-.123,5.937-.539,4.86-4.042,5.126-5.931.266-1.83,1.914-.247,2.024-.143l.006.007a20.94,20.94,0,0,0,10.771,1.888c.636-.078,1.272-.123,1.908-.143,1.674-.019,1.311.461.733.857a7.242,7.242,0,0,1-.876.493s-.266,1.622-.539,4.049c-.259,2.323,4.192,3.413,4.561,3.5a.04.04,0,0,0,.026.006,8.937,8.937,0,0,1,4.938.13h.006A5.852,5.852,0,0,1,812.732,589.554Z" transform="translate(-390.129 -307.279)" fill="#e99629"/>
  <path id="Path_8" data-name="Path 8" d="M783.031,596.876c0,.48-.013.941-.032,1.376-.006.26-.019.513-.032.753-.013-.006-.02-.006-.033-.013-.149-.065-.311-.13-.461-.195-.733-.318-1.447-.662-2.148-1.025l-.3-.156c-.746-.4-1.48-.811-2.2-1.259.019-.227.052-.454.084-.681.071-.5.13-1.006.169-1.505a20.884,20.884,0,0,0-1.849-10.226v-.006c-.13-.26-.208-.4-.208-.4a3.91,3.91,0,0,1,4.581,0,1.62,1.62,0,0,1,.448.389C782.669,585.839,783.109,592.276,783.031,596.876Z" transform="translate(-393.606 -310.429)" fill="#2f2e41"/>
  <path id="Path_9" data-name="Path 9" d="M829.469,598.572c-.026.727-.065,1.486-.11,2.258v.006c-.006.006-.02.006-.026.013a35.428,35.428,0,0,1-4.536,1.8c-.006,0-.013.006-.019.006l-.071-1.823-.007-.24-.344-8.876a1.489,1.489,0,0,1,1.486-1.557h3.29c.162,0,.279.331.357.928v.007A56.231,56.231,0,0,1,829.469,598.572Z" transform="translate(-410.579 -313.007)" fill="#2f2e41"/>
  <path id="Path_975" data-name="Path 975" d="M796.181,537.154v10.252h2.374l3.021-3.237-.4,3.237h10.492l-.649-3.237,1.3,3.237h1.673V537.154Z" transform="translate(-400.686 -294.396)" fill="#2f2e41"/>
  <ellipse id="Ellipse_191" data-name="Ellipse 191" cx="0.809" cy="1.483" rx="0.809" ry="1.483" transform="translate(393.068 251.93)" fill="#a0616a"/>
  <ellipse id="Ellipse_192" data-name="Ellipse 192" cx="0.809" cy="1.483" rx="0.809" ry="1.483" transform="translate(413.838 251.93)" fill="#a0616a"/>
  <path id="Path_10" data-name="Path 10" d="M838.7,598.807c-.545.409-1.11.811-1.68,1.187-.175.117-.344.227-.519.331-.63.4-1.265.779-1.914,1.135-.259.143-.519.279-.778.415v-7.15s1.038.831,2.693,2.213c.208.175.422.357.649.552C837.629,597.892,838.149,598.334,838.7,598.807Z" transform="translate(-413.898 -314.611)" fill="#e99629"/>
  <path id="Path_11" data-name="Path 11" d="M821.692,526.865A36.148,36.148,0,1,0,759.226,561.2c.324.409.662.818,1.006,1.213.026.026.045.052.071.078A35.111,35.111,0,0,0,763,565.271c.247.227.506.461.765.681.493.441,1,.863,1.525,1.265a35.552,35.552,0,0,0,3.205,2.251l.039.02c.72.448,1.453.863,2.2,1.259l.3.156c.7.363,1.415.707,2.148,1.025.149.065.311.13.461.195.013.007.02.007.033.013a35.124,35.124,0,0,0,4.555,1.538,36.167,36.167,0,0,0,9.324,1.22c1.148,0,2.284-.052,3.406-.162a36.016,36.016,0,0,0,7.553-1.525c.007,0,.013-.007.019-.007a35.432,35.432,0,0,0,4.536-1.8c.006-.007.02-.007.026-.013.331-.156.649-.324.973-.487l.156-.078c.26-.136.519-.273.778-.415.649-.357,1.285-.733,1.914-1.136.175-.1.344-.214.519-.331.571-.376,1.135-.779,1.68-1.187.1-.071.2-.143.3-.221a36.137,36.137,0,0,0,12.276-40.671Zm-13.471,39.094c-.214.169-.435.331-.655.48s-.428.318-.649.461c-.188.136-.376.266-.571.389-.162.11-.324.214-.487.318q-.807.506-1.635.973l-.175.1c-.247.136-.493.266-.74.4-.033.019-.072.032-.1.052l-.039.019c-.311.162-.629.318-.947.467a31.81,31.81,0,0,1-3.783,1.531c-.169.058-.337.117-.506.169a34.036,34.036,0,0,1-7.151,1.453c-1.064.1-2.141.149-3.225.149a33.71,33.71,0,0,1-8.818-1.155,32.069,32.069,0,0,1-4.328-1.466c-.149-.058-.3-.123-.441-.182-.078-.032-.149-.065-.227-.1-.61-.266-1.213-.558-1.8-.863l-.286-.149c-.72-.376-1.428-.779-2.115-1.207-.253-.156-.506-.318-.752-.487-.779-.513-1.538-1.064-2.278-1.642-.5-.376-.98-.779-1.447-1.194-.246-.208-.487-.435-.72-.649a33,33,0,0,1-2.608-2.7c-.273-.311-.539-.623-.792-.947a2.479,2.479,0,0,1-.162-.2,34.168,34.168,0,1,1,47.445,5.989Z" transform="translate(-384.963 -282.262)" fill="#3f3d56"/>
  <path id="Path_12" data-name="Path 12" d="M851.809,520.2a6.525,6.525,0,0,0,3.424-9.4l15.157-17.548L858.441,491.7,845.88,508.6a6.56,6.56,0,0,0,5.929,11.6Z" transform="translate(-417.116 -278.435)" fill="#ffb8b8"/>
  <path id="Path_13" data-name="Path 13" d="M982.02,523.718a6.525,6.525,0,0,0-1.533-9.887L985.3,491.15l-11.218,4.4-2.855,20.864a6.56,6.56,0,0,0,10.788,7.305Z" transform="translate(-461.895 -278.242)" fill="#ffb8b8"/>
  <path id="Path_14" data-name="Path 14" d="M711.578,543.885h-7.955L699.839,513.2h11.74Z" transform="translate(-245.74 -180.204)" fill="#ffb8b8"/>
  <path id="Path_15" data-name="Path 15" d="M893.836,729.819h-25.65v-.324a9.983,9.983,0,0,1,9.983-9.983h15.667Z" transform="translate(-425.97 -358.428)" fill="#2f2e41"/>
  <path id="Path_16" data-name="Path 16" d="M771.578,543.885h-7.955L759.839,513.2h11.74Z" transform="translate(-266.808 -180.204)" fill="#ffb8b8"/>
  <path id="Path_17" data-name="Path 17" d="M953.836,729.819h-25.65v-.324a9.983,9.983,0,0,1,9.983-9.983h15.667Z" transform="translate(-447.038 -358.428)" fill="#2f2e41"/>
  <path id="Path_18" data-name="Path 18" d="M898.257,637.9,887,637.453a2.929,2.929,0,0,1-2.8-3.007l3.172-104.064.207-.075c19.736-7.139,36.063-6.6,49.914,1.648l.155.093,1.9,101.354a2.92,2.92,0,0,1-2.919,2.975h-9.5a2.926,2.926,0,0,1-2.865-2.357l-12.935-65.8a.973.973,0,0,0-1.921.071l-8.136,67.047a2.936,2.936,0,0,1-2.9,2.568Z" transform="translate(-431.59 -290.245)" fill="#2f2e41"/>
  <circle id="Ellipse_10" data-name="Ellipse 10" cx="15.937" cy="15.937" r="15.937" transform="translate(461.685 117.003)" fill="#ffb8b8"/>
  <path id="Path_19" data-name="Path 19" d="M862.225,478.648a2.924,2.924,0,0,1-1.357-1.094l-3.079-4.608a2.93,2.93,0,0,1,.077-3.354l12.414-16.849,7.777-37.317a9.406,9.406,0,1,1,17.53,6.826L891.913,446a30.089,30.089,0,0,1-10.4,18.454l-16.341,13.713a2.923,2.923,0,0,1-2.289.654A2.887,2.887,0,0,1,862.225,478.648Z" transform="translate(-422.147 -249.547)" fill="#3f3d56"/>
  <path id="Path_20" data-name="Path 20" d="M970.721,480.529a2.924,2.924,0,0,1-1.741.075l-5.356-1.424a2.929,2.929,0,0,1-2.158-2.569l-1.814-20.85-18.818-33.15a9.406,9.406,0,0,1,17.669-6.459l12.933,20.256a30.09,30.09,0,0,1,4.389,20.722l-3.206,21.091a2.923,2.923,0,0,1-1.286,2,2.894,2.894,0,0,1-.61.3Z" transform="translate(-451.277 -249.738)" fill="#3f3d56"/>
  <path id="Path_21" data-name="Path 21" d="M891.979,406.734a27.137,27.137,0,0,1,21.761-8.8q.4.025.8.056h0a27.08,27.08,0,0,1,19.569,10.8,27.487,27.487,0,0,1,4.883,22.155,85.884,85.884,0,0,0,2.269,44.042l4.275,13.275a2.919,2.919,0,0,1-2.623,3.81l-21.857,1.175-5.593-9.661v9.962l-26.565,1.428c-.053,0-.105,0-.158,0a2.92,2.92,0,0,1-2.909-3.154l3-37.233-3.766-25.288a27.31,27.31,0,0,1,6.915-22.575Z" transform="translate(-431.789 -245.492)" fill="#3f3d56"/>
  <path id="Path_22" data-name="Path 22" d="M922.422,372.428c-1.476.849-7.308,1.412-7.723-.239l-.009-.036a12.428,12.428,0,0,1,.034-3.713,4.653,4.653,0,0,0-.884-3.516c-1.575-1.7-4.378-.8-6.656-1.229a5.622,5.622,0,0,1-4.373-6c.032-.258.083-.516.14-.774a4.33,4.33,0,0,0-4.495-5.244c-2.3.132-4.787.829-6.692-.876-1.473-1.319-1.832-4.751-1.185-6.619,1.088-3.139,8.055-4.783,11.1-5.686a26.357,26.357,0,0,1,22.341,3.666,11.829,11.829,0,0,1,4.535,5.259c.819,2.2.424,4.983-1.423,6.438a11.9,11.9,0,0,1,2.755,11.554C928.971,368.346,924.618,371.164,922.422,372.428Z" transform="translate(-433.724 -224.273)" fill="#2f2e41"/>
  <path id="Path_23" data-name="Path 23" d="M937.2,736.274H798.989a.649.649,0,0,1,0-1.3H937.2a.649.649,0,1,1,0,1.3Z" transform="translate(-401.444 -363.858)" fill="#ccc"/>
</svg>
