<svg id="Group_16" data-name="Group 16" xmlns="http://www.w3.org/2000/svg" width="545.792" height="461" viewBox="0 0 545.792 461">
  <path id="Path_144" data-name="Path 144" d="M889.4,354.635q.961,3.754,1.8,7.546H700.648v-7.546Z" transform="translate(-350.954 -196.901)" fill="#e6e6e6"/>
  <path id="Path_145" data-name="Path 145" d="M935.3,317.942a233.2,233.2,0,0,0-10.713-25.378q-1.877-3.811-3.9-7.546c-.221-.427-.458-.855-.694-1.282v56.159h16.466v-18.61Z" transform="translate(-402.934 -180.1)" fill="#e6e6e6"/>
  <path id="Path_146" data-name="Path 146" d="M924.591,292.961H920v-7.546h.694Q922.718,289.146,924.591,292.961Z" transform="translate(-402.934 -180.498)" fill="#ccc"/>
  <path id="Path_147" data-name="Path 147" d="M692.952,180.65H677.646V188.2h16.466v-4.2Z" transform="translate(-160.582 -42.809)" fill="#ccc"/>
  <rect id="Rectangle_133" data-name="Rectangle 133" width="16.463" height="65.166" transform="translate(491.685 94.629)" fill="#e6e6e6"/>
  <rect id="Rectangle_134" data-name="Rectangle 134" width="16.463" height="7.546" transform="translate(491.685 104.918)" fill="#ccc"/>
  <rect id="Rectangle_135" data-name="Rectangle 135" width="16.463" height="7.546" transform="translate(491.685 137.844)" fill="#ccc"/>
  <path id="Path_148" data-name="Path 148" d="M790.51,271.435H731.452a3.439,3.439,0,0,0-3.434,3.434v59.059a3.549,3.549,0,0,0,.145.992,3.441,3.441,0,0,0,3.289,2.442H790.51a3.441,3.441,0,0,0,3.289-2.442,3.542,3.542,0,0,0,.145-.992V274.869A3.439,3.439,0,0,0,790.51,271.435Z" transform="translate(-357.44 -177.186)" fill="#e6e6e6"/>
  <path id="Path_149" data-name="Path 149" d="M787.617,276.935H736.952a3.439,3.439,0,0,0-3.434,3.434v50.665a3.439,3.439,0,0,0,3.434,3.434h50.665a3.439,3.439,0,0,0,3.434-3.434V280.369A3.439,3.439,0,0,0,787.617,276.935Z" transform="translate(-358.744 -178.489)" fill="#fff"/>
  <path id="Path_150" data-name="Path 150" d="M781.525,288.515H748.532a3.439,3.439,0,0,0-3.434,3.434v32.993a3.439,3.439,0,0,0,3.434,3.434h32.994a3.452,3.452,0,0,0,3.434-3.434V291.949A3.439,3.439,0,0,0,781.525,288.515Z" transform="translate(-361.488 -181.233)" fill="#ccc"/>
  <path id="Path_151" data-name="Path 151" d="M777.974,323.79l-6.969-12.07a1.526,1.526,0,0,0-2.643,0l-5.089,8.814L756.6,308.976a1.526,1.526,0,0,0-2.643,0l-6.969,12.07-8.29,14.359h15.989L753.1,338.15h33.162Z" transform="translate(-359.971 -185.901)" fill="#fff"/>
  <circle id="Ellipse_36" data-name="Ellipse 36" cx="4.802" cy="4.802" r="4.802" transform="translate(410.742 109.72)" fill="#fff"/>
  <path id="Path_152" data-name="Path 152" d="M946.3,420.468q-.08-4.441-.351-8.836c-.076-1.4-.168-2.8-.282-4.2H913.452a3.439,3.439,0,0,0-3.434,3.434v59.059a3.117,3.117,0,0,0,.1.8,3.437,3.437,0,0,0,3.335,2.632h29.7c.153-.87.3-1.755.427-2.632.084-.519.168-1.045.244-1.564.183-1.244.358-2.488.519-3.731q.344-2.541.618-5.1,1.007-9.191,1.3-18.58v-.008q.1-3.537.107-7.1v-9.156C946.361,423.8,946.346,422.131,946.3,420.468Z" transform="translate(-400.569 -209.413)" fill="#e6e6e6"/>
  <path id="Path_153" data-name="Path 153" d="M947.6,421.771q-.08-4.441-.351-8.836h-28.3a3.439,3.439,0,0,0-3.434,3.434v50.665a3.439,3.439,0,0,0,3.434,3.434h26.172c.183-1.244.358-2.488.519-3.731q.344-2.541.618-5.1,1.007-9.191,1.3-18.58v-.008q.1-3.537.107-7.1v-9.156C947.664,425.105,947.649,423.434,947.6,421.771Z" transform="translate(-401.872 -210.717)" fill="#fff"/>
  <path id="Path_154" data-name="Path 154" d="M950.348,424.515H930.532a3.439,3.439,0,0,0-3.434,3.434v32.993a3.439,3.439,0,0,0,3.434,3.434H949q1.007-9.191,1.3-18.58v-.008q.1-3.537.107-7.1v-9.156C950.409,427.849,950.393,426.178,950.348,424.515Z" transform="translate(-404.616 -213.461)" fill="#ccc"/>
  <path id="Path_155" data-name="Path 155" d="M948.785,450.463q-.286,9.385-1.3,18.58-.274,2.564-.618,5.1H935.1l1.587-2.739H920.7l4.883-8.462,3.4-5.9,6.974-12.071a1.519,1.519,0,0,1,2.64,0l6.677,11.56Z" transform="translate(-403.1 -218.128)" fill="#fff"/>
  <path id="Path_156" data-name="Path 156" d="M838.825,226.441H700.648V218.9H831.973Q835.475,222.592,838.825,226.441Z" transform="translate(-350.954 -164.735)" fill="#e6e6e6"/>
  <path id="Path_157" data-name="Path 157" d="M796.838,160.2q8.447,4.647,16.466,9.958v36.885H796.838Z" transform="translate(-373.749 -150.825)" fill="#e6e6e6"/>
  <rect id="Rectangle_136" data-name="Rectangle 136" width="16.463" height="7.546" transform="translate(423.09 34.264)" fill="#ccc"/>
  <path id="Path_158" data-name="Path 158" d="M846.564,194.553v17.5H830.1V181.375q5.757,4.2,11.255,8.737Q843.985,192.286,846.564,194.553Z" transform="translate(-381.63 -155.844)" fill="#e6e6e6"/>
  <path id="Path_159" data-name="Path 159" d="M846.564,197.266v3.1H830.1v-7.539h11.255Q843.985,195,846.564,197.266Z" transform="translate(-381.63 -158.557)" fill="#ccc"/>
  <path id="Path_160" data-name="Path 160" d="M766.644,148.876q6.535,2.941,12.849,6.272l-3.388,6.837-11.255,22.746-3.349,6.76-5.242,10.583-1.152,2.327-4.693-2.327-10.057-4.983,6.387-12.91h.008l3.342-6.76,11.263-22.746,3.311-6.684.038-.076Z" transform="translate(-360.364 -147.915)" fill="#e6e6e6"/>
  <path id="Path_161" data-name="Path 161" d="M543.625,7.3l-3.35,6.768L525.526,6.76,528.838.076,528.876,0l1.938.961Z" transform="translate(-124.534)" fill="#ccc"/>
  <rect id="Rectangle_137" data-name="Rectangle 137" width="7.546" height="16.463" transform="matrix(0.444, -0.896, 0.896, 0.444, 386.382, 36.27)" fill="#ccc"/>
  <path id="Path_162" data-name="Path 162" d="M893.962,490.385c-.13.877-.275,1.763-.427,2.632-.267,1.648-.557,3.281-.87,4.914H700.648v-7.546Z" transform="translate(-350.954 -229.07)" fill="#e6e6e6"/>
  <rect id="Rectangle_138" data-name="Rectangle 138" width="16.463" height="65.166" transform="translate(423.09 198.209)" fill="#e6e6e6"/>
  <rect id="Rectangle_139" data-name="Rectangle 139" width="16.463" height="7.546" transform="translate(423.09 208.497)" fill="#ccc"/>
  <rect id="Rectangle_140" data-name="Rectangle 140" width="16.463" height="7.546" transform="translate(423.09 241.423)" fill="#ccc"/>
  <rect id="Rectangle_141" data-name="Rectangle 141" width="16.463" height="65.166" transform="translate(448.469 198.209)" fill="#e6e6e6"/>
  <rect id="Rectangle_142" data-name="Rectangle 142" width="16.463" height="7.546" transform="translate(448.469 208.497)" fill="#ccc"/>
  <rect id="Rectangle_143" data-name="Rectangle 143" width="16.463" height="7.546" transform="translate(448.469 241.423)" fill="#ccc"/>
  <rect id="Rectangle_144" data-name="Rectangle 144" width="65.166" height="16.463" transform="matrix(0.444, -0.896, 0.896, 0.444, 379.991, 256.339)" fill="#e6e6e6"/>
  <rect id="Rectangle_145" data-name="Rectangle 145" width="7.546" height="16.463" transform="matrix(0.444, -0.896, 0.896, 0.444, 400.991, 213.922)" fill="#ccc"/>
  <rect id="Rectangle_146" data-name="Rectangle 146" width="7.546" height="16.463" transform="matrix(0.444, -0.896, 0.896, 0.444, 386.382, 243.43)" fill="#ccc"/>
  <path id="Path_163" data-name="Path 163" d="M528.168,517.115a15.1,15.1,0,0,1,1.961,1.344l67.932-21.14,3.831-16.854,26.191,2.457-3.882,30.5a11.477,11.477,0,0,1-9.59,9.886L534.666,535.96a15.059,15.059,0,1,1-6.5-18.846Z" transform="translate(-304.754 -226.719)" fill="#ffb8b8"/>
  <path id="Path_164" data-name="Path 164" d="M667.866,480.828l-.45-7.691v-.008l-.122-2.106-1.328-22.647a17.91,17.91,0,0,0-16.275-19.343,17.662,17.662,0,0,0-4.074.107A17.964,17.964,0,0,0,630.241,445.3l-2.754,11.461-4.815,20.045a6.423,6.423,0,0,0,3.312,7.234,6.316,6.316,0,0,0,2.388.7l8.027.717,7.729.687,8.92.794.641.053,1.648.153,5.517.488h.015a6.463,6.463,0,0,0,6.264-3.418,6.291,6.291,0,0,0,.733-3.388Z" transform="translate(-332.433 -214.515)" fill="#e99629"/>
  <path id="Path_165" data-name="Path 165" d="M746.154,352.221c0,26.115-24.147,22.165-53.935,22.165s-53.935,3.95-53.935-22.165,11.8-72.406,53.935-72.406C735.81,279.815,746.154,326.106,746.154,352.221Z" transform="translate(-336.176 -179.172)" fill="#2f2e41"/>
  <circle id="Ellipse_37" data-name="Ellipse 37" cx="36.293" cy="36.293" r="36.293" transform="translate(304.539 158.877) rotate(-45)" fill="#ffb8b8"/>
  <path id="Path_166" data-name="Path 166" d="M742.4,421.631a22.4,22.4,0,0,0-2.22-1.877,23.593,23.593,0,0,0-17.268-4.571l-66.88,8.462a23.745,23.745,0,0,0-20.716,25.775c.191,2.136.4,4.387.641,6.73.305,2.938.649,6.02,1.045,9.21.656,5.364,1.458,11.026,2.411,16.787.832,4.96,1.778,9.988,2.861,14.955q.469,2.152.976,4.288a.028.028,0,0,0,.008.023c.038.176.076.351.122.519a.057.057,0,0,0,.008.038q.71,2.976,1.488,5.883c.2.717.389,1.427.587,2.129.534,1.908,1.1,3.777,1.679,5.616,4.357,13.681,10.118,25.333,17.725,31.528.1.092.2.168.305.252l.306.237.442-.137,1.877-.557,1.6-.488,20.877-6.28,5.2-1.564,16.7-5.028h.007l15.268-4.593,1.862-.565,13.117-3.945.419-4.9.565-6.5.336-3.907L746.4,478.34l1.549-17.977,1.679-19.518a23.712,23.712,0,0,0-7.226-19.213Z" transform="translate(-335.448 -211.203)" fill="#2f2e41"/>
  <path id="Path_167" data-name="Path 167" d="M771.889,603.144c-.175-.511-.344-1.023-.519-1.526-7.844-22.891-19.411-40.2-36.435-49.635-.007,0-.007-.008-.015-.008l-.29-.16L719.8,556.95l-1.831.633-1.908.664-.023.008-13.887,4.807-.023.008-10.9,3.769h-.008l-10.08,3.487h-.007l-2.343.816-17.618,6.1-2.045.71-1.831.633-.282.1-.053.87L655.7,601.618l-.084,1.526-1.572,27.538-52.2,73.945h35.71a235.308,235.308,0,0,0,35.792-2.732L706.8,665.8a2.219,2.219,0,0,1,3.77,1.1l4.921,24.417a235.951,235.951,0,0,0,67.147-36.946C780.29,635.4,776.857,618.122,771.889,603.144Z" transform="translate(-327.542 -243.627)" fill="#2f2e41"/>
  <path id="Path_168" data-name="Path 168" d="M653.776,339.537h14.355l6.333-17.732,1.266,17.732h6.861l3.694-10.344.739,10.344H738a38.419,38.419,0,0,0-38.419-38.419H692.2a38.419,38.419,0,0,0-38.42,38.42Z" transform="translate(-339.847 -184.22)" fill="#2f2e41"/>
  <path id="Path_169" data-name="Path 169" d="M511.633,589.865a17.388,17.388,0,0,1-23.7-12.215l-61.4-6.954,20.581-24.646,55.149,10.382a17.482,17.482,0,0,1,9.367,33.433Z" transform="translate(-285.998 -242.261)" fill="#a0616a"/>
  <path id="Path_170" data-name="Path 170" d="M467.194,514.462l-25.951-4.639-1.884-.336a10.845,10.845,0,0,1-8.477-13.8l12.742-42.341.381-1.259a24.624,24.624,0,1,0-47.5-12.949l-16.252,66.33-.6,2.457a33.145,33.145,0,0,0,29.125,40.9c.053.008.1.008.153.015l9.729.862,12.62,1.122,15.871,1.412,14.811,1.32a7.763,7.763,0,0,0,8.348-6.394c.023-.107.038-.214.053-.32l3.144-23.471.031-.214A7.76,7.76,0,0,0,467.194,514.462Z" transform="translate(-274.662 -212.478)" fill="#ccc"/>
  <path id="Path_171" data-name="Path 171" d="M416.581,297.763c-10.359,20.367-18.524,41.375-41.375,41.375a41.375,41.375,0,0,1-41.375-41.375c0-22.851,18.526-41.089,41.375-41.375C398.429,256.1,435.863,259.853,416.581,297.763Z" transform="translate(-264.03 -173.616)" fill="#2f2e41"/>
  <path id="Path_172" data-name="Path 172" d="M437.513,656.905l-.939-9.37-.7.038L312.5,653.517l.32,9.484.542,16.245a235.629,235.629,0,0,0,62.866,34.222l.8-6.211a2.216,2.216,0,0,1,4.334-.275l2.434,9.072a232.968,232.968,0,0,0,60.73,11Z" transform="translate(-258.975 -266.31)" fill="#2f2e41"/>
  <circle id="Ellipse_38" data-name="Ellipse 38" cx="36.293" cy="36.293" r="36.293" transform="translate(61.888 130.033) rotate(-45)" fill="#a0616a"/>
  <path id="Path_173" data-name="Path 173" d="M442.645,584.442l-7.2-22.341-.122-.382-.366-1.145-2.052-6.364c-.664-2.068-1.3-4.143-1.885-6.226q-.813-2.816-1.518-5.646-1.007-3.937-1.831-7.905a195.887,195.887,0,0,1-3.716-26.958q-.252-3.766-.359-7.546a195.06,195.06,0,0,1,4.143-46.018,62.405,62.405,0,0,0-30.781-67.582,61.361,61.361,0,0,0-24.905-7.47c-.6-.046-1.206-.084-1.816-.122a61.777,61.777,0,0,0-49.551,20.037,63.007,63.007,0,0,0-8.638,11.964,62.146,62.146,0,0,0-7.111,39.441l8.576,57.586-1.953,24.241-2.3,28.568-.122,1.526-2.457,30.46a6.634,6.634,0,0,0,4.181,6.715,6.493,6.493,0,0,0,2.442.466c.122,0,.237,0,.359-.008l121.894-6.554,1.114-.061a6.642,6.642,0,0,0,5.975-8.676Z" transform="translate(-257.019 -202.584)" fill="#ccc"/>
  <path id="Path_174" data-name="Path 174" d="M419.22,285.416a49.361,49.361,0,0,1-28.21,8.718A30.249,30.249,0,0,0,403,299.067a99.533,99.533,0,0,1-40.656.228,26.312,26.312,0,0,1-8.511-2.923,10.771,10.771,0,0,1-5.253-7.026c-.892-5.1,3.079-9.725,7.205-12.845a53.147,53.147,0,0,1,44.662-8.925c4.989,1.29,9.987,3.468,13.227,7.475s4.2,10.183,1.113,14.309Z" transform="translate(-267.495 -175.893)" fill="#2f2e41"/>
  <path id="Path_175" data-name="Path 175" d="M417.078,580.408a17.388,17.388,0,0,1-23.958-11.7l-61.534-5.623L351.629,538l55.361,9.185a17.482,17.482,0,0,1,10.088,33.222Z" transform="translate(-263.498 -240.353)" fill="#a0616a"/>
  <path id="Path_176" data-name="Path 176" d="M371.5,505.834l-13.91-2.175-14.032-2.2a10.843,10.843,0,0,1-8.775-13.612l12.178-43.874a24.775,24.775,0,0,0-12.239-28.362,24.619,24.619,0,0,0-35.527,16.436l-15.36,69.138a33.164,33.164,0,0,0,30.148,40.273l53.13,3.563a7.772,7.772,0,0,0,8.21-6.57c.023-.107.031-.214.046-.32L378,514.6l.023-.214A7.767,7.767,0,0,0,371.5,505.834Z" transform="translate(-251.995 -210.671)" fill="#ccc"/>
  <path id="Path_177" data-name="Path 177" d="M692.21,486.693l-3.184,1.737-39.229,21.4-3.184,1.737a6.65,6.65,0,0,0-2.649,9.013l29.213,53.54a6.65,6.65,0,0,0,9.013,2.65l.008,0,45.58-24.87.008,0a6.65,6.65,0,0,0,2.65-9.013l-29.212-53.54a6.65,6.65,0,0,0-9.013-2.649Z" transform="translate(-337.33 -228.003)" fill="#e6e6e6"/>
  <path id="Path_178" data-name="Path 178" d="M693.72,488.966l-3.771,2.058-38.055,20.763-3.771,2.058a4.736,4.736,0,0,0-1.887,6.418l29.213,53.54a4.736,4.736,0,0,0,6.418,1.887l.008,0,45.58-24.87.008,0a4.736,4.736,0,0,0,1.887-6.418l-29.213-53.54a4.736,4.736,0,0,0-6.417-1.887Z" transform="translate(-337.924 -228.597)" fill="#fff"/>
  <path id="Path_179" data-name="Path 179" d="M704.122,508.776a1.114,1.114,0,0,0-1.5-.443l-1.518.832-15.482,8.447a1.108,1.108,0,1,0,1.06,1.946l17-9.279a1.114,1.114,0,0,0,.443-1.5Z" transform="translate(-347.256 -233.292)" fill="#e6e6e6"/>
  <path id="Path_180" data-name="Path 180" d="M710.471,510.207a1.1,1.1,0,0,0-1.5-.435l-21.006,11.461a1.1,1.1,0,1,0,1.061,1.938l.977-.534,6.112-3.334h.008l13.9-7.592a1.1,1.1,0,0,0,.443-1.5Z" transform="translate(-347.814 -233.631)" fill="#e6e6e6"/>
  <path id="Path_181" data-name="Path 181" d="M680.47,530.442,673.8,518.21a.536.536,0,0,0-.725-.206l-3.235,1.763-1.678.916-9.011,4.914-1.747.954a.536.536,0,0,0-.206.725l.427.786,6.241,11.445a.529.529,0,0,0,.717.206l10.759-5.868,1.679-.916,3.235-1.763a.532.532,0,0,0,.214-.725Z" transform="translate(-340.642 -235.599)" fill="#e6e6e6"/>
  <path id="Path_182" data-name="Path 182" d="M713.294,529.116a1.1,1.1,0,0,0-1.5-.443L688.74,541.256a1.106,1.106,0,0,0-.557,1.167.926.926,0,0,0,.115.336,1.123,1.123,0,0,0,.221.282l.008.008a1.116,1.116,0,0,0,1.274.153l23.059-12.582a1.1,1.1,0,0,0,.435-1.5Z" transform="translate(-347.996 -238.112)" fill="#e6e6e6"/>
  <path id="Path_183" data-name="Path 183" d="M719.647,530.547a1.106,1.106,0,0,0-1.5-.435l-27.064,14.765a1.08,1.08,0,0,0-.557,1.152v.008a.923.923,0,0,0,.114.336,1.07,1.07,0,0,0,.229.29,1.091,1.091,0,0,0,1.274.153L719.2,532.05a1.111,1.111,0,0,0,.443-1.5Z" transform="translate(-348.551 -238.452)" fill="#e6e6e6"/>
  <circle id="Ellipse_39" data-name="Ellipse 39" cx="4.693" cy="4.693" r="4.693" transform="translate(328.327 306.006)" fill="#e6e6e6"/>
  <path id="Path_184" data-name="Path 184" d="M710.21,459.693l-3.184,1.737-39.229,21.4-3.184,1.737a6.65,6.65,0,0,0-2.649,9.013l29.213,53.54a6.65,6.65,0,0,0,9.013,2.65l.008,0,45.58-24.87.008,0a6.65,6.65,0,0,0,2.649-9.013l-29.212-53.54A6.65,6.65,0,0,0,710.21,459.693Z" transform="translate(-341.595 -221.605)" fill="#ccc"/>
  <path id="Path_185" data-name="Path 185" d="M711.72,461.966l-3.771,2.058-38.055,20.763-3.771,2.058a4.736,4.736,0,0,0-1.887,6.418l29.213,53.54a4.736,4.736,0,0,0,6.418,1.887l.008,0,45.58-24.87.008,0a4.736,4.736,0,0,0,1.887-6.418l-29.213-53.54a4.736,4.736,0,0,0-6.417-1.887Z" transform="translate(-342.189 -222.199)" fill="#fff"/>
  <path id="Path_186" data-name="Path 186" d="M722.122,481.776a1.113,1.113,0,0,0-1.5-.443l-7.829,4.273-2.182,1.19-6.989,3.815a1.108,1.108,0,1,0,1.06,1.946l8.241-4.494,1.724-.946,7.035-3.838A1.114,1.114,0,0,0,722.122,481.776Z" transform="translate(-351.521 -226.894)" fill="#ccc"/>
  <path id="Path_187" data-name="Path 187" d="M728.471,483.207a1.1,1.1,0,0,0-1.5-.435l-10.919,5.959-1.679.916-8.409,4.586a1.1,1.1,0,0,0,1.061,1.938l8.409-4.586,1.679-.916,10.911-5.959a1.1,1.1,0,0,0,.443-1.5Z" transform="translate(-352.079 -227.233)" fill="#ccc"/>
  <path id="Path_188" data-name="Path 188" d="M698.47,503.442l-5.318-9.752-.915-1.679-.435-.8a.536.536,0,0,0-.725-.206l-10.8,5.891L675.4,499.55a.536.536,0,0,0-.206.725l.435.794.473.878.443.8v.008l5.318,9.752a.529.529,0,0,0,.717.206l15.673-8.546a.532.532,0,0,0,.214-.725Z" transform="translate(-344.908 -229.201)" fill="#e99629"/>
  <path id="Path_189" data-name="Path 189" d="M731.293,502.116a1.1,1.1,0,0,0-1.5-.443l-6.89,3.762-1.678.916-6.654,3.624-7.836,4.281A1.108,1.108,0,0,0,707.8,516.2l14.49-7.9,1.678-.916,6.89-3.762a1.1,1.1,0,0,0,.435-1.5Z" transform="translate(-352.261 -231.714)" fill="#ccc"/>
  <path id="Path_190" data-name="Path 190" d="M737.647,503.547a1.106,1.106,0,0,0-1.5-.435l-10.888,5.944-1.678.916-14.5,7.9a1.1,1.1,0,1,0,1.06,1.938l14.49-7.9,1.679-.916,10.9-5.944A1.111,1.111,0,0,0,737.647,503.547Z" transform="translate(-352.816 -232.053)" fill="#ccc"/>
  <circle id="Ellipse_40" data-name="Ellipse 40" cx="4.693" cy="4.693" r="4.693" transform="translate(342.061 285.404)" fill="#ccc"/>
  <path id="Path_191" data-name="Path 191" d="M695.824,540.239a15.093,15.093,0,0,1,2.341.419l53.221-47.213-3.442-16.938,24.883-8.535,9.006,29.393a11.477,11.477,0,0,1-4.674,12.956L709.5,554.744a15.059,15.059,0,1,1-13.675-14.5Z" transform="translate(-345.917 -223.759)" fill="#ffb8b8"/>
  <path id="Path_192" data-name="Path 192" d="M806.26,460.865l-15.078-28.8a17.913,17.913,0,0,0-22.3-11.094c-.168.046-.328.1-.5.16a17.952,17.952,0,0,0-11.034,22.837l6.051,31.826a6.445,6.445,0,0,0,3.113,4.38,6.3,6.3,0,0,0,2.884.855,6.208,6.208,0,0,0,2.465-.343l3.235-1.129,20.77-7.234,6.791-2.365a6.463,6.463,0,0,0,3.594-9.1Z" transform="translate(-364.156 -212.422)" fill="#e99629"/>
  <path id="Path_193" data-name="Path 193" d="M741.374,618.611H243.115a.763.763,0,1,1,0-1.526H741.374a.763.763,0,0,1,0,1.526Z" transform="translate(-242.352 -259.094)" fill="#3f3d56"/>
  <path id="Path_194" data-name="Path 194" d="M355.848,600.585v.382a13.364,13.364,0,0,0,7.959,12.208,13.149,13.149,0,0,0,5.394,1.144H492.43V600.585Z" transform="translate(-269.247 -255.184)" fill="#3f3d56"/>
  <path id="Path_195" data-name="Path 195" d="M596.242,477.6a24.868,24.868,0,0,0-8.714-9.935,24.391,24.391,0,0,0-5.456-2.7,24.7,24.7,0,0,0-8.157-1.381H455.647a24.827,24.827,0,0,0-24.8,24.8v68.673a23.962,23.962,0,0,0,.168,2.884,25.011,25.011,0,0,0,.87,4.227,24.377,24.377,0,0,0,1.572,3.952,24.772,24.772,0,0,0,22.189,13.735h118.27a24.789,24.789,0,0,0,24.8-24.8V488.383A24.585,24.585,0,0,0,596.242,477.6Z" transform="translate(-287.02 -222.719)" fill="#3f3d56"/>
  <circle id="Ellipse_41" data-name="Ellipse 41" cx="6.104" cy="6.104" r="6.104" transform="translate(228.143 293.896)" fill="#fff"/>
</svg>
