<svg xmlns="http://www.w3.org/2000/svg" width="486.81" height="434.951" viewBox="0 0 486.81 434.951">
  <g id="Group_14" data-name="Group 14" transform="translate(-0.002 -0.001)">
    <path id="Path_103" data-name="Path 103" d="M645.148,322.682,296.742,471.736a9.768,9.768,0,0,1-12.808-5.133l-91.91-214.834a7.156,7.156,0,0,1,3.76-9.384L548.874,91.328a7.28,7.28,0,0,1,9.546,3.826l91.861,214.721A9.768,9.768,0,0,1,645.148,322.682Z" transform="translate(-189.633 -85.708)" fill="#f2f2f2"/>
    <path id="Path_104" data-name="Path 104" d="M643.04,331.9l-324.7,138.915c-4.76,2.036-10.184.067-12.09-4.39L226.209,279.347a6.757,6.757,0,0,1,3.832-8.732l329.07-140.782a6.869,6.869,0,0,1,9.11,3.312l79.994,186.982C650.121,324.585,647.8,329.868,643.04,331.9Z" transform="translate(-203.636 -101.437)" fill="#fff"/>
    <path id="Path_105" data-name="Path 105" d="M557.471,92.733,191.123,249.462l-1.954-4.567a9.8,9.8,0,0,1,5.154-12.849L542.665,83.02a9.8,9.8,0,0,1,12.853,5.146Z" transform="translate(-188.38 -82.23)" fill="#e99629"/>
    <circle id="Ellipse_19" data-name="Ellipse 19" cx="2.533" cy="2.533" r="2.533" transform="translate(13.676 150.931)" fill="#fff"/>
    <circle id="Ellipse_20" data-name="Ellipse 20" cx="2.533" cy="2.533" r="2.533" transform="translate(22.516 147.149)" fill="#fff"/>
    <circle id="Ellipse_21" data-name="Ellipse 21" cx="2.533" cy="2.533" r="2.533" transform="translate(31.355 143.368)" fill="#fff"/>
    <path id="Path_106" data-name="Path 106" d="M436.428,394.452l-43.3,18.526a9.768,9.768,0,0,1-12.808-5.133l-23.9-55.874a9.768,9.768,0,0,1,5.133-12.808l43.3-18.526a9.768,9.768,0,0,1,12.808,5.133l23.9,55.874A9.768,9.768,0,0,1,436.428,394.452Z" transform="translate(-256.727 -179.337)" fill="#f2f2f2"/>
    <path id="Path_107" data-name="Path 107" d="M560.337,341.442l-43.3,18.526a9.768,9.768,0,0,1-12.808-5.133l-23.9-55.874a9.768,9.768,0,0,1,5.133-12.808l43.3-18.526a9.768,9.768,0,0,1,12.808,5.133l23.9,55.874A9.768,9.768,0,0,1,560.337,341.442Z" transform="translate(-307.365 -157.674)" fill="#f2f2f2"/>
    <path id="Path_108" data-name="Path 108" d="M684.245,288.432l-43.3,18.526a9.768,9.768,0,0,1-12.808-5.133l-23.9-55.874a9.768,9.768,0,0,1,5.133-12.808l43.3-18.526a9.768,9.768,0,0,1,12.808,5.133l23.9,55.874a9.768,9.768,0,0,1-5.133,12.808Z" transform="translate(-358.001 -136.01)" fill="#f2f2f2"/>
    <path id="Path_109" data-name="Path 109" d="M498.968,540.636l-43.3,18.526a9.768,9.768,0,0,1-12.808-5.133l-23.9-55.874a9.768,9.768,0,0,1,5.133-12.808l43.3-18.526a9.768,9.768,0,0,1,12.808,5.133l23.9,55.874a9.768,9.768,0,0,1-5.133,12.808Z" transform="translate(-282.285 -239.077)" fill="#f2f2f2"/>
    <path id="Path_110" data-name="Path 110" d="M622.877,487.625l-43.3,18.526a9.768,9.768,0,0,1-12.808-5.133l-23.9-55.874a9.768,9.768,0,0,1,5.133-12.808l43.3-18.526a9.768,9.768,0,0,1,12.808,5.133l23.9,55.874a9.768,9.768,0,0,1-5.132,12.809Z" transform="translate(-332.922 -217.414)" fill="#f2f2f2"/>
    <path id="Path_111" data-name="Path 111" d="M746.785,434.616l-43.3,18.526a9.768,9.768,0,0,1-12.808-5.133l-23.9-55.874a9.768,9.768,0,0,1,5.133-12.808l43.3-18.526a9.768,9.768,0,0,1,12.808,5.133l23.9,55.874A9.768,9.768,0,0,1,746.785,434.616Z" transform="translate(-383.559 -195.75)" fill="#f2f2f2"/>
    <path id="Path_112" data-name="Path 112" d="M726.489,644.6H347.538a9.768,9.768,0,0,1-9.757-9.757V401.176a7.156,7.156,0,0,1,7.148-7.148H728.974a7.28,7.28,0,0,1,7.272,7.272V634.845a9.768,9.768,0,0,1-9.757,9.757Z" transform="translate(-249.434 -209.65)" fill="#e6e6e6"/>
    <path id="Path_113" data-name="Path 113" d="M723.839,645.732H370.666c-5.177,0-9.389-3.944-9.389-8.792V433.458a6.757,6.757,0,0,1,6.957-6.521h357.92a6.869,6.869,0,0,1,7.073,6.628V636.94C733.228,641.788,729.016,645.732,723.839,645.732Z" transform="translate(-259.036 -223.099)" fill="#fff"/>
    <path id="Path_114" data-name="Path 114" d="M736.016,397.977H337.55v-4.967a9.8,9.8,0,0,1,9.793-9.786H726.223a9.8,9.8,0,0,1,9.792,9.786Z" transform="translate(-249.34 -205.235)" fill="#e99629"/>
    <circle id="Ellipse_22" data-name="Ellipse 22" cx="2.533" cy="2.533" r="2.533" transform="translate(103.474 182.847)" fill="#fff"/>
    <circle id="Ellipse_23" data-name="Ellipse 23" cx="2.533" cy="2.533" r="2.533" transform="translate(113.088 182.847)" fill="#fff"/>
    <circle id="Ellipse_24" data-name="Ellipse 24" cx="2.533" cy="2.533" r="2.533" transform="translate(122.702 182.847)" fill="#fff"/>
    <rect id="Rectangle_115" data-name="Rectangle 115" width="191.593" height="24.261" rx="12.131" transform="translate(266.222 260.96)" fill="#e6e6e6"/>
    <rect id="Rectangle_116" data-name="Rectangle 116" width="191.593" height="24.261" rx="12.131" transform="translate(266.222 301.105)" fill="#e6e6e6"/>
    <rect id="Rectangle_117" data-name="Rectangle 117" width="191.593" height="24.261" rx="12.131" transform="translate(266.222 341.25)" fill="#e6e6e6"/>
    <path id="Path_115" data-name="Path 115" d="M522.066,566.985a65.047,65.047,0,1,1-65.047-65.047A65.047,65.047,0,0,1,522.066,566.985Z" transform="translate(-271.58 -253.749)" fill="#fff"/>
    <path id="Path_116" data-name="Path 116" d="M509.069,609.2c-.71,41.6-62.591,41.594-63.3,0C446.485,567.6,508.365,567.6,509.069,609.2Z" transform="translate(-293.567 -284.833)" fill="#e99629"/>
    <path id="Path_117" data-name="Path 117" d="M497.146,638.682l-.033-1.183c8.151,1.088,9.907-9.014,1.686-5.237l1.877-13.713,1.172.161-1.6,11.665C508.907,629.086,505.705,639.864,497.146,638.682Z" transform="translate(-314.548 -301.404)" fill="#2f2e41"/>
    <rect id="Rectangle_118" data-name="Rectangle 118" width="6.37" height="1.183" transform="translate(193.095 318.312)" fill="#2f2e41"/>
    <rect id="Rectangle_119" data-name="Rectangle 119" width="6.37" height="1.183" transform="translate(172.99 318.312)" fill="#2f2e41"/>
    <path id="Path_118" data-name="Path 118" d="M495.784,700.828c1.242-8.379-8.568-6.724-13.76-6.806a5.628,5.628,0,0,0-5.487,6.8,30.771,30.771,0,0,0-10.934,6.032,65.329,65.329,0,0,0,41.648.461,30.614,30.614,0,0,0-11.466-6.487Z" transform="translate(-301.67 -332.214)" fill="#2f2e41"/>
    <path id="Path_119" data-name="Path 119" d="M459.531,577.875c5.865-3.39,12.978-.789,19.036.633,11.495,3.534,27.614-.891,29.011-14.584,1.455-12.734-15.966-19.832-21.533-7.157l1.621-.212c-18.057-26.836-49.468-25.818-49.261,11.077-.067,1.14,1.707,1.136,1.774,0-.665-21.742,13.724-36.6,34.064-22.631,4.655,3.4,8.421,7.894,11.892,12.451,2.118,2.374,2.579-7.85,12.717-5.172,11.158,4.323,7.517,20.3-2.456,23.807-12.323,6.3-25.668-5.911-37.76.257a.888.888,0,0,0,.9,1.533Z" transform="translate(-290.555 -268.477)" fill="#2f2e41"/>
    <path id="Path_120" data-name="Path 120" d="M455.869,632.652a66.765,66.765,0,1,1,20.689-3.268A66.765,66.765,0,0,1,455.869,632.652Zm0-130.094a63.282,63.282,0,1,0,63.273,63.276A63.284,63.284,0,0,0,455.869,502.558Z" transform="translate(-270.43 -252.596)" fill="#3f3d56"/>
  </g>
</svg>
