<svg id="Group_17" data-name="Group 17" xmlns="http://www.w3.org/2000/svg" width="601" height="411.149" viewBox="0 0 601 411.149">
  <circle id="Ellipse_42" data-name="Ellipse 42" cx="150.812" cy="150.812" r="150.812" transform="translate(202.858)" fill="#f2f2f2"/>
  <path id="Path_196" data-name="Path 196" d="M265.694,659.423a25.284,25.284,0,0,0,24.415-4.3c8.552-7.178,11.233-19,13.414-29.952l6.453-32.386-13.509,9.3c-9.715,6.69-19.649,13.593-26.376,23.283s-9.663,22.916-4.258,33.4" transform="translate(-180.637 -294.791)" fill="#e6e6e6"/>
  <path id="Path_197" data-name="Path 197" d="M267.771,721.056c-1.367-9.96-2.773-20.047-1.814-30.114.852-8.94,3.579-17.672,9.132-24.832a41.307,41.307,0,0,1,10.6-9.6c1.06-.669,2.035,1.011.98,1.677a39.27,39.27,0,0,0-15.534,18.742c-3.382,8.6-3.925,17.978-3.342,27.116.352,5.526,1.1,11.015,1.852,16.5a1.006,1.006,0,0,1-.678,1.194.977.977,0,0,1-1.194-.678Z" transform="translate(-181.559 -317.214)" fill="#f2f2f2"/>
  <path id="Path_198" data-name="Path 198" d="M408.733,724.225a14.41,14.41,0,0,0,13.244,4.923c6.274-1.064,11-6.105,15.229-10.86l12.508-14.063-9.323.68c-6.7.489-13.579,1.02-19.68,3.845s-11.357,8.482-11.722,15.195" transform="translate(-232.033 -334.1)" fill="#e6e6e6"/>
  <path id="Path_199" data-name="Path 199" d="M392.139,750.942c2.2-5.291,4.415-10.656,7.788-15.329a26.993,26.993,0,0,1,11.648-9.577,23.542,23.542,0,0,1,7.979-1.667c.714-.023.709,1.084,0,1.107a22.382,22.382,0,0,0-13.04,4.738c-4.142,3.254-7.112,7.708-9.459,12.369-1.42,2.819-2.635,5.733-3.845,8.646a.573.573,0,0,1-.678.392.557.557,0,0,1-.392-.678Z" transform="translate(-226.173 -341.206)" fill="#f2f2f2"/>
  <path id="Path_200" data-name="Path 200" d="M289.28,718.108a18.612,18.612,0,0,0,16.217,8.37c8.209-.39,15.053-6.119,21.214-11.559l18.223-16.089-12.061-.577c-8.673-.415-17.57-.8-25.831,1.872s-15.879,9.111-17.39,17.662" transform="translate(-189.897 -331.889)" fill="#e6e6e6"/>
  <path id="Path_201" data-name="Path 201" d="M262.892,748.785c6.581-11.645,14.215-24.587,27.855-28.724a31.083,31.083,0,0,1,11.716-1.21c1.244.107.933,2.025-.308,1.918a28.877,28.877,0,0,0-18.7,4.947c-5.272,3.588-9.377,8.577-12.851,13.868-2.128,3.241-4.034,6.619-5.941,9.992-.609,1.078-2.39.3-1.774-.791Z" transform="translate(-180.544 -339.217)" fill="#f2f2f2"/>
  <path id="Path_202" data-name="Path 202" d="M700.42,455.372c13.086-7.192,29.372-5.749,43.471-.831s26.876,12.973,40.567,18.932c41.839,18.208,92.266,15.272,131.709-7.668,3.73,8.677-.271,18.6-4.667,26.962s-9.406,17.42-7.6,26.691c2.316,11.862,14.753,18.975,19.792,29.96,4.784,10.429,2.216,22.675-1.454,33.546s-8.432,21.823-7.809,33.279,8.947,23.571,20.42,23.58c-17,2.642-34.341,5.286-51.334,2.578s-33.9-11.695-41.786-26.986c-3.944-7.643-5.464-16.431-9.993-23.743-7.714-12.454-22.519-18.31-36.488-22.724s-28.917-8.666-38.752-19.523c-9.371-10.345-12.339-24.755-17.3-37.8A120.738,120.738,0,0,0,697.392,457.1" transform="translate(-333.854 -244.571)" fill="#e99629"/>
  <path id="Path_203" data-name="Path 203" d="M708.748,373.037c-4.594-2.137-10.234-2.838-14.908-.852s-7.861,7.076-6.349,11.58c.685,2.042,2.246,4.051,1.638,6.113-.468,1.588-2.1,2.636-3.7,3.381s-3.357,1.372-4.517,2.629-1.4,3.421.047,4.4c.477.321,1.074.473,1.536.812a2.441,2.441,0,0,1,.754,2.733,5.756,5.756,0,0,1-1.845,2.428c-1.644,1.418-3.818,3.041-3.307,5.054a3.546,3.546,0,0,0,2.393,2.238,11.89,11.89,0,0,0,3.513.464l48.523,1.529a18.4,18.4,0,0,0,4.791-.268,5.671,5.671,0,0,0,3.762-2.528c.929-1.72.319-3.839-.828-5.445a51.629,51.629,0,0,0-4.114-4.348c-1.342-1.475-2.44-3.316-2.2-5.222.189-1.526,1.2-2.845,1.918-4.231s1.142-3.119.206-4.394c-1.318-1.8-4.484-1.635-5.983-3.309-1.131-1.264-.913-3.083-1.025-4.713a11.433,11.433,0,0,0-6.848-9.342,13.483,13.483,0,0,0-12.268.835Z" transform="translate(-327.02 -216.436)" fill="#2f2e41"/>
  <path id="Path_204" data-name="Path 204" d="M538.244,604.287l-7.6-2.284,5.19-30.4,11.216,3.37Z" transform="translate(-187.178 -201.626)" fill="#a0616a"/>
  <path id="Path_205" data-name="Path 205" d="M664.343,758.725l-24.5-7.362.093-.31a9.959,9.959,0,0,1,12.4-6.673h0l14.966,4.5Z" transform="translate(-313.553 -348.115)" fill="#2f2e41"/>
  <path id="Path_206" data-name="Path 206" d="M646.8,605.815h-7.935l-3.775-30.608H646.8Z" transform="translate(-224.02 -202.897)" fill="#a0616a"/>
  <path id="Path_207" data-name="Path 207" d="M778.1,761.17H752.514v-.324a9.959,9.959,0,0,1,9.959-9.959H778.1Z" transform="translate(-353.298 -350.559)" fill="#2f2e41"/>
  <path id="Path_208" data-name="Path 208" d="M735.855,648.734a2.913,2.913,0,0,1-2.875-2.452l-11.782-73.5a2.266,2.266,0,0,0-4.329-.511L686.343,645.76a2.923,2.923,0,0,1-3.611,1.647l-11.026-3.676a2.9,2.9,0,0,1-1.92-3.405L694.8,529.63a2.929,2.929,0,0,1,2.182-2.2l33.549-7.788a2.953,2.953,0,0,1,2.4.5c22.091,16.051,20.225,68.494,16.108,125.438a2.914,2.914,0,0,1-2.78,2.7l-10.28.448Z" transform="translate(-324.09 -268.967)" fill="#2f2e41"/>
  <circle id="Ellipse_43" data-name="Ellipse 43" cx="15.897" cy="15.897" r="15.897" transform="translate(367.626 166.935)" fill="#a0616a"/>
  <path id="Path_209" data-name="Path 209" d="M715.308,508.306a25.825,25.825,0,0,1-11.019-2.547l-.118-.055-.047-.122-14.259-36.943-.271-6.419a15.387,15.387,0,0,1,16.24-16.014l15.138.853a15.4,15.4,0,0,1,14.523,15.282,10.393,10.393,0,0,1-2.287,12.211c-.2,1.264-2.119,14.4,5.1,21.623l.2.2-.177.226C738.223,496.751,728.946,508.3,715.308,508.306Z" transform="translate(-331.098 -243.079)" fill="#3f3d56"/>
  <path id="Path_210" data-name="Path 210" d="M757.367,530.972a6.509,6.509,0,0,0,3.416-9.378l15.119-17.5-11.919-1.551-12.53,16.86a6.544,6.544,0,0,0,5.914,11.573Z" transform="translate(-351.9 -262.958)" fill="#a0616a"/>
  <path id="Path_211" data-name="Path 211" d="M761.85,499.007a2.906,2.906,0,0,1-1.6-.479l-7.478-4.9a2.907,2.907,0,0,1-.905-3.925l5.414-9.1a4.06,4.06,0,0,0-1.828-5.781L739.9,467.849a9.271,9.271,0,0,1-5.251-10.3h0a9.218,9.218,0,0,1,13.225-6.313l23.594,12.09a12.413,12.413,0,0,1,4.4,18.31L764.212,497.8a2.906,2.906,0,0,1-2.362,1.21Z" transform="translate(-346.93 -244.503)" fill="#3f3d56"/>
  <path id="Path_212" data-name="Path 212" d="M700.981,400.517a9.855,9.855,0,0,0,8.667-10.428,8.42,8.42,0,0,0,7.211,8.573c2.3.254,4.828-.443,6.832.719,2.22,1.287,2.931,4.412,5.243,5.523,2.235,1.074,5.073-.391,6.177-2.611s.833-4.887.1-7.256a20.488,20.488,0,0,0-34.1-8.4,13.118,13.118,0,0,0-4.059,7.811c-.272,2.982,1.111,6.217,3.789,7.557Z" transform="translate(-333.721 -219.944)" fill="#2f2e41"/>
  <path id="Path_213" data-name="Path 213" d="M640.722,342.9a6.509,6.509,0,0,1,2.009,9.776l12.4,19.525-12.018-.206-9.934-18.509a6.544,6.544,0,0,1,7.541-10.585Z" transform="translate(-310.447 -206.363)" fill="#a0616a"/>
  <path id="Path_214" data-name="Path 214" d="M652.693,363.848l15.97,37.736,16.744,28.392a9.184,9.184,0,0,1-5.256,13.457h0a9.233,9.233,0,0,1-10.972-4.9l-32.271-68.955a2.913,2.913,0,0,1,1.747-4.008l10.464-3.361a2.978,2.978,0,0,1,.61-.128,2.9,2.9,0,0,1,2.963,1.766Z" transform="translate(-312.422 -213.408)" fill="#3f3d56"/>
  <path id="Path_215" data-name="Path 215" d="M625.715,766.9H136.384a.647.647,0,1,1,0-1.294h489.33a.647.647,0,1,1,0,1.294Z" transform="translate(-135.737 -355.751)" fill="#ccc"/>
  <path id="Path_216" data-name="Path 216" d="M732.89,240.253v53.076a.647.647,0,1,1-1.295,0V240.253a.647.647,0,0,1,1.295,0Z" transform="translate(-345.919 -170.212)" fill="#ccc"/>
  <path id="Path_217" data-name="Path 217" d="M809.842,309.569l-18.307,18.307a.647.647,0,0,1-.915-.915l18.307-18.307a.647.647,0,0,1,.915.915Z" transform="translate(-366.672 -194.5)" fill="#ccc"/>
  <path id="Path_218" data-name="Path 218" d="M644.667,309.569l18.307,18.308a.647.647,0,1,0,.915-.915l-18.307-18.307a.647.647,0,0,0-.915.915Z" transform="translate(-315.189 -194.501)" fill="#ccc"/>
</svg>
