<svg id="Group_18" data-name="Group 18" xmlns="http://www.w3.org/2000/svg" width="485.856" height="382.5" viewBox="0 0 485.856 382.5">
  <rect id="Rectangle_147" data-name="Rectangle 147" width="440.888" height="282.364" transform="translate(0.188 0.25)" fill="#e6e6e6"/>
  <rect id="Rectangle_148" data-name="Rectangle 148" width="415.673" height="230.244" transform="translate(12.795 35.665)" fill="#fff"/>
  <rect id="Rectangle_149" data-name="Rectangle 149" width="440.888" height="18.731" fill="#e99629"/>
  <circle id="Ellipse_44" data-name="Ellipse 44" cx="3.472" cy="3.472" r="3.472" transform="translate(10.447 6.104)" fill="#fff"/>
  <circle id="Ellipse_45" data-name="Ellipse 45" cx="3.472" cy="3.472" r="3.472" transform="translate(23.625 6.104)" fill="#fff"/>
  <circle id="Ellipse_46" data-name="Ellipse 46" cx="3.472" cy="3.472" r="3.472" transform="translate(36.802 6.104)" fill="#fff"/>
  <rect id="Rectangle_150" data-name="Rectangle 150" width="106.809" height="182.465" transform="translate(50.565 59.555)" fill="#e6e6e6"/>
  <rect id="Rectangle_151" data-name="Rectangle 151" width="89.007" height="50.225" transform="translate(175.811 59.555)" fill="#e99629"/>
  <rect id="Rectangle_152" data-name="Rectangle 152" width="89.007" height="54.04" transform="translate(175.811 123.767)" fill="#e6e6e6"/>
  <rect id="Rectangle_153" data-name="Rectangle 153" width="89.007" height="50.225" transform="translate(175.811 191.794)" fill="#e6e6e6"/>
  <rect id="Rectangle_154" data-name="Rectangle 154" width="106.809" height="79.517" transform="translate(283.891 59.555)" fill="#e6e6e6"/>
  <rect id="Rectangle_155" data-name="Rectangle 155" width="106.809" height="79.517" transform="translate(283.891 162.503)" fill="#e6e6e6"/>
  <path id="Path_219" data-name="Path 219" d="M755.712,363.7V346.582a22.939,22.939,0,1,1,45.879,0V363.7a3.085,3.085,0,0,1-3.081,3.081H758.793A3.085,3.085,0,0,1,755.712,363.7Z" transform="translate(-406.159 -218.917)" fill="#2f2e41"/>
  <path id="Path_220" data-name="Path 220" d="M584.04,522.419l-8.091,2.239-12.487-30.142,11.941-3.3Z" transform="translate(-177.629 -154.852)" fill="#ffb8b8"/>
  <path id="Path_221" data-name="Path 221" d="M10.194,0h16.19V10.194H0A10.194,10.194,0,0,1,10.194,0Z" transform="translate(382.078 371.809) rotate(-15.47)" fill="#2f2e41"/>
  <path id="Path_222" data-name="Path 222" d="M464.624,530.968h-8.4l-3.994-32.381h12.391Z" transform="translate(-142.565 -157.177)" fill="#ffb8b8"/>
  <path id="Path_223" data-name="Path 223" d="M444.618,542.372h16.19v10.194H434.424A10.194,10.194,0,0,1,444.618,542.372Z" transform="translate(-136.95 -170.98)" fill="#2f2e41"/>
  <path id="Path_224" data-name="Path 224" d="M700.14,447.2a6.886,6.886,0,0,0,10.54.628L733,457.866l-2.03-12.553-20.881-7.607a6.923,6.923,0,0,0-9.945,9.494Z" transform="translate(-388.203 -254.375)" fill="#ffb8b8"/>
  <path id="Path_225" data-name="Path 225" d="M752.371,521.463c-7.011,0-14.27-1.045-20.371-4.151a26.3,26.3,0,0,1-13.5-16.136c-3.179-10.065.829-19.954,4.705-29.516,2.4-5.926,4.67-11.523,5.259-17.039l.206-1.959c.917-8.8,1.708-16.4,6.092-19.245,2.272-1.477,5.327-1.561,9.341-.258L781.8,445.4l-1.386,71.55-.229.077A100.1,100.1,0,0,1,752.371,521.463Z" transform="translate(-394.067 -253.152)" fill="#2f2e41"/>
  <path id="Path_226" data-name="Path 226" d="M750.253,399.263s18.488-5.478,32.868-3.424c0,0-8.217,45.194-5.478,60.258s-47.591,5.82-37.319-8.559l3.424-17.119s-6.848-6.848-.685-15.065Z" transform="translate(-400.872 -241.531)" fill="#e99629"/>
  <path id="Path_227" data-name="Path 227" d="M731.692,509.13l-22.786-4.272,7.955-61.222c.535-1.709,12.858-40.5,18.455-42.6a95.53,95.53,0,0,1,12.439-3.456l.811-.162L744,404.274l-18.19,43.588Z" transform="translate(-391.404 -242.175)" fill="#2f2e41"/>
  <path id="Path_228" data-name="Path 228" d="M711.289,629.829l-29.441-4.907,16.522-67.465L722.955,465.2l.243,1.638c.019.122,2.316,12.175,36.4,6.827l.3-.047.083.292,41.189,145.536-33.546,5.591-30.6-106.183Z" transform="translate(-382.874 -263.54)" fill="#2f2e41"/>
  <path id="Path_229" data-name="Path 229" d="M784.436,519.586l.018-.518c.021-.575,2.046-57.775,1.37-80.779a126.889,126.889,0,0,1,6.87-43.271l.061-.16.165-.047c9.669-2.762,18.056,5.482,18.14,5.565l.118.118-2.754,22.718,11.789,82.61Z" transform="translate(-415.214 -241.173)" fill="#2f2e41"/>
  <circle id="Ellipse_47" data-name="Ellipse 47" cx="16.818" cy="16.818" r="16.818" transform="translate(350.96 113.831)" fill="#ffb8b8"/>
  <path id="Path_230" data-name="Path 230" d="M747.787,350.789a18.166,18.166,0,0,1,18.146-18.146h3.424A18.166,18.166,0,0,1,787.5,350.789v.342h-7.236l-2.468-6.91-.493,6.91h-3.739l-1.245-3.487-.249,3.487H747.787Z" transform="translate(-403.661 -221.754)" fill="#2f2e41"/>
  <path id="Path_231" data-name="Path 231" d="M779.638,375.042a3.036,3.036,0,0,1-.241-3.223c3.628-6.9,8.708-19.653,1.965-27.517l-.485-.565h19.575v29.39l-17.783,3.138a3.145,3.145,0,0,1-.545.048,3.069,3.069,0,0,1-2.486-1.271Z" transform="translate(-413.515 -225.251)" fill="#2f2e41"/>
  <path id="Path_232" data-name="Path 232" d="M594.8,202.215a92.456,92.456,0,1,0,5.242,136.542L713.449,434.45a8.52,8.52,0,1,0,11-13.012l-.013-.011L611.03,325.734A92.46,92.46,0,0,0,594.8,202.215Zm-7.311,114.3a69.268,69.268,0,1,1-8.27-97.61h0A69.269,69.269,0,0,1,587.489,316.519Z" transform="translate(-307.49 -173.766)" fill="#3f3d56"/>
  <path id="Path_233" data-name="Path 233" d="M496.891,348.384a69.272,69.272,0,0,1-11.754-93.119q-1.987,2-3.841,4.191A69.268,69.268,0,1,0,587.176,348.8q1.85-2.193,3.484-4.492a69.272,69.272,0,0,1-93.769,4.079Z" transform="translate(-314.503 -197.361)" opacity="0.3"/>
  <path id="Path_234" data-name="Path 234" d="M787.764,485.5a6.886,6.886,0,0,0,8.507-6.254L819.85,472.7l-9.584-8.356-20.921,7.5a6.923,6.923,0,0,0-1.58,13.658Z" transform="translate(-414.586 -263.273)" fill="#ffb8b8"/>
  <path id="Path_235" data-name="Path 235" d="M803.865,462.678l-1.435-13.631,19.7-10.866-12.841-15.544,2.1-17.461,5.218-2.236.162.209c2.46,3.164,24.039,31.006,24.039,34.448,0,3.535-4.128,13.916-9.776,16.74-5.448,2.724-25.9,8.018-26.773,8.242Z" transform="translate(-420.887 -243.914)" fill="#2f2e41"/>
  <path id="Path_236" data-name="Path 236" d="M833.342,728.667H572.451a.685.685,0,0,1,0-1.37H833.342a.685.685,0,0,1,0,1.37Z" transform="translate(-348.171 -346.167)" fill="#ccc"/>
</svg>
