<svg xmlns="http://www.w3.org/2000/svg" width="744" height="368.882" viewBox="0 0 744 368.882">
  <g id="Group_19" data-name="Group 19" transform="translate(0 0)">
    <ellipse id="Ellipse_48" data-name="Ellipse 48" cx="17.339" cy="5.443" rx="17.339" ry="5.443" transform="matrix(0.357, -0.934, 0.934, 0.357, 238.478, 307.167)" fill="#2f2e41"/>
    <circle id="Ellipse_49" data-name="Ellipse 49" cx="34.678" cy="34.678" r="34.678" transform="translate(177.918 347.773) rotate(-80.783)" fill="#2f2e41"/>
    <rect id="Rectangle_156" data-name="Rectangle 156" width="10.535" height="18.875" transform="translate(201.899 346.314)" fill="#2f2e41"/>
    <rect id="Rectangle_157" data-name="Rectangle 157" width="10.535" height="18.875" transform="translate(222.969 346.314)" fill="#2f2e41"/>
    <ellipse id="Ellipse_50" data-name="Ellipse 50" cx="8.779" cy="3.292" rx="8.779" ry="3.292" transform="translate(201.899 362.117)" fill="#2f2e41"/>
    <ellipse id="Ellipse_51" data-name="Ellipse 51" cx="8.779" cy="3.292" rx="8.779" ry="3.292" transform="translate(222.969 361.678)" fill="#2f2e41"/>
    <circle id="Ellipse_52" data-name="Ellipse 52" cx="11.852" cy="11.852" r="11.852" transform="matrix(1, -0.029, 0.029, 1, 206.384, 298.823)" fill="#fff"/>
    <circle id="Ellipse_53" data-name="Ellipse 53" cx="3.951" cy="3.951" r="3.951" transform="translate(214.629 306.369)" fill="#3f3d56"/>
    <path id="Path_237" data-name="Path 237" d="M366.471,570.172c-2.8-12.54,6.151-25.211,19.992-28.3s27.332,4.57,30.132,17.109-6.373,17.165-20.214,20.255S369.271,582.712,366.471,570.172Z" transform="translate(-182.407 -283.322)" fill="#e6e6e6"/>
    <ellipse id="Ellipse_54" data-name="Ellipse 54" cx="5.443" cy="17.339" rx="5.443" ry="17.339" transform="translate(160.645 300.496) rotate(-64.626)" fill="#2f2e41"/>
    <path id="Path_238" data-name="Path 238" d="M387.217,631.756c0,3.394,8.739,10.1,18.436,10.1s18.789-9.555,18.789-12.949-9.092.658-18.789.658S387.217,628.361,387.217,631.756Z" transform="translate(-186.549 -300.146)" fill="#fff"/>
    <path id="Path_239" data-name="Path 239" d="M639.677,461.11,602.01,498.286l-85.125,84-1.723,1.7-9.6,9.469-20.122-19.88-1.772-1.747-36.789-36.338h-.008l-11.788-11.651-6.965-6.884-20.742-20.484-2.8-2.77-33.061-32.659a94.735,94.735,0,0,1-16.523-22.248c-.4-.733-.781-1.473-1.152-2.214a94.616,94.616,0,0,1,100.416-135.7h.008c.306.048.6.1.91.161a91.481,91.481,0,0,1,9.59,2.23,94.283,94.283,0,0,1,23.447,10.411q1.148.713,2.271,1.449a95.15,95.15,0,0,1,14.872,12.15l.282-.282.282.282a95.447,95.447,0,0,1,8.72-7.714c.668-.523,1.345-1.039,2.021-1.538a94.569,94.569,0,0,1,72.878-16.957,90.105,90.105,0,0,1,9.6,2.238q1.582.447,3.14.966c.837.274,1.675.556,2.5.862a93.746,93.746,0,0,1,19.639,9.743q2.017,1.316,3.978,2.754A94.648,94.648,0,0,1,639.677,461.11Z" transform="translate(-178.091 -236.248)" fill="#e99629"/>
    <path id="Path_240" data-name="Path 240" d="M626.949,546.359l-85.125,84-1.723,1.7-9.6,9.469-20.122-19.88-1.772-1.747L471.82,583.56c5.91-1.377,14.993.515,18.318,2.158,7.883,3.889,14.365,10.274,22.369,13.914a37.15,37.15,0,0,0,22.811,2.52c14.348-3.011,25.452-14.107,35.243-25.025s19.8-22.65,33.56-27.715C611.376,546.738,619.171,546.134,626.949,546.359Z" transform="translate(-203.03 -284.322)" opacity="0.15"/>
    <path id="Path_241" data-name="Path 241" d="M669.266,329.141a95.14,95.14,0,0,0-42.3-24.6c-1.063-.3-2.117-.564-3.189-.813a94.074,94.074,0,0,0-14-2.247c-.821-.081-1.643-.137-2.472-.177a92.72,92.72,0,0,0-12.424.048,95.333,95.333,0,0,0-60.261,26.934l-.29-.29-.29.29a95.507,95.507,0,0,0-37.6-22.61c-.8-.258-1.6-.507-2.408-.741a96.359,96.359,0,0,0-33.512-3.583c-.314.016-.628.04-.934.072A95.259,95.259,0,0,0,403.7,325.1c-1.466,1.288-2.907,2.641-4.308,4.042a95.933,95.933,0,0,0-21.451,102.7c.282.757.588,1.506.91,2.255A95.136,95.136,0,0,0,399.4,464.655l31.338,30.936,2.464,2.44,67.813,66.936,1.747,1.731,17.811,17.585,13.761,13.584,134.935-133.22a95.922,95.922,0,0,0,0-135.506Zm-1.7,133.791L534.331,594.469l-12.037-11.885-17.432-17.207-1.747-1.723-66.493-65.648-2.424-2.391L401.1,462.94a92.752,92.752,0,0,1-19.937-29.567c-.322-.749-.628-1.5-.91-2.247A93.511,93.511,0,0,1,401.1,330.848q2.247-2.247,4.6-4.3h.008a92.9,92.9,0,0,1,53.529-22.674q3.949-.338,7.907-.338c.99,0,1.973.016,2.963.048a93.483,93.483,0,0,1,23.874,3.865c.8.233,1.594.483,2.383.749a91.917,91.917,0,0,1,23.616,11.667A93.09,93.09,0,0,1,533.2,330.848l.854.854.281-.282.282.282.854-.854a93.14,93.14,0,0,1,69.013-27.264c1.023.032,2.045.081,3.068.153.821.048,1.643.1,2.456.185a92.7,92.7,0,0,1,15.371,2.7c1.079.274,2.15.572,3.212.9a93.37,93.37,0,0,1,38.979,155.411Z" transform="translate(-183.459 -236.556)" fill="#3f3d56"/>
    <path id="Path_242" data-name="Path 242" d="M476.2,306.921c-5.169,4.082-10.717,7.851-14.075,13.431-2.472,4.123-3.543,8.914-4.34,13.648-1.546,9.211-2.206,18.648-5.234,27.481s-8.913,17.271-17.65,20.565c-5.419,2.037-11.393,1.924-17.167,1.53-14.244-.966-28.584-3.519-41.4-9.791-7.166-3.511-14.115-8.245-22.078-8.769a20.451,20.451,0,0,0-4.847.266A94.606,94.606,0,0,1,455.35,300.874h.008c.306.048.6.1.91.161a91.481,91.481,0,0,1,9.59,2.23,94.6,94.6,0,0,1,10.347,3.656Z" transform="translate(-179.184 -236.246)" opacity="0.15"/>
    <path id="Path_243" data-name="Path 243" d="M224.173,611.01a23.148,23.148,0,0,0,22.353-3.938c7.829-6.571,10.284-17.4,12.281-27.422L264.715,550l-12.368,8.516c-8.894,6.124-17.989,12.445-24.148,21.316s-8.847,20.98-3.9,30.579Z" transform="translate(-154.311 -285.04)" fill="#e6e6e6"/>
    <path id="Path_244" data-name="Path 244" d="M225.605,656.02c-1.252-9.118-2.539-18.354-1.661-27.57.78-8.185,3.277-16.179,8.361-22.734a37.82,37.82,0,0,1,9.7-8.792c.97-.612,1.863.925.9,1.535a35.953,35.953,0,0,0-14.221,17.159c-3.1,7.875-3.593,16.46-3.06,24.825.323,5.059,1.006,10.085,1.7,15.1a.921.921,0,0,1-.621,1.094.894.894,0,0,1-1.093-.621Z" transform="translate(-154.686 -294.153)" fill="#f2f2f2"/>
    <path id="Path_245" data-name="Path 245" d="M241.052,645.851a17.04,17.04,0,0,0,14.847,7.663c7.516-.357,13.782-5.6,19.422-10.582L292,628.2l-11.042-.529c-7.94-.38-16.086-.734-23.648,1.714s-14.538,8.342-15.921,16.17Z" transform="translate(-158.075 -300.118)" fill="#e6e6e6"/>
    <path id="Path_246" data-name="Path 246" d="M221.655,670.205c6.025-10.661,13.014-22.51,25.5-26.3a28.456,28.456,0,0,1,10.726-1.108c1.139.1.854,1.854-.282,1.756a26.437,26.437,0,0,0-17.118,4.529c-4.827,3.285-8.585,7.853-11.765,12.7-1.948,2.967-3.693,6.059-5.439,9.148-.558.987-2.188.275-1.624-.724Z" transform="translate(-154.274 -303.096)" fill="#f2f2f2"/>
    <circle id="Ellipse_55" data-name="Ellipse 55" cx="34.678" cy="34.678" r="34.678" transform="translate(206.954 26.558)" fill="#2f2e41"/>
    <rect id="Rectangle_158" data-name="Rectangle 158" width="10.535" height="18.875" transform="translate(225.829 88.451)" fill="#2f2e41"/>
    <rect id="Rectangle_159" data-name="Rectangle 159" width="10.535" height="18.875" transform="translate(246.898 88.451)" fill="#2f2e41"/>
    <ellipse id="Ellipse_56" data-name="Ellipse 56" cx="8.779" cy="3.292" rx="8.779" ry="3.292" transform="translate(225.829 104.254)" fill="#2f2e41"/>
    <ellipse id="Ellipse_57" data-name="Ellipse 57" cx="8.779" cy="3.292" rx="8.779" ry="3.292" transform="translate(246.899 103.815)" fill="#2f2e41"/>
    <circle id="Ellipse_58" data-name="Ellipse 58" cx="11.852" cy="11.852" r="11.852" transform="translate(230.658 40.605)" fill="#fff"/>
    <ellipse id="Ellipse_59" data-name="Ellipse 59" cx="3.934" cy="3.962" rx="3.934" ry="3.962" transform="translate(240.954 54.851) rotate(-44.987)" fill="#3f3d56"/>
    <path id="Path_247" data-name="Path 247" d="M396.19,249.923c-2.8-12.54,6.151-25.211,19.992-28.3s27.332,4.57,30.132,17.11S439.941,255.9,426.1,258.986,398.99,262.463,396.19,249.923Z" transform="translate(-188.197 -220.936)" fill="#e6e6e6"/>
    <ellipse id="Ellipse_60" data-name="Ellipse 60" cx="5.443" cy="17.339" rx="5.443" ry="17.339" transform="translate(494.222 274.223) rotate(-39.512)" fill="#2f2e41"/>
    <circle id="Ellipse_61" data-name="Ellipse 61" cx="34.678" cy="34.678" r="34.678" transform="translate(499.858 290.074) rotate(-9.217)" fill="#2f2e41"/>
    <rect id="Rectangle_160" data-name="Rectangle 160" width="10.535" height="18.875" transform="translate(544.91 345.961)" fill="#2f2e41"/>
    <rect id="Rectangle_161" data-name="Rectangle 161" width="10.535" height="18.875" transform="translate(523.84 345.961)" fill="#2f2e41"/>
    <ellipse id="Ellipse_62" data-name="Ellipse 62" cx="8.779" cy="3.292" rx="8.779" ry="3.292" transform="translate(537.887 361.763)" fill="#2f2e41"/>
    <ellipse id="Ellipse_63" data-name="Ellipse 63" cx="8.779" cy="3.292" rx="8.779" ry="3.292" transform="translate(516.817 361.324)" fill="#2f2e41"/>
    <path id="Path_248" data-name="Path 248" d="M820.229,585.318C809.3,576.284,803.22,568,811.4,558.1s23.682-10.611,34.615-1.577S859.18,580.906,851,590.81,831.162,594.352,820.229,585.318Z" transform="translate(-268.446 -285.075)" fill="#e99629"/>
    <circle id="Ellipse_64" data-name="Ellipse 64" cx="11.852" cy="11.852" r="11.852" transform="matrix(1, -0.029, 0.029, 1, 515.457, 289.256)" fill="#fff"/>
    <circle id="Ellipse_65" data-name="Ellipse 65" cx="3.951" cy="3.951" r="3.951" transform="translate(519.537 293.865)" fill="#3f3d56"/>
    <path id="Path_249" data-name="Path 249" d="M770.43,606.393c-2.4,2.4-4.1,10.181-.721,13.557s13.3-.216,15.7-2.616-3.631-2.7-7.007-6.075S772.829,603.993,770.43,606.393Z" transform="translate(-260.691 -295.88)" fill="#fff"/>
    <ellipse id="Ellipse_66" data-name="Ellipse 66" cx="5.443" cy="17.339" rx="5.443" ry="17.339" transform="matrix(0.934, -0.357, 0.357, 0.934, 555.093, 334.667)" fill="#2f2e41"/>
    <path id="Path_250" data-name="Path 250" d="M881.195,678.674H138.805a.805.805,0,1,1,0-1.61h742.39a.805.805,0,0,1,0,1.61Z" transform="translate(-138 -309.792)" fill="#ccc"/>
  </g>
</svg>
