<svg xmlns="http://www.w3.org/2000/svg" width="520" height="396.726" viewBox="0 0 520 396.726">
  <g id="Group_33" data-name="Group 33" transform="translate(-1236 -198)">
    <circle id="Ellipse_67" data-name="Ellipse 67" cx="32.95" cy="32.95" r="32.95" transform="translate(1277.328 366.357)" fill="#e99629"/>
    <path id="Path_251" data-name="Path 251" d="M366.182,566.881h-.033a4.381,4.381,0,0,1-4.376-4.376V305.594a4.381,4.381,0,0,1,4.376-4.376H582.386a4.381,4.381,0,0,1,4.376,4.376V505.357a4.381,4.381,0,0,1-4.342,4.376Z" transform="translate(1011.576 18.544)" fill="#f2f2f2"/>
    <path id="Path_252" data-name="Path 252" d="M586.168,171.53h-100.4V113.352a4.639,4.639,0,0,1,4.634-4.634h91.129a4.639,4.639,0,0,1,4.634,4.634ZM486.8,170.5h98.337V113.352a3.608,3.608,0,0,0-3.6-3.6H490.406a3.608,3.608,0,0,0-3.6,3.6Z" transform="translate(951.418 111.935)" fill="#3f3d56"/>
    <path id="Path_253" data-name="Path 253" d="M442.391,87h43.247a4.119,4.119,0,0,1,4.119,4.119V152.9H438.272V91.119A4.119,4.119,0,0,1,442.391,87Z" transform="translate(1023.373 155.792)" fill="#e6e6e6"/>
    <path id="Path_254" data-name="Path 254" d="M537.881,88.4H516.772V67.292a2.577,2.577,0,0,1,2.574-2.574h15.96a2.577,2.577,0,0,1,2.574,2.574ZM517.8,87.371h19.049V67.292a1.546,1.546,0,0,0-1.545-1.545h-15.96a1.546,1.546,0,0,0-1.545,1.545Z" transform="translate(936.378 133.282)" fill="#3f3d56"/>
    <path id="Path_255" data-name="Path 255" d="M860.523,572.943c-.205,0-.4,0-.61-.005a52.269,52.269,0,0,1-34.441-13.462q-.525-.477-1.04-.967l-.159-.152V459.684l.049-.1c.341-.722.687-1.435,1.032-2.147,10.709-21.742,23.2-33.714,35.169-33.714,17.263,0,30.651,23.68,37.095,37.8,8.961,19.628,15.219,43.95,15.219,59.146a52.3,52.3,0,0,1-51.716,52.278C860.928,572.943,860.722,572.943,860.523,572.943ZM825.3,557.915c.285.27.573.535.861.8a51.243,51.243,0,0,0,33.768,13.2c.209.005.406,0,.605.005s.378,0,.565,0a51.437,51.437,0,0,0,50.705-51.249c0-15.064-6.22-39.21-15.126-58.719-6.341-13.89-19.471-37.193-36.158-37.193-11.558,0-23.719,11.768-34.244,33.137-.326.672-.653,1.346-.977,2.03Z" transform="translate(787.195 -40.886)" fill="#3f3d56"/>
    <path id="Path_256" data-name="Path 256" d="M894.119,719.744a.592.592,0,0,1-.592-.592V598.229a.592.592,0,0,1,1.185,0V719.151A.592.592,0,0,1,894.119,719.744Z" transform="translate(753.596 -125.263)" fill="#ccc"/>
    <path id="Path_257" data-name="Path 257" d="M297.119,719.744a.592.592,0,0,1-.592-.592V598.229a.592.592,0,0,1,1.185,0V719.151A.592.592,0,0,1,297.119,719.744Z" transform="translate(1043.229 -125.263)" fill="#ccc"/>
    <path id="Path_258" data-name="Path 258" d="M866.047,609.178a.591.591,0,0,1-.448-.2l-29.791-34.356a.592.592,0,1,1,.9-.776L866.494,608.2a.592.592,0,0,1-.447.98Z" transform="translate(781.669 -113.62)" fill="#ccc"/>
    <path id="Path_259" data-name="Path 259" d="M894.119,664.112a.592.592,0,0,1-.419-1.011l16.928-16.928a.592.592,0,1,1,.838.838l-16.928,16.928A.59.59,0,0,1,894.119,664.112Z" transform="translate(753.596 -148.726)" fill="#ccc"/>
    <path id="Path_260" data-name="Path 260" d="M959.4,813.934H915.119v-.515a22.14,22.14,0,1,1,44.28,0Zm-43.244-1.03h42.21a21.11,21.11,0,0,0-42.208,0Z" transform="translate(743.12 -219.208)" fill="#3f3d56"/>
    <path id="Path_261" data-name="Path 261" d="M950.961,809.875a.584.584,0,0,0-.584.584v6.208l-6.048-5.191a.585.585,0,0,0-.761.887l6.81,5.845v3.648a.585.585,0,0,0,1.169,0v-11.4a.584.584,0,0,0-.585-.584Z" transform="translate(729.418 -228.23)" fill="#3f3d56"/>
    <path id="Path_262" data-name="Path 262" d="M238.4,813.934h-44.28v-.515a22.14,22.14,0,1,1,44.28,0Zm-43.244-1.03h42.208a21.11,21.11,0,0,0-42.208,0Z" transform="translate(1092.912 -219.208)" fill="#3f3d56"/>
    <path id="Path_263" data-name="Path 263" d="M229.961,809.875a.584.584,0,0,0-.584.584v6.208l-6.048-5.191a.585.585,0,0,0-.761.887l6.81,5.845v3.648a.584.584,0,0,0,1.169,0v-11.4a.584.584,0,0,0-.584-.584Z" transform="translate(1079.21 -228.23)" fill="#3f3d56"/>
    <path id="Path_264" data-name="Path 264" d="M249.381,572.943c-.205,0-.4,0-.61-.005a52.3,52.3,0,0,1-51.709-52.278c0-15.2,6.259-39.519,15.22-59.146,6.444-14.115,19.834-37.8,37.1-37.8,7.112,0,14.273,4.053,21.285,12.048.348.394.7.8,1.04,1.216l.118.143V567.891l-.29.141c-.346.168-.7.326-1.05.478a51.8,51.8,0,0,1-20.5,4.429C249.786,572.943,249.581,572.943,249.381,572.943Zm0-148.195c-16.69,0-29.821,23.3-36.163,37.193-8.906,19.508-15.127,43.654-15.127,58.719a51.442,51.442,0,0,0,50.7,51.248c.208.005.4.007.605.005.187,0,.379,0,.565,0a50.793,50.793,0,0,0,20.111-4.343c.243-.105.484-.212.723-.323V437.5c-.3-.358-.6-.708-.9-1.05C263.084,428.683,256.183,424.748,249.381,424.748Z" transform="translate(1091.484 -40.887)" fill="#3f3d56"/>
    <path id="Path_265" data-name="Path 265" d="M270.047,609.178a.591.591,0,0,1-.448-.2l-29.791-34.356a.592.592,0,1,1,.9-.776L270.494,608.2a.592.592,0,0,1-.447.98Z" transform="translate(1070.817 -113.62)" fill="#ccc"/>
    <path id="Path_266" data-name="Path 266" d="M298.119,664.112a.592.592,0,0,1-.419-1.011l16.928-16.928a.592.592,0,1,1,.838.838l-16.928,16.928A.59.59,0,0,1,298.119,664.112Z" transform="translate(1042.744 -148.726)" fill="#ccc"/>
    <path id="Path_267" data-name="Path 267" d="M365.376,233.867l.381.752a2.277,2.277,0,0,1,.257,1.05v20.337h18.02V235.669a2.278,2.278,0,0,1,.257-1.05l.381-.752Zm17.629,1.8v19.307h-15.96V235.669a3.231,3.231,0,0,0-.093-.772H383.1a3.231,3.231,0,0,0-.092.772Zm5.025-1.8.381.752a2.277,2.277,0,0,1,.257,1.05v20.337h18.02V235.669a2.278,2.278,0,0,1,.257-1.05l.381-.752Zm17.629,1.8v19.307H389.7V235.669a3.231,3.231,0,0,0-.093-.772H405.75a3.231,3.231,0,0,0-.092.772Zm5.025-1.8.381.752a2.277,2.277,0,0,1,.257,1.05v20.337h18.02V235.669a2.277,2.277,0,0,1,.257-1.05l.381-.752Zm17.629,1.8v19.307h-15.96V235.669a3.231,3.231,0,0,0-.093-.772H428.4a3.232,3.232,0,0,0-.092.772Zm5.025-1.8.381.752a2.277,2.277,0,0,1,.257,1.05v20.337h18.02V235.669a2.278,2.278,0,0,1,.257-1.05l.381-.752Zm17.629,1.8v19.307H435V235.669a3.231,3.231,0,0,0-.093-.772h16.146a3.231,3.231,0,0,0-.092.772Zm5.025-1.8.381.752a2.277,2.277,0,0,1,.257,1.05v20.337h18.02V235.669a2.278,2.278,0,0,1,.257-1.05l.381-.752Zm17.629,1.8v19.307h-15.96V235.669a3.233,3.233,0,0,0-.093-.772h16.146a3.236,3.236,0,0,0-.092.772Zm5.025-1.8.381.752a2.277,2.277,0,0,1,.257,1.05v20.337H497.3V235.669a2.277,2.277,0,0,1,.257-1.05l.381-.752Zm17.629,1.8v19.307h-15.96V235.669a3.231,3.231,0,0,0-.093-.772h16.146a3.232,3.232,0,0,0-.092.772Zm5.025-1.8.381.752a2.277,2.277,0,0,1,.257,1.05v20.337h18.02V235.669a2.277,2.277,0,0,1,.257-1.05l.381-.752Zm17.629,1.8v19.307h-15.96V235.669a3.231,3.231,0,0,0-.093-.772h16.146a3.231,3.231,0,0,0-.092.772Zm5.025-1.8.381.752a2.277,2.277,0,0,1,.257,1.05v20.337h18.02V235.669a2.277,2.277,0,0,1,.257-1.05l.381-.752Zm17.629,1.8v19.307h-15.96V235.669a3.228,3.228,0,0,0-.093-.772h16.146a3.228,3.228,0,0,0-.092.772Zm5.025-1.8.381.752a2.277,2.277,0,0,1,.257,1.05v20.337h18.02V235.669a2.278,2.278,0,0,1,.257-1.05l.381-.752Zm17.629,1.8v19.307h-15.96V235.669a3.231,3.231,0,0,0-.093-.772h16.146a3.228,3.228,0,0,0-.092.772Zm-17.629-1.8.381.752a2.277,2.277,0,0,1,.257,1.05v20.337h18.02V235.669a2.278,2.278,0,0,1,.257-1.05l.381-.752Zm17.629,1.8v19.307h-15.96V235.669a3.231,3.231,0,0,0-.093-.772h16.146a3.228,3.228,0,0,0-.092.772Zm-40.282-1.8.381.752a2.277,2.277,0,0,1,.257,1.05v20.337h18.02V235.669a2.279,2.279,0,0,1,.257-1.05l.381-.752Zm17.629,1.8v19.307h-15.96V235.669a3.225,3.225,0,0,0-.093-.772h16.146a3.228,3.228,0,0,0-.092.772Zm-40.282-1.8.381.752a2.277,2.277,0,0,1,.257,1.05v20.337h18.02V235.669a2.278,2.278,0,0,1,.257-1.05l.381-.752Zm17.629,1.8v19.307h-15.96V235.669a3.231,3.231,0,0,0-.093-.772h16.146a3.231,3.231,0,0,0-.092.772Zm-40.282-1.8.381.752a2.277,2.277,0,0,1,.257,1.05v20.337H497.3V235.669a2.278,2.278,0,0,1,.257-1.05l.381-.752Zm17.629,1.8v19.307h-15.96V235.669a3.233,3.233,0,0,0-.093-.772h16.146a3.232,3.232,0,0,0-.092.772Zm-40.282-1.8.381.752a2.277,2.277,0,0,1,.257,1.05v20.337h18.02V235.669a2.278,2.278,0,0,1,.257-1.05l.381-.752Zm17.629,1.8v19.307h-15.96V235.669a3.231,3.231,0,0,0-.093-.772h16.146a3.232,3.232,0,0,0-.092.772Zm-40.282-1.8.381.752a2.277,2.277,0,0,1,.257,1.05v20.337h18.02V235.669a2.278,2.278,0,0,1,.257-1.05l.381-.752Zm17.629,1.8v19.307H435V235.669a3.233,3.233,0,0,0-.093-.772h16.146a3.231,3.231,0,0,0-.092.772Zm-40.282-1.8.381.752a2.277,2.277,0,0,1,.257,1.05v20.337h18.02V235.669a2.278,2.278,0,0,1,.257-1.05l.381-.752Zm17.629,1.8v19.307h-15.96V235.669a3.233,3.233,0,0,0-.093-.772H428.4a3.231,3.231,0,0,0-.092.772Zm-40.282-1.8.381.752a2.277,2.277,0,0,1,.257,1.05v20.337h18.02V235.669a2.278,2.278,0,0,1,.257-1.05l.381-.752Zm17.629,1.8v19.307H389.7V235.669a3.231,3.231,0,0,0-.093-.772H405.75a3.231,3.231,0,0,0-.092.772Zm-40.282-1.8.381.752a2.277,2.277,0,0,1,.257,1.05v20.337h18.02V235.669a2.277,2.277,0,0,1,.257-1.05l.381-.752Zm17.629,1.8v19.307h-15.96V235.669a3.234,3.234,0,0,0-.093-.772H383.1a3.234,3.234,0,0,0-.092.772Zm163.6-1.8.381.752a2.277,2.277,0,0,1,.257,1.05v20.337h18.02V235.669a2.278,2.278,0,0,1,.257-1.05l.381-.752Zm17.629,1.8v19.307h-15.96V235.669a3.228,3.228,0,0,0-.093-.772h16.146a3.231,3.231,0,0,0-.092.772Zm-40.282-1.8.381.752a2.277,2.277,0,0,1,.257,1.05v20.337h18.02V235.669a2.277,2.277,0,0,1,.257-1.05l.381-.752Zm17.629,1.8v19.307h-15.96V235.669a3.234,3.234,0,0,0-.093-.772h16.146a3.231,3.231,0,0,0-.092.772Zm-40.282-1.8.381.752a2.277,2.277,0,0,1,.257,1.05v20.337h18.02V235.669a2.277,2.277,0,0,1,.257-1.05l.381-.752Zm17.629,1.8v19.307h-15.96V235.669a3.231,3.231,0,0,0-.093-.772h16.146a3.231,3.231,0,0,0-.092.772Zm-40.282-1.8.381.752a2.277,2.277,0,0,1,.257,1.05v20.337H497.3V235.669a2.277,2.277,0,0,1,.257-1.05l.381-.752Zm17.629,1.8v19.307h-15.96V235.669a3.231,3.231,0,0,0-.093-.772h16.146a3.232,3.232,0,0,0-.092.772Zm-40.282-1.8.381.752a2.277,2.277,0,0,1,.257,1.05v20.337h18.02V235.669a2.277,2.277,0,0,1,.257-1.05l.381-.752Zm17.629,1.8v19.307h-15.96V235.669a3.233,3.233,0,0,0-.093-.772h16.146a3.234,3.234,0,0,0-.092.772Zm-40.282-1.8.381.752a2.277,2.277,0,0,1,.257,1.05v20.337h18.02V235.669a2.278,2.278,0,0,1,.257-1.05l.381-.752Zm17.629,1.8v19.307H435V235.669a3.231,3.231,0,0,0-.093-.772h16.146a3.231,3.231,0,0,0-.092.772Zm-40.282-1.8.381.752a2.277,2.277,0,0,1,.257,1.05v20.337h18.02V235.669a2.277,2.277,0,0,1,.257-1.05l.381-.752Zm17.629,1.8v19.307h-15.96V235.669a3.233,3.233,0,0,0-.093-.772H428.4a3.231,3.231,0,0,0-.092.772Zm-40.282-1.8.381.752a2.277,2.277,0,0,1,.257,1.05v20.337h18.02V235.669a2.277,2.277,0,0,1,.257-1.05l.381-.752Zm17.629,1.8v19.307H389.7V235.669a3.233,3.233,0,0,0-.093-.772H405.75a3.232,3.232,0,0,0-.092.772Zm-40.282-1.8.381.752a2.277,2.277,0,0,1,.257,1.05v20.337h18.02V235.669a2.278,2.278,0,0,1,.257-1.05l.381-.752Zm17.629,1.8v19.307h-15.96V235.669a3.231,3.231,0,0,0-.093-.772H383.1a3.231,3.231,0,0,0-.092.772Zm163.6-1.8.381.752a2.277,2.277,0,0,1,.257,1.05v20.337h18.02V235.669a2.278,2.278,0,0,1,.257-1.05l.381-.752Zm17.629,1.8v19.307h-15.96V235.669a3.234,3.234,0,0,0-.093-.772h16.146a3.228,3.228,0,0,0-.092.772Zm-40.282-1.8.381.752a2.278,2.278,0,0,1,.257,1.05v20.337h18.02V235.669a2.277,2.277,0,0,1,.257-1.05l.381-.752Zm17.629,1.8v19.307h-15.96V235.669a3.234,3.234,0,0,0-.093-.772h16.146a3.231,3.231,0,0,0-.092.772Zm-40.282-1.8.381.752a2.278,2.278,0,0,1,.257,1.05v20.337h18.02V235.669a2.277,2.277,0,0,1,.257-1.05l.381-.752Zm17.629,1.8v19.307h-15.96V235.669a3.233,3.233,0,0,0-.093-.772h16.146a3.228,3.228,0,0,0-.092.772Zm-40.282-1.8.381.752a2.277,2.277,0,0,1,.257,1.05v20.337H497.3V235.669a2.278,2.278,0,0,1,.257-1.05l.381-.752Zm17.629,1.8v19.307h-15.96V235.669a3.231,3.231,0,0,0-.093-.772h16.146a3.234,3.234,0,0,0-.092.772Zm-40.282-1.8.381.752a2.277,2.277,0,0,1,.257,1.05v20.337h18.02V235.669a2.278,2.278,0,0,1,.257-1.05l.381-.752Zm17.629,1.8v19.307h-15.96V235.669a3.233,3.233,0,0,0-.093-.772h16.146a3.233,3.233,0,0,0-.092.772Zm-40.282-1.8.381.752a2.278,2.278,0,0,1,.257,1.05v20.337h18.02V235.669a2.278,2.278,0,0,1,.257-1.05l.381-.752Zm17.629,1.8v19.307H435V235.669a3.231,3.231,0,0,0-.093-.772h16.146a3.231,3.231,0,0,0-.092.772Zm-40.282-1.8.381.752a2.277,2.277,0,0,1,.257,1.05v20.337h18.02V235.669a2.277,2.277,0,0,1,.257-1.05l.381-.752Zm17.629,1.8v19.307h-15.96V235.669a3.231,3.231,0,0,0-.093-.772H428.4a3.231,3.231,0,0,0-.092.772Zm-40.282-1.8.381.752a2.277,2.277,0,0,1,.257,1.05v20.337h18.02V235.669a2.278,2.278,0,0,1,.257-1.05l.381-.752Zm17.629,1.8v19.307H389.7V235.669a3.231,3.231,0,0,0-.093-.772H405.75a3.231,3.231,0,0,0-.092.772Zm-40.282-1.8.381.752a2.277,2.277,0,0,1,.257,1.05v20.337h18.02V235.669a2.277,2.277,0,0,1,.257-1.05l.381-.752Zm17.629,1.8v19.307h-15.96V235.669a3.234,3.234,0,0,0-.093-.772H383.1a3.234,3.234,0,0,0-.092.772Zm163.6-1.8.381.752a2.279,2.279,0,0,1,.257,1.05v20.337h18.02V235.669a2.277,2.277,0,0,1,.257-1.05l.381-.752Zm17.629,1.8v19.307h-15.96V235.669a3.234,3.234,0,0,0-.093-.772h16.146a3.234,3.234,0,0,0-.092.772Zm-40.282-1.8.381.752a2.277,2.277,0,0,1,.257,1.05v20.337h18.02V235.669a2.277,2.277,0,0,1,.257-1.05l.381-.752Zm17.629,1.8v19.307h-15.96V235.669a3.228,3.228,0,0,0-.093-.772h16.146a3.231,3.231,0,0,0-.092.772Zm-40.282-1.8.381.752a2.277,2.277,0,0,1,.257,1.05v20.337h18.02V235.669a2.278,2.278,0,0,1,.257-1.05l.381-.752Zm17.629,1.8v19.307h-15.96V235.669a3.231,3.231,0,0,0-.093-.772h16.146a3.234,3.234,0,0,0-.092.772Zm-40.282-1.8.381.752a2.277,2.277,0,0,1,.257,1.05v20.337H497.3V235.669a2.277,2.277,0,0,1,.257-1.05l.381-.752Zm17.629,1.8v19.307h-15.96V235.669a3.231,3.231,0,0,0-.093-.772h16.146a3.234,3.234,0,0,0-.092.772Zm-40.282-1.8.381.752a2.277,2.277,0,0,1,.257,1.05v20.337h18.02V235.669a2.278,2.278,0,0,1,.257-1.05l.381-.752Zm17.629,1.8v19.307h-15.96V235.669a3.231,3.231,0,0,0-.093-.772h16.146a3.233,3.233,0,0,0-.092.772Zm-40.282-1.8.381.752a2.277,2.277,0,0,1,.257,1.05v20.337h18.02V235.669a2.277,2.277,0,0,1,.257-1.05l.381-.752Zm17.629,1.8v19.307H435V235.669a3.231,3.231,0,0,0-.093-.772h16.146a3.231,3.231,0,0,0-.092.772Zm-40.282-1.8.381.752a2.277,2.277,0,0,1,.257,1.05v20.337h18.02V235.669a2.277,2.277,0,0,1,.257-1.05l.381-.752Zm17.629,1.8v19.307h-15.96V235.669a3.231,3.231,0,0,0-.093-.772H428.4a3.231,3.231,0,0,0-.092.772Zm-40.282-1.8.381.752a2.277,2.277,0,0,1,.257,1.05v20.337h18.02V235.669a2.277,2.277,0,0,1,.257-1.05l.381-.752Zm17.629,1.8v19.307H389.7V235.669a3.233,3.233,0,0,0-.093-.772h16.146a3.233,3.233,0,0,0-.092.772Zm-40.282-1.8.381.752a2.277,2.277,0,0,1,.257,1.05v20.337h18.02V235.669a2.278,2.278,0,0,1,.257-1.05l.381-.752Zm17.629,1.8v19.307h-15.96V235.669a3.231,3.231,0,0,0-.093-.772H383.1a3.233,3.233,0,0,0-.092.772Zm163.6-1.8.381.752a2.277,2.277,0,0,1,.257,1.05v20.337h18.02V235.669a2.277,2.277,0,0,1,.257-1.05l.381-.752Zm17.629,1.8v19.307h-15.96V235.669a3.228,3.228,0,0,0-.093-.772h16.146a3.231,3.231,0,0,0-.093.772Zm-39.9-1.05a2.277,2.277,0,0,1,.257,1.05v20.337h18.02V235.669a2.279,2.279,0,0,1,.257-1.05l.381-.752h-19.3Zm17.34.278a3.234,3.234,0,0,0-.093.772v19.307h-15.96V235.669a3.228,3.228,0,0,0-.093-.772Zm-39.994-.278a2.277,2.277,0,0,1,.257,1.05v20.337h18.02V235.669a2.277,2.277,0,0,1,.257-1.05l.381-.752H501.3Zm17.34.278a3.234,3.234,0,0,0-.093.772v19.307h-15.96V235.669a3.231,3.231,0,0,0-.093-.772Zm-39.994-.278a2.277,2.277,0,0,1,.257,1.05v20.337H497.3V235.669a2.277,2.277,0,0,1,.257-1.05l.381-.752h-19.3Zm17.34.278a3.233,3.233,0,0,0-.093.772v19.307h-15.96V235.669a3.233,3.233,0,0,0-.093-.772Zm-39.994-.278a2.277,2.277,0,0,1,.257,1.05v20.337h18.02V235.669a2.278,2.278,0,0,1,.257-1.05l.381-.752h-19.3Zm17.34.278a3.233,3.233,0,0,0-.093.772v19.307h-15.96V235.669a3.231,3.231,0,0,0-.093-.772Zm-39.994-.278a2.278,2.278,0,0,1,.257,1.05v20.337h18.02V235.669a2.277,2.277,0,0,1,.257-1.05l.381-.752h-19.3Zm17.34.278a3.233,3.233,0,0,0-.093.772v19.307H435V235.669a3.231,3.231,0,0,0-.093-.772Zm-39.994-.278a2.277,2.277,0,0,1,.257,1.05v20.337h18.02V235.669a2.277,2.277,0,0,1,.257-1.05l.381-.752h-19.3Zm17.34.278a3.233,3.233,0,0,0-.093.772v19.307h-15.96V235.669a3.231,3.231,0,0,0-.093-.772Zm-39.994-.278a2.277,2.277,0,0,1,.257,1.05v20.337h18.02V235.669a2.277,2.277,0,0,1,.257-1.05l.381-.752h-19.3Zm17.34.278a3.233,3.233,0,0,0-.093.772v19.307H389.7V235.669a3.231,3.231,0,0,0-.093-.772Zm-39.994-.278a2.277,2.277,0,0,1,.257,1.05v20.337h18.02V235.669a2.278,2.278,0,0,1,.257-1.05l.381-.752h-19.3Zm17.34.278a3.231,3.231,0,0,0-.093.772v19.307h-15.96V235.669a3.231,3.231,0,0,0-.093-.772Zm163.888-.278a2.277,2.277,0,0,1,.257,1.05v20.337h18.02V235.669a2.278,2.278,0,0,1,.257-1.05l.381-.752H546.6Zm17.34.278a3.234,3.234,0,0,0-.093.772v19.307h-15.96V235.669a3.228,3.228,0,0,0-.093-.772Zm-39.994-.278a2.277,2.277,0,0,1,.257,1.05v20.337h18.02V235.669a2.278,2.278,0,0,1,.257-1.05l.381-.752h-19.3Zm17.34.278a3.234,3.234,0,0,0-.093.772v19.307h-15.96V235.669a3.231,3.231,0,0,0-.093-.772Zm-39.994-.278a2.277,2.277,0,0,1,.257,1.05v20.337h18.02V235.669a2.277,2.277,0,0,1,.257-1.05l.381-.752H501.3Zm17.34.278a3.234,3.234,0,0,0-.093.772v19.307h-15.96V235.669a3.231,3.231,0,0,0-.093-.772Zm-39.994-.278a2.277,2.277,0,0,1,.257,1.05v20.337H497.3V235.669a2.278,2.278,0,0,1,.257-1.05l.381-.752h-19.3Zm17.34.278a3.233,3.233,0,0,0-.093.772v19.307h-15.96V235.669a3.233,3.233,0,0,0-.093-.772Zm-39.994-.278a2.278,2.278,0,0,1,.257,1.05v20.337h18.02V235.669a2.278,2.278,0,0,1,.257-1.05l.381-.752h-19.3Zm17.34.278a3.233,3.233,0,0,0-.093.772v19.307h-15.96V235.669a3.231,3.231,0,0,0-.093-.772Zm-39.994-.278a2.277,2.277,0,0,1,.257,1.05v20.337h18.02V235.669a2.277,2.277,0,0,1,.257-1.05l.381-.752h-19.3Zm17.34.278a3.234,3.234,0,0,0-.093.772v19.307H435V235.669a3.231,3.231,0,0,0-.093-.772Zm-39.994-.278a2.277,2.277,0,0,1,.257,1.05v20.337h18.02V235.669a2.278,2.278,0,0,1,.257-1.05l.381-.752h-19.3Zm17.34.278a3.233,3.233,0,0,0-.093.772v19.307h-15.96V235.669a3.231,3.231,0,0,0-.093-.772Zm-39.994-.278a2.277,2.277,0,0,1,.257,1.05v20.337h18.02V235.669a2.278,2.278,0,0,1,.257-1.05l.381-.752h-19.3Zm17.34.278a3.231,3.231,0,0,0-.093.772v19.307H389.7V235.669a3.231,3.231,0,0,0-.093-.772Zm-39.994-.278a2.277,2.277,0,0,1,.257,1.05v20.337h18.02V235.669a2.277,2.277,0,0,1,.257-1.05l.381-.752h-19.3Zm17.34.278a3.233,3.233,0,0,0-.093.772v19.307h-15.96V235.669a3.231,3.231,0,0,0-.093-.772Zm202.759,24.2h-6.137a5.679,5.679,0,0,0-5.447-4.119h-3.347V235.669a3.217,3.217,0,0,0-.232-1.21,3.084,3.084,0,0,0-1.57-5.741H362.153a3.084,3.084,0,0,0-1.57,5.741,3.219,3.219,0,0,0-.232,1.21v19.307H357a5.679,5.679,0,0,0-5.447,4.119h-6.652a4.641,4.641,0,0,0-4.634,4.634V535.57a4.644,4.644,0,0,0,4.634,4.634H585.856a4.64,4.64,0,0,0,4.634-4.634V263.728a4.641,4.641,0,0,0-4.634-4.634Zm3.6,276.475a3.606,3.606,0,0,1-2.353,3.377,3.46,3.46,0,0,1-1.251.227H344.906a3.461,3.461,0,0,1-1.251-.227,3.607,3.607,0,0,1-2.353-3.377V263.728a3.608,3.608,0,0,1,3.6-3.6h7.476l.082-.412A4.65,4.65,0,0,1,357,256.005h4.376V235.669a2.314,2.314,0,0,1,.33-1.189l.319-.53-.582-.216a2.054,2.054,0,0,1,.705-3.985h206.97a2.054,2.054,0,0,1,.705,3.985l-.582.216.319.53a2.312,2.312,0,0,1,.33,1.189v20.337h4.376a4.65,4.65,0,0,1,4.541,3.707l.082.412h6.961a3.608,3.608,0,0,1,3.6,3.6Zm-224.084-301.7.381.752a2.278,2.278,0,0,1,.257,1.05v20.337h18.02V235.669a2.277,2.277,0,0,1,.257-1.05l.381-.752Zm17.629,1.8v19.307h-15.96V235.669a3.233,3.233,0,0,0-.093-.772H383.1a3.233,3.233,0,0,0-.093.772Zm5.025-1.8.381.752a2.277,2.277,0,0,1,.257,1.05v20.337h18.02V235.669a2.277,2.277,0,0,1,.257-1.05l.381-.752Zm17.629,1.8v19.307H389.7V235.669a3.233,3.233,0,0,0-.093-.772h16.146a3.233,3.233,0,0,0-.093.772Zm5.025-1.8.381.752a2.277,2.277,0,0,1,.257,1.05v20.337h18.02V235.669a2.278,2.278,0,0,1,.257-1.05l.381-.752Zm17.629,1.8v19.307h-15.96V235.669a3.233,3.233,0,0,0-.093-.772H428.4a3.231,3.231,0,0,0-.093.772Zm5.025-1.8.381.752a2.277,2.277,0,0,1,.257,1.05v20.337h18.02V235.669a2.278,2.278,0,0,1,.257-1.05l.381-.752Zm17.629,1.8v19.307H435V235.669a3.231,3.231,0,0,0-.093-.772h16.146a3.233,3.233,0,0,0-.093.772Zm5.025-1.8.381.752a2.277,2.277,0,0,1,.257,1.05v20.337h18.02V235.669a2.277,2.277,0,0,1,.257-1.05l.381-.752Zm17.629,1.8v19.307h-15.96V235.669a3.231,3.231,0,0,0-.093-.772h16.146a3.229,3.229,0,0,0-.093.772Zm5.025-1.8.381.752a2.277,2.277,0,0,1,.257,1.05v20.337H497.3V235.669a2.278,2.278,0,0,1,.257-1.05l.381-.752Zm17.629,1.8v19.307h-15.96V235.669a3.231,3.231,0,0,0-.093-.772h16.146a3.233,3.233,0,0,0-.093.772Zm5.025-1.8.381.752a2.277,2.277,0,0,1,.257,1.05v20.337h18.02V235.669a2.278,2.278,0,0,1,.257-1.05l.381-.752Zm17.629,1.8v19.307h-15.96V235.669a3.233,3.233,0,0,0-.093-.772h16.146a3.231,3.231,0,0,0-.093.772Zm5.025-1.8.381.752a2.277,2.277,0,0,1,.257,1.05v20.337h18.02V235.669a2.278,2.278,0,0,1,.257-1.05l.381-.752Zm17.629,1.8v19.307h-15.96V235.669a3.228,3.228,0,0,0-.093-.772h16.146a3.231,3.231,0,0,0-.093.772Zm5.025-1.8.381.752a2.276,2.276,0,0,1,.257,1.05v20.337h18.02V235.669a2.277,2.277,0,0,1,.257-1.05l.381-.752Zm17.629,1.8v19.307h-15.96V235.669a3.228,3.228,0,0,0-.093-.772h16.146a3.231,3.231,0,0,0-.093.772Zm-198.856-1.8.381.752a2.277,2.277,0,0,1,.257,1.05v20.337h18.02V235.669a2.278,2.278,0,0,1,.257-1.05l.381-.752Zm17.629,1.8v19.307h-15.96V235.669a3.231,3.231,0,0,0-.093-.772H383.1a3.231,3.231,0,0,0-.093.772Zm5.025-1.8.381.752a2.277,2.277,0,0,1,.257,1.05v20.337h18.02V235.669a2.278,2.278,0,0,1,.257-1.05l.381-.752Zm17.629,1.8v19.307H389.7V235.669a3.231,3.231,0,0,0-.093-.772h16.146a3.229,3.229,0,0,0-.093.772Zm5.025-1.8.381.752a2.278,2.278,0,0,1,.257,1.05v20.337h18.02V235.669a2.277,2.277,0,0,1,.257-1.05l.381-.752Zm17.629,1.8v19.307h-15.96V235.669a3.233,3.233,0,0,0-.093-.772H428.4a3.231,3.231,0,0,0-.093.772Zm5.025-1.8.381.752a2.278,2.278,0,0,1,.257,1.05v20.337h18.02V235.669a2.277,2.277,0,0,1,.257-1.05l.381-.752Zm17.629,1.8v19.307H435V235.669a3.231,3.231,0,0,0-.093-.772h16.146a3.233,3.233,0,0,0-.093.772Zm5.025-1.8.381.752a2.277,2.277,0,0,1,.257,1.05v20.337h18.02V235.669a2.277,2.277,0,0,1,.257-1.05l.381-.752Zm17.629,1.8v19.307h-15.96V235.669a3.231,3.231,0,0,0-.093-.772h16.146a3.229,3.229,0,0,0-.093.772Zm5.025-1.8.381.752a2.277,2.277,0,0,1,.257,1.05v20.337H497.3V235.669a2.278,2.278,0,0,1,.257-1.05l.381-.752Zm17.629,1.8v19.307h-15.96V235.669a3.233,3.233,0,0,0-.093-.772h16.146a3.233,3.233,0,0,0-.093.772Zm5.025-1.8.381.752a2.277,2.277,0,0,1,.257,1.05v20.337h18.02V235.669a2.277,2.277,0,0,1,.257-1.05l.381-.752Zm17.629,1.8v19.307h-15.96V235.669a3.231,3.231,0,0,0-.093-.772h16.146a3.231,3.231,0,0,0-.093.772Zm5.025-1.8.381.752a2.278,2.278,0,0,1,.257,1.05v20.337h18.02V235.669a2.277,2.277,0,0,1,.257-1.05l.381-.752Zm17.629,1.8v19.307h-15.96V235.669a3.231,3.231,0,0,0-.093-.772h16.146a3.225,3.225,0,0,0-.093.772Zm5.025-1.8.381.752a2.277,2.277,0,0,1,.257,1.05v20.337h18.02V235.669a2.277,2.277,0,0,1,.257-1.05l.381-.752Zm17.629,1.8v19.307h-15.96V235.669a3.228,3.228,0,0,0-.093-.772h16.146a3.231,3.231,0,0,0-.093.772Zm-198.856-1.8.381.752a2.278,2.278,0,0,1,.257,1.05v20.337h18.02V235.669a2.277,2.277,0,0,1,.257-1.05l.381-.752Zm17.629,1.8v19.307h-15.96V235.669a3.231,3.231,0,0,0-.093-.772H383.1a3.233,3.233,0,0,0-.093.772Zm5.025-1.8.381.752a2.277,2.277,0,0,1,.257,1.05v20.337h18.02V235.669a2.277,2.277,0,0,1,.257-1.05l.381-.752Zm17.629,1.8v19.307H389.7V235.669a3.231,3.231,0,0,0-.093-.772h16.146a3.233,3.233,0,0,0-.093.772Zm5.025-1.8.381.752a2.277,2.277,0,0,1,.257,1.05v20.337h18.02V235.669a2.278,2.278,0,0,1,.257-1.05l.381-.752Zm17.629,1.8v19.307h-15.96V235.669a3.231,3.231,0,0,0-.093-.772H428.4a3.231,3.231,0,0,0-.093.772Zm5.025-1.8.381.752a2.277,2.277,0,0,1,.257,1.05v20.337h18.02V235.669a2.277,2.277,0,0,1,.257-1.05l.381-.752Zm17.629,1.8v19.307H435V235.669a3.231,3.231,0,0,0-.093-.772h16.146a3.233,3.233,0,0,0-.093.772Zm5.025-1.8.381.752a2.278,2.278,0,0,1,.257,1.05v20.337h18.02V235.669a2.278,2.278,0,0,1,.257-1.05l.381-.752Zm17.629,1.8v19.307h-15.96V235.669a3.23,3.23,0,0,0-.093-.772h16.146a3.229,3.229,0,0,0-.093.772Zm5.025-1.8.381.752a2.277,2.277,0,0,1,.257,1.05v20.337H497.3V235.669a2.277,2.277,0,0,1,.257-1.05l.381-.752Zm17.629,1.8v19.307h-15.96V235.669a3.233,3.233,0,0,0-.093-.772h16.146a3.233,3.233,0,0,0-.092.772Zm5.025-1.8.381.752a2.277,2.277,0,0,1,.257,1.05v20.337h18.02V235.669a2.277,2.277,0,0,1,.257-1.05l.381-.752Zm17.629,1.8v19.307h-15.96V235.669a3.231,3.231,0,0,0-.093-.772h16.146a3.234,3.234,0,0,0-.092.772Zm5.025-1.8.381.752a2.277,2.277,0,0,1,.257,1.05v20.337h18.02V235.669a2.277,2.277,0,0,1,.257-1.05l.381-.752Zm17.629,1.8v19.307h-15.96V235.669a3.234,3.234,0,0,0-.093-.772h16.146a3.234,3.234,0,0,0-.092.772Zm5.025-1.8.381.752a2.279,2.279,0,0,1,.257,1.05v20.337h18.02V235.669a2.277,2.277,0,0,1,.257-1.05l.381-.752Zm17.629,1.8v19.307h-15.96V235.669a3.234,3.234,0,0,0-.093-.772h16.146a3.234,3.234,0,0,0-.092.772Zm-198.856-1.8.381.752a2.277,2.277,0,0,1,.257,1.05v20.337h18.02V235.669a2.278,2.278,0,0,1,.257-1.05l.381-.752Zm17.629,1.8v19.307h-15.96V235.669a3.231,3.231,0,0,0-.093-.772H383.1a3.233,3.233,0,0,0-.092.772Zm5.025-1.8.381.752a2.277,2.277,0,0,1,.257,1.05v20.337h18.02V235.669a2.278,2.278,0,0,1,.257-1.05l.381-.752Zm17.629,1.8v19.307H389.7V235.669a3.231,3.231,0,0,0-.093-.772h16.146a3.23,3.23,0,0,0-.092.772Zm5.025-1.8.381.752a2.277,2.277,0,0,1,.257,1.05v20.337h18.02V235.669a2.277,2.277,0,0,1,.257-1.05l.381-.752Zm17.629,1.8v19.307h-15.96V235.669a3.231,3.231,0,0,0-.093-.772H428.4a3.231,3.231,0,0,0-.092.772Zm5.025-1.8.381.752a2.278,2.278,0,0,1,.257,1.05v20.337h18.02V235.669a2.277,2.277,0,0,1,.257-1.05l.381-.752Zm17.629,1.8v19.307H435V235.669a3.231,3.231,0,0,0-.093-.772h16.146a3.233,3.233,0,0,0-.092.772Zm5.025-1.8.381.752a2.277,2.277,0,0,1,.257,1.05v20.337h18.02V235.669a2.278,2.278,0,0,1,.257-1.05l.381-.752Zm17.629,1.8v19.307h-15.96V235.669a3.231,3.231,0,0,0-.093-.772h16.146a3.229,3.229,0,0,0-.092.772Zm5.025-1.8.381.752a2.277,2.277,0,0,1,.257,1.05v20.337H497.3V235.669a2.277,2.277,0,0,1,.257-1.05l.381-.752Zm17.629,1.8v19.307h-15.96V235.669a3.231,3.231,0,0,0-.093-.772h16.146a3.234,3.234,0,0,0-.092.772Zm5.025-1.8.381.752a2.277,2.277,0,0,1,.257,1.05v20.337h18.02V235.669a2.278,2.278,0,0,1,.257-1.05l.381-.752Zm17.629,1.8v19.307h-15.96V235.669a3.231,3.231,0,0,0-.093-.772h16.146a3.234,3.234,0,0,0-.092.772Zm5.025-1.8.381.752a2.277,2.277,0,0,1,.257,1.05v20.337h18.02V235.669a2.277,2.277,0,0,1,.257-1.05l.381-.752Zm17.629,1.8v19.307h-15.96V235.669a3.234,3.234,0,0,0-.093-.772h16.146a3.237,3.237,0,0,0-.092.772Zm5.025-1.8.381.752a2.277,2.277,0,0,1,.257,1.05v20.337h18.02V235.669a2.278,2.278,0,0,1,.257-1.05l.381-.752Zm17.629,1.8v19.307h-15.96V235.669a3.234,3.234,0,0,0-.093-.772h16.146a3.228,3.228,0,0,0-.092.772Z" transform="translate(1022.007 53.718)" fill="#3f3d56"/>
    <path id="Path_268" data-name="Path 268" d="M469.306,388.975H431.339a3.019,3.019,0,0,1-3.016-3.016V365.734a3.019,3.019,0,0,1,3.016-3.016h37.967a3.019,3.019,0,0,1,3.016,3.016v20.225a3.019,3.019,0,0,1-3.016,3.016Z" transform="translate(979.289 -11.292)" fill="#e99629"/>
    <path id="Path_269" data-name="Path 269" d="M581.525,388.975H543.558a3.02,3.02,0,0,1-3.016-3.016V365.734a3.019,3.019,0,0,1,3.016-3.016h37.967a3.019,3.019,0,0,1,3.016,3.016v20.225a3.019,3.019,0,0,1-3.016,3.016Z" transform="translate(924.846 -11.292)" fill="#e99629"/>
    <path id="Path_270" data-name="Path 270" d="M693.745,388.975H655.778a3.019,3.019,0,0,1-3.016-3.016V365.734a3.02,3.02,0,0,1,3.016-3.016h37.967a3.019,3.019,0,0,1,3.016,3.016v20.225a3.02,3.02,0,0,1-3.016,3.016Z" transform="translate(870.402 -11.292)" fill="#e99629"/>
    <path id="Path_271" data-name="Path 271" d="M469.306,519.975H431.339a3.019,3.019,0,0,1-3.016-3.016V496.734a3.019,3.019,0,0,1,3.016-3.016h37.967a3.019,3.019,0,0,1,3.016,3.016v20.225A3.019,3.019,0,0,1,469.306,519.975Z" transform="translate(979.289 -74.847)" fill="#e99629"/>
    <path id="Path_272" data-name="Path 272" d="M581.525,519.975H543.558a3.019,3.019,0,0,1-3.016-3.016V496.734a3.02,3.02,0,0,1,3.016-3.016h37.967a3.019,3.019,0,0,1,3.016,3.016v20.225a3.019,3.019,0,0,1-3.016,3.016Z" transform="translate(924.846 -74.847)" fill="#e99629"/>
    <path id="Path_273" data-name="Path 273" d="M693.745,519.975H655.778a3.019,3.019,0,0,1-3.016-3.016V496.734a3.019,3.019,0,0,1,3.016-3.016h37.967a3.019,3.019,0,0,1,3.016,3.016v20.225A3.019,3.019,0,0,1,693.745,519.975Z" transform="translate(870.402 -74.847)" fill="#e99629"/>
    <path id="Path_274" data-name="Path 274" d="M469.306,650.975H431.339a3.02,3.02,0,0,1-3.016-3.016V627.734a3.019,3.019,0,0,1,3.016-3.016h37.967a3.019,3.019,0,0,1,3.016,3.016v20.225A3.019,3.019,0,0,1,469.306,650.975Z" transform="translate(979.289 -138.401)" fill="#e99629"/>
    <path id="Path_275" data-name="Path 275" d="M581.525,650.975H543.558a3.02,3.02,0,0,1-3.016-3.016V627.734a3.019,3.019,0,0,1,3.016-3.016h37.967a3.019,3.019,0,0,1,3.016,3.016v20.225a3.019,3.019,0,0,1-3.016,3.016Z" transform="translate(924.846 -138.401)" fill="#e99629"/>
    <path id="Path_276" data-name="Path 276" d="M693.745,650.975H655.778a3.019,3.019,0,0,1-3.016-3.016V627.734a3.019,3.019,0,0,1,3.016-3.016h37.967a3.019,3.019,0,0,1,3.016,3.016v20.225A3.02,3.02,0,0,1,693.745,650.975Z" transform="translate(870.402 -138.401)" fill="#e99629"/>
    <path id="Path_277" data-name="Path 277" d="M450.763,389.125H406.781a4.013,4.013,0,0,1-4.009-4.009v-23.43a4.013,4.013,0,0,1,4.009-4.009h43.982a4.013,4.013,0,0,1,4.009,4.009v23.43a4.013,4.013,0,0,1-4.009,4.009ZM406.78,358.707a2.983,2.983,0,0,0-2.979,2.979v23.43a2.982,2.982,0,0,0,2.979,2.979h43.982a2.982,2.982,0,0,0,2.979-2.979v-23.43a2.982,2.982,0,0,0-2.979-2.979Z" transform="translate(991.685 -8.847)" fill="#3f3d56"/>
    <path id="Path_278" data-name="Path 278" d="M580.763,389.125H536.78a4.014,4.014,0,0,1-4.009-4.009v-23.43a4.013,4.013,0,0,1,4.009-4.009h43.982a4.014,4.014,0,0,1,4.009,4.009v23.43A4.013,4.013,0,0,1,580.763,389.125ZM536.78,358.707a2.983,2.983,0,0,0-2.979,2.979v23.43a2.983,2.983,0,0,0,2.979,2.979h43.982a2.982,2.982,0,0,0,2.979-2.979v-23.43a2.982,2.982,0,0,0-2.979-2.979Z" transform="translate(928.615 -8.847)" fill="#3f3d56"/>
    <path id="Path_279" data-name="Path 279" d="M710.763,389.125H666.78a4.014,4.014,0,0,1-4.009-4.009v-23.43a4.014,4.014,0,0,1,4.009-4.009h43.982a4.014,4.014,0,0,1,4.009,4.009v23.43A4.013,4.013,0,0,1,710.763,389.125ZM666.78,358.707a2.983,2.983,0,0,0-2.979,2.979v23.43a2.983,2.983,0,0,0,2.979,2.979h43.982a2.982,2.982,0,0,0,2.979-2.979v-23.43a2.982,2.982,0,0,0-2.979-2.979Z" transform="translate(865.547 -8.847)" fill="#3f3d56"/>
    <path id="Path_280" data-name="Path 280" d="M450.763,520.125H406.781a4.013,4.013,0,0,1-4.009-4.009v-23.43a4.013,4.013,0,0,1,4.009-4.009h43.982a4.013,4.013,0,0,1,4.009,4.009v23.43a4.013,4.013,0,0,1-4.009,4.009ZM406.78,489.707a2.983,2.983,0,0,0-2.979,2.979v23.43a2.983,2.983,0,0,0,2.979,2.979h43.982a2.982,2.982,0,0,0,2.979-2.979v-23.43a2.982,2.982,0,0,0-2.979-2.979Z" transform="translate(991.685 -72.401)" fill="#3f3d56"/>
    <path id="Path_281" data-name="Path 281" d="M580.763,520.125H536.78a4.014,4.014,0,0,1-4.009-4.009v-23.43a4.014,4.014,0,0,1,4.009-4.009h43.982a4.014,4.014,0,0,1,4.009,4.009v23.43A4.013,4.013,0,0,1,580.763,520.125ZM536.78,489.707a2.983,2.983,0,0,0-2.979,2.979v23.43a2.982,2.982,0,0,0,2.979,2.979h43.982a2.982,2.982,0,0,0,2.979-2.979v-23.43a2.982,2.982,0,0,0-2.979-2.979Z" transform="translate(928.615 -72.401)" fill="#3f3d56"/>
    <path id="Path_282" data-name="Path 282" d="M710.763,520.125H666.78a4.014,4.014,0,0,1-4.009-4.009v-23.43a4.014,4.014,0,0,1,4.009-4.009h43.982a4.014,4.014,0,0,1,4.009,4.009v23.43A4.014,4.014,0,0,1,710.763,520.125ZM666.78,489.707a2.983,2.983,0,0,0-2.979,2.979v23.43a2.982,2.982,0,0,0,2.979,2.979h43.982a2.982,2.982,0,0,0,2.979-2.979v-23.43a2.982,2.982,0,0,0-2.979-2.979Z" transform="translate(865.547 -72.401)" fill="#3f3d56"/>
    <path id="Path_283" data-name="Path 283" d="M450.763,651.125H406.781a4.013,4.013,0,0,1-4.009-4.009v-23.43a4.013,4.013,0,0,1,4.009-4.009h43.982a4.014,4.014,0,0,1,4.009,4.009v23.43a4.013,4.013,0,0,1-4.009,4.009ZM406.78,620.707a2.983,2.983,0,0,0-2.979,2.979v23.43a2.983,2.983,0,0,0,2.979,2.979h43.982a2.982,2.982,0,0,0,2.979-2.979v-23.43a2.983,2.983,0,0,0-2.979-2.979Z" transform="translate(991.685 -135.956)" fill="#3f3d56"/>
    <path id="Path_284" data-name="Path 284" d="M580.763,651.125H536.78a4.014,4.014,0,0,1-4.009-4.009v-23.43a4.013,4.013,0,0,1,4.009-4.009h43.982a4.014,4.014,0,0,1,4.009,4.009v23.43A4.013,4.013,0,0,1,580.763,651.125ZM536.78,620.707a2.982,2.982,0,0,0-2.979,2.979v23.43a2.983,2.983,0,0,0,2.979,2.979h43.982a2.983,2.983,0,0,0,2.979-2.979v-23.43a2.982,2.982,0,0,0-2.979-2.979Z" transform="translate(928.615 -135.956)" fill="#3f3d56"/>
    <path id="Path_285" data-name="Path 285" d="M710.763,651.125H666.78a4.014,4.014,0,0,1-4.009-4.009v-23.43a4.014,4.014,0,0,1,4.009-4.009h43.982a4.014,4.014,0,0,1,4.009,4.009v23.43A4.013,4.013,0,0,1,710.763,651.125ZM666.78,620.707a2.982,2.982,0,0,0-2.979,2.979v23.43a2.983,2.983,0,0,0,2.979,2.979h43.982a2.983,2.983,0,0,0,2.979-2.979v-23.43a2.982,2.982,0,0,0-2.979-2.979Z" transform="translate(865.547 -135.956)" fill="#3f3d56"/>
    <path id="Path_286" data-name="Path 286" d="M614.485,834.248H95.515a.515.515,0,0,1,0-1.03h518.97a.515.515,0,0,1,0,1.03Z" transform="translate(1141 -239.555)" fill="#3f3d56"/>
    <path id="Path_287" data-name="Path 287" d="M609.272,734.2a4.431,4.431,0,0,0-4.376-4.485H583.272v53.287h26Z" transform="translate(904.115 -189.342)" fill="#3f3d56"/>
    <path id="Path_288" data-name="Path 288" d="M558.8,782.248h-27.03V734.109a4.9,4.9,0,0,1,4.891-4.891H558.8Zm-26-1.03h24.97v-50.97H536.663a3.866,3.866,0,0,0-3.861,3.861Z" transform="translate(929.101 -189.099)" fill="#3f3d56"/>
    <circle id="Ellipse_68" data-name="Ellipse 68" cx="1.545" cy="1.545" r="1.545" transform="translate(1462.675 567.149)" fill="#3f3d56"/>
  </g>
</svg>
