<svg xmlns="http://www.w3.org/2000/svg" width="636.666" height="381.499" viewBox="0 0 636.666 381.499">
  <g id="Group_21" data-name="Group 21" transform="translate(0 0)">
    <path id="Path_289" data-name="Path 289" d="M475.787,647.835a21.144,21.144,0,0,1-20.418-3.6c-7.152-6-9.394-15.891-11.218-25.048l-5.4-27.084,11.3,7.779c8.125,5.594,16.432,11.368,22.057,19.471s8.081,19.164,3.561,27.932" transform="translate(-228.598 -306.021)" fill="#e6e6e6"/>
    <path id="Path_290" data-name="Path 290" d="M484.577,697.5c1.143-8.329,2.319-16.765,1.517-25.183-.712-7.476-2.993-14.779-7.637-20.766a34.545,34.545,0,0,0-8.863-8.031c-.886-.559-1.7.845-.82,1.4a32.841,32.841,0,0,1,12.99,15.674c2.828,7.193,3.282,15.035,2.795,22.676-.295,4.621-.919,9.212-1.549,13.8a.841.841,0,0,0,.567,1A.817.817,0,0,0,484.577,697.5Z" transform="translate(-238.353 -322.901)" fill="#f2f2f2"/>
    <path id="Path_291" data-name="Path 291" d="M453.266,693.814a15.565,15.565,0,0,1-13.562,7c-6.865-.326-12.589-5.117-17.741-9.666l-15.239-13.455,10.086-.483c7.253-.347,14.693-.671,21.6,1.566s13.279,7.62,14.543,14.77" transform="translate(-218.056 -333.948)" fill="#e6e6e6"/>
    <path id="Path_292" data-name="Path 292" d="M480.773,718.858c-5.5-9.738-11.887-20.561-23.294-24.021a26,26,0,0,0-9.8-1.012c-1.04.09-.78,1.693.258,1.6a24.149,24.149,0,0,1,15.636,4.137,40.641,40.641,0,0,1,10.747,11.6c1.78,2.71,3.374,5.535,4.968,8.356C479.8,720.421,481.288,719.77,480.773,718.858Z" transform="translate(-231.318 -339.465)" fill="#f2f2f2"/>
    <path id="Path_293" data-name="Path 293" d="M627.6,404.043,507.61,503.491a7.4,7.4,0,0,1-10.4-.974l-50.581-61.03a7.4,7.4,0,0,1,.974-10.4l119.989-99.447a7.4,7.4,0,0,1,10.4.973l50.581,61.029A7.4,7.4,0,0,1,627.6,404.043Z" transform="translate(-230.63 -219.737)" fill="#ccc"/>
    <path id="Path_294" data-name="Path 294" d="M625.785,404.043,508.553,501.2a3.811,3.811,0,0,1-5.36-.5l-48.3-58.271a3.811,3.811,0,0,1,.5-5.36l117.231-97.161a3.811,3.811,0,0,1,5.36.5l48.295,58.271a3.811,3.811,0,0,1-.5,5.36Z" transform="translate(-233.624 -222.731)" fill="#fff"/>
    <path id="Path_295" data-name="Path 295" d="M706.272,458.48l-24.112-2.257,17.257-13.582,9.3,11.217a2.785,2.785,0,0,1,.323,3.127,2.869,2.869,0,0,1-.705.874A2.791,2.791,0,0,1,706.272,458.48Z" transform="translate(-308.707 -256.829)" fill="#ccc"/>
    <path id="Path_296" data-name="Path 296" d="M613.955,398.764,554.65,447.917a3.583,3.583,0,0,1-4.572-5.517l59.305-49.152a3.583,3.583,0,0,1,4.572,5.517Z" transform="translate(-264.81 -240.301)" fill="#ccc"/>
    <path id="Path_297" data-name="Path 297" d="M580.164,405.144l-40,33.149a3.583,3.583,0,0,1-4.572-5.517l40-33.149a3.583,3.583,0,1,1,4.572,5.517Z" transform="translate(-260.043 -242.401)" fill="#ccc"/>
    <circle id="Ellipse_69" data-name="Ellipse 69" cx="11.196" cy="11.196" r="11.196" transform="translate(246.951 208.147)" fill="#e99629"/>
    <circle id="Ellipse_70" data-name="Ellipse 70" cx="3.583" cy="3.583" r="3.583" transform="translate(343.62 189.736)" fill="#e6e6e6"/>
    <circle id="Ellipse_71" data-name="Ellipse 71" cx="3.583" cy="3.583" r="3.583" transform="translate(353.275 181.734)" fill="#e6e6e6"/>
    <circle id="Ellipse_72" data-name="Ellipse 72" cx="3.583" cy="3.583" r="3.583" transform="translate(362.929 173.733)" fill="#e6e6e6"/>
    <path id="Path_298" data-name="Path 298" d="M461.2,540.65h8.225l3.913-31.725H461.2Z" transform="translate(-151.788 -167.497)" fill="#ffb8b8"/>
    <path id="Path_299" data-name="Path 299" d="M583.571,717.885h16.2a10.322,10.322,0,0,1,10.322,10.323v.335h-26.52Z" transform="translate(-276.26 -347.416)" fill="#2f2e41"/>
    <path id="Path_300" data-name="Path 300" d="M417.2,540.65h8.225l3.913-31.725H417.2Z" transform="translate(-137.307 -167.497)" fill="#ffb8b8"/>
    <path id="Path_301" data-name="Path 301" d="M539.571,717.885h16.2a10.322,10.322,0,0,1,10.323,10.323v.335h-26.52Z" transform="translate(-261.778 -347.416)" fill="#2f2e41"/>
    <path id="Path_302" data-name="Path 302" d="M549.335,642.248h0l-6.994,0a3.007,3.007,0,0,1-3.016-2.91l-.22-6.119c-1.768-48.934-3.6-99.535,7.727-122.278l.089-.179,37.489-1.357,7.526,69.041a29.937,29.937,0,0,1-.349,8.832L581.636,639.7a3.018,3.018,0,0,1-3.084,2.454L570.7,641.9a3.02,3.02,0,0,1-2.886-3.316l6.171-48.491a16.571,16.571,0,0,0-.56-6.229l-7.675-26.831a1.006,1.006,0,0,0-1.964.138l-11.456,82.47a3.031,3.031,0,0,1-2.99,2.6Z" transform="translate(-261.191 -278.801)" fill="#2f2e41"/>
    <circle id="Ellipse_73" data-name="Ellipse 73" cx="16.478" cy="16.478" r="16.478" transform="translate(276.15 128.621)" fill="#ffb8b8"/>
    <path id="Path_303" data-name="Path 303" d="M581.85,483.116h-34.1a3.019,3.019,0,0,1-2.987-3.455l1.684-11.537-9.891-27.207a20.022,20.022,0,0,1,16.107-26.679h0a19.946,19.946,0,0,1,20.811,11.281l2.173,4.623,9.168,49.4a3.019,3.019,0,0,1-2.968,3.569Z" transform="translate(-260.391 -247.418)" fill="#e99629"/>
    <path id="Path_304" data-name="Path 304" d="M492.992,523.975a7.207,7.207,0,0,0,4.994-9.858l26.568-60.025-15.2-3.828L488.019,510.47a7.246,7.246,0,0,0,4.972,13.5Z" transform="translate(-243.509 -259.338)" fill="#ffb8b8"/>
    <path id="Path_305" data-name="Path 305" d="M530.9,457.084l-14.782-6.919a3.232,3.232,0,0,1-1.324-4.711l8.983-13.567a8.975,8.975,0,1,1,16.234,7.657l-4.645,15.54a3.232,3.232,0,0,1-4.466,2Z" transform="translate(-253.445 -251.595)" fill="#e99629"/>
    <path id="Path_306" data-name="Path 306" d="M635.627,327.4a7.207,7.207,0,0,1-5.91,9.338L591.766,390.3,580.7,379.207l40.786-49.159a7.246,7.246,0,0,1,14.146-2.645Z" transform="translate(-275.313 -217.228)" fill="#ffb8b8"/>
    <path id="Path_307" data-name="Path 307" d="M596.436,408.389a3.228,3.228,0,0,1-.828,2.56L584.639,422.9a8.975,8.975,0,1,1-14.89-10.023l7.053-14.664a3.231,3.231,0,0,1,4.724-1.275l13.513,9.153A3.227,3.227,0,0,1,596.436,408.389Z" transform="translate(-271.207 -241.603)" fill="#e99629"/>
    <path id="Path_308" data-name="Path 308" d="M565.651,362.13a16.945,16.945,0,0,0-.616-4.412,19.927,19.927,0,0,0-22.29-14.22,21.266,21.266,0,0,0-5.883-.824h0A21.214,21.214,0,0,0,515.9,360.631l-7.944,51.143h42.936l6.933-44.631a21.316,21.316,0,0,0,.18-5.014Z" transform="translate(-251.373 -223.928)" fill="#2f2e41"/>
    <path id="Path_309" data-name="Path 309" d="M603.727,733.668H462.171a.671.671,0,0,1,0-1.342H603.727a.671.671,0,0,1,0,1.342Z" transform="translate(-236.084 -352.169)" fill="#ccc"/>
    <path id="Path_310" data-name="Path 310" d="M883.04,243.326a6.746,6.746,0,0,1,7.37,7.258l21.943,9.657L901.886,267l-19.232-10.207a6.783,6.783,0,0,1,.386-13.465Z" transform="translate(-372.788 -191.22)" fill="#a0616a"/>
    <circle id="Ellipse_74" data-name="Ellipse 74" cx="16.478" cy="16.478" r="16.478" transform="translate(582.285 7.104)" fill="#a0616a"/>
    <path id="Path_311" data-name="Path 311" d="M842.1,369.8h-8.225l-3.913-31.725H842.1Z" transform="translate(-273.155 -111.267)" fill="#a0616a"/>
    <path id="Path_312" data-name="Path 312" d="M963.666,557.692h-26.52v-.335a10.322,10.322,0,0,1,10.323-10.322h16.2Z" transform="translate(-392.628 -291.186)" fill="#2f2e41"/>
    <path id="Path_313" data-name="Path 313" d="M893.1,369.8h-8.225l-3.913-31.725H893.1Z" transform="translate(-289.94 -111.267)" fill="#a0616a"/>
    <path id="Path_314" data-name="Path 314" d="M1014.67,557.692H988.15v-.335a10.322,10.322,0,0,1,10.323-10.322h16.2Z" transform="translate(-409.414 -291.186)" fill="#2f2e41"/>
    <path id="Path_315" data-name="Path 315" d="M1000.515,480.351a3.031,3.031,0,0,1-.368-.023l-12.04-1.482a3.014,3.014,0,0,1-2.646-2.841L981.952,397a1.006,1.006,0,0,0-1.917-.371l-9.013,30.045-1.856,48.261a3.018,3.018,0,0,1-3.37,2.881l-10.426-1.227a3.009,3.009,0,0,1-2.665-3.057l.885-45.428,7.064-71.309.316.012,42.951,1.656-.387,118.881a3.02,3.02,0,0,1-3.019,3.009Z" transform="translate(-397.748 -228.575)" fill="#2f2e41"/>
    <path id="Path_316" data-name="Path 316" d="M1003.918,324.392h-.079l-43.258-1.133a3.019,3.019,0,0,1-2.912-3.424l8.312-61.179A29.608,29.608,0,0,1,978.513,238a25.625,25.625,0,0,1,20.87-3.721c15.1,3.826,24.157,20.039,20.192,36.142L1006.85,322.1A3.037,3.037,0,0,1,1003.918,324.392Z" transform="translate(-399.373 -187.99)" fill="#3f3d56"/>
    <path id="Path_317" data-name="Path 317" d="M925.048,278.076a14.64,14.64,0,0,1-8.026-2.385l-25.227-16.551a3.018,3.018,0,0,1-.536-4.6l3.8-4.012a3.008,3.008,0,0,1,3.309-.729l28.178,11.221,26.1-18.641a10.838,10.838,0,1,1,11.033,18.568l-32.261,15.67A14.585,14.585,0,0,1,925.048,278.076Z" transform="translate(-377.253 -190.255)" fill="#3f3d56"/>
    <path id="Path_318" data-name="Path 318" d="M1014.79,205.012c2.811.664,6.2,1.173,8.212-.9a8.392,8.392,0,0,0,.95-1.268l2.627-4.01c2.012-3.072,4.06-6.224,4.911-9.8a15.928,15.928,0,0,0-12.013-19.237c-3.922-.878-7.759-2.389-11.769-2.113s-8.711.185-12.076-2.013c.21.98,1.343,5.309,1.343,5.309s-5.059,4.642-6.074,5.8a9.5,9.5,0,0,1,13.232,7.159c.287,1.762.119,3.715,1.165,5.161,1,1.375,2.781,1.857,4.281,2.651a10.441,10.441,0,0,1,4.593,12.777Z" transform="translate(-410.319 -165.674)" fill="#2f2e41"/>
    <path id="Path_319" data-name="Path 319" d="M926.841,337.354H790.257a6.483,6.483,0,0,1-6.476-6.476V261.409a6.483,6.483,0,0,1,6.476-6.476H926.841a6.483,6.483,0,0,1,6.476,6.476v69.469A6.483,6.483,0,0,1,926.841,337.354Z" transform="translate(-342.152 -195.051)" fill="#ccc"/>
    <path id="Path_320" data-name="Path 320" d="M927.582,334.955H794.137a3.34,3.34,0,0,1-3.336-3.336v-66.33a3.34,3.34,0,0,1,3.336-3.336H927.582a3.34,3.34,0,0,1,3.336,3.336v66.33A3.34,3.34,0,0,1,927.582,334.955Z" transform="translate(-344.463 -197.361)" fill="#fff"/>
    <path id="Path_321" data-name="Path 321" d="M975.8,388.368,960.794,373.36l19.241.486v12.768a2.441,2.441,0,0,1-1.531,2.291,2.517,2.517,0,0,1-.965.2,2.446,2.446,0,0,1-1.738-.733Z" transform="translate(-400.411 -234.027)" fill="#ccc"/>
    <path id="Path_322" data-name="Path 322" d="M935.807,308.846H868.3a3.14,3.14,0,1,1,0-6.28h67.508a3.14,3.14,0,0,1,0,6.28Z" transform="translate(-368.936 -210.728)" fill="#ccc"/>
    <path id="Path_323" data-name="Path 323" d="M913.828,288.955H868.3a3.14,3.14,0,1,1,0-6.28h45.528a3.14,3.14,0,1,1,0,6.28Z" transform="translate(-368.936 -204.181)" fill="#ccc"/>
    <circle id="Ellipse_75" data-name="Ellipse 75" cx="9.812" cy="9.812" r="9.812" transform="translate(461.607 78.495)" fill="#e99629"/>
    <circle id="Ellipse_76" data-name="Ellipse 76" cx="3.14" cy="3.14" r="3.14" transform="translate(542.927 117.412)" fill="#e6e6e6"/>
    <circle id="Ellipse_77" data-name="Ellipse 77" cx="3.14" cy="3.14" r="3.14" transform="translate(553.917 117.412)" fill="#e6e6e6"/>
    <circle id="Ellipse_78" data-name="Ellipse 78" cx="3.14" cy="3.14" r="3.14" transform="translate(564.906 117.412)" fill="#e6e6e6"/>
    <path id="Path_324" data-name="Path 324" d="M993.848,353.1a6.746,6.746,0,0,1,8.613-5.729l13.943-19.5,4.471,11.628L1006.95,356.23a6.783,6.783,0,0,1-13.1-3.133Z" transform="translate(-411.274 -219.054)" fill="#a0616a"/>
    <path id="Path_325" data-name="Path 325" d="M1014.627,325.323a3.02,3.02,0,0,1-2.808-1.4l-2.947-4.675a3.006,3.006,0,0,1,.113-3.387l17.847-24.523-11.6-29.905a10.781,10.781,0,0,1,5.913-13.914h0a10.838,10.838,0,0,1,14.809,7.82l7.2,35.136a14.682,14.682,0,0,1-4.462,13.723l-22.28,20.345A3.01,3.01,0,0,1,1014.627,325.323Z" transform="translate(-416.08 -192.334)" fill="#3f3d56"/>
    <path id="Path_326" data-name="Path 326" d="M1003.727,564.668H862.171a.671.671,0,1,1,0-1.342h141.556a.671.671,0,1,1,0,1.342Z" transform="translate(-367.731 -296.548)" fill="#ccc"/>
    <path id="Path_327" data-name="Path 327" d="M311.936,276.016H175.351a6.483,6.483,0,0,1-6.476-6.476V200.07a6.483,6.483,0,0,1,6.476-6.476H311.936a6.483,6.483,0,0,1,6.476,6.476v69.47a6.483,6.483,0,0,1-6.476,6.476Z" transform="translate(-139.776 -174.863)" fill="#ccc"/>
    <path id="Path_328" data-name="Path 328" d="M312.676,273.617H179.231a3.34,3.34,0,0,1-3.336-3.336v-66.33a3.34,3.34,0,0,1,3.336-3.336H312.676a3.34,3.34,0,0,1,3.336,3.336v66.33A3.34,3.34,0,0,1,312.676,273.617Z" transform="translate(-142.086 -177.174)" fill="#fff"/>
    <path id="Path_329" data-name="Path 329" d="M360.9,327.03l-15.008-15.008,19.241.486v12.768a2.441,2.441,0,0,1-1.531,2.291,2.516,2.516,0,0,1-.965.2A2.446,2.446,0,0,1,360.9,327.03Z" transform="translate(-198.034 -213.84)" fill="#ccc"/>
    <path id="Path_330" data-name="Path 330" d="M320.9,247.507H253.394a3.14,3.14,0,1,1,0-6.28H320.9a3.14,3.14,0,0,1,0,6.28Z" transform="translate(-166.559 -190.54)" fill="#ccc"/>
    <path id="Path_331" data-name="Path 331" d="M298.922,227.616H253.394a3.14,3.14,0,1,1,0-6.28h45.528a3.14,3.14,0,0,1,0,6.28Z" transform="translate(-166.559 -183.993)" fill="#ccc"/>
    <circle id="Ellipse_79" data-name="Ellipse 79" cx="9.812" cy="9.812" r="9.812" transform="translate(49.078 37.343)" fill="#e99629"/>
    <circle id="Ellipse_80" data-name="Ellipse 80" cx="3.14" cy="3.14" r="3.14" transform="translate(130.398 76.261)" fill="#e6e6e6"/>
    <circle id="Ellipse_81" data-name="Ellipse 81" cx="3.14" cy="3.14" r="3.14" transform="translate(141.388 76.261)" fill="#e6e6e6"/>
    <circle id="Ellipse_82" data-name="Ellipse 82" cx="3.14" cy="3.14" r="3.14" transform="translate(152.378 76.261)" fill="#e6e6e6"/>
    <path id="Path_332" data-name="Path 332" d="M364.218,183.44a6.746,6.746,0,0,0-3.562,9.712l-15.712,18.107,12.35,1.636,13.027-17.446a6.783,6.783,0,0,0-6.1-12.009Z" transform="translate(-197.723 -171.384)" fill="#ffb8b8"/>
    <path id="Path_333" data-name="Path 333" d="M208.343,192.233a6.746,6.746,0,0,1-5.2,8.941l-3.91,23.653-9.142-8.463L195.2,195.2a6.783,6.783,0,0,1,13.14-2.968Z" transform="translate(-146.757 -172.927)" fill="#ffb8b8"/>
    <path id="Path_334" data-name="Path 334" d="M128.4,369.8h8.225l3.913-31.725H128.4Z" transform="translate(-42.258 -111.267)" fill="#ffb8b8"/>
    <path id="Path_335" data-name="Path 335" d="M250.772,547.035h16.2a10.322,10.322,0,0,1,10.323,10.323v.335h-26.52Z" transform="translate(-166.729 -291.186)" fill="#2f2e41"/>
    <path id="Path_336" data-name="Path 336" d="M65.4,369.8h8.225l3.913-31.725H65.4Z" transform="translate(-21.523 -111.267)" fill="#ffb8b8"/>
    <path id="Path_337" data-name="Path 337" d="M187.772,547.035h16.2a10.322,10.322,0,0,1,10.323,10.323v.335h-26.52Z" transform="translate(-145.995 -291.186)" fill="#2f2e41"/>
    <circle id="Ellipse_83" data-name="Ellipse 83" cx="16.478" cy="16.478" r="16.478" transform="translate(67.946 8.98)" fill="#ffb8b8"/>
    <path id="Path_338" data-name="Path 338" d="M226.855,479.82,225.493,393a1.006,1.006,0,0,0-1.985-.218L201.173,477.7a3.056,3.056,0,0,1-3.067,2.321l-12.27-.525a3.02,3.02,0,0,1-2.866-3.395l18.952-109.124.039-.308,52.786,2.5.344.016L243.772,480a3.032,3.032,0,0,1-3.01,2.795H229.874A3.031,3.031,0,0,1,226.855,479.82Z" transform="translate(-144.407 -231.826)" fill="#2f2e41"/>
    <path id="Path_339" data-name="Path 339" d="M271.6,333.018,195,326.732a3.018,3.018,0,0,1-2.592-4.035l12.063-33.351.694-39.584A10.856,10.856,0,0,1,216.349,239.1l5.094-4.618h18.664l1.625,2.131,12.986,2a10.917,10.917,0,0,1,9.111,9.28l11.012,81.716a3.019,3.019,0,0,1-2.988,3.422C271.77,333.029,271.686,333.026,271.6,333.018Z" transform="translate(-147.462 -188.32)" fill="#2f2e41"/>
    <path id="Path_340" data-name="Path 340" d="M288.294,231.528l32.661-9.569L335.737,202.5a3.018,3.018,0,0,1,3.591-.95l9.229,3.945a3.019,3.019,0,0,1,1.422,4.3l-11.046,18.956a16.9,16.9,0,0,1-7.819,6.993L292.7,252.719Z" transform="translate(-179.079 -177.4)" fill="#2f2e41"/>
    <path id="Path_341" data-name="Path 341" d="M192.04,250.891a14,14,0,0,1-5.772-12.462l1.433-18.991a3.027,3.027,0,0,1,3.011-2.792h.027l10.823.1a3.02,3.02,0,0,1,2.936,3.6l-2.008,10.245,14.33,6.055-12.067,23.476Z" transform="translate(-145.485 -182.45)" fill="#2f2e41"/>
    <path id="Path_342" data-name="Path 342" d="M250.893,172.37s-17.232-9.278-26.624,1.672,3.578,28.075,3.578,28.075l18.481,2.331s.671-12.563,5.071-12.319S269.466,176.519,250.893,172.37Z" transform="translate(-156.883 -166.67)" fill="#2f2e41"/>
    <path id="Path_343" data-name="Path 343" d="M267.727,563.668H126.171a.671.671,0,0,1,0-1.342H267.727a.671.671,0,0,1,0,1.342Z" transform="translate(-125.5 -296.219)" fill="#ccc"/>
  </g>
</svg>
