<svg xmlns="http://www.w3.org/2000/svg" width="477.242" height="402.992" viewBox="0 0 477.242 402.992">
  <g id="Group_22" data-name="Group 22" transform="translate(0)">
    <path id="Path_344" data-name="Path 344" d="M93.512,498.609l9.259,2.588,14.391-34.481L103.5,462.9Z" transform="translate(-22.743 -112.58)" fill="#ffb8b8"/>
    <path id="Path_345" data-name="Path 345" d="M0,0H30.215V11.674H10.506A10.506,10.506,0,0,1,0,1.168V0Z" transform="matrix(-0.963, -0.269, 0.269, -0.963, 95.482, 402.206)" fill="#2f2e41"/>
    <path id="Path_346" data-name="Path 346" d="M239.45,507.75h9.614l4.572-37.083H239.447Z" transform="translate(-58.235 -114.469)" fill="#ffb8b8"/>
    <path id="Path_347" data-name="Path 347" d="M0,0H30.216V11.674H10.506A10.506,10.506,0,0,1,0,1.168V0Z" transform="translate(209.371 402.205) rotate(179.995)" fill="#2f2e41"/>
    <path id="Path_348" data-name="Path 348" d="M137.938,316.237l-22.129,54.21,90.359,20.3,1.153-30.329-41.03-43.7Z" transform="translate(-28.166 -76.911)" fill="#b3b3b3"/>
    <circle id="Ellipse_84" data-name="Ellipse 84" cx="20.655" cy="20.655" r="20.655" transform="translate(120.857 128.537) rotate(-28.663)" fill="#ffb8b8"/>
    <path id="Path_349" data-name="Path 349" d="M486.517,472.369l-40.9-16.743-3.642-24.011a27.589,27.589,0,0,1,21.87-31.222l5.41-1.086a27.843,27.843,0,0,1,24.934,7.4,26.583,26.583,0,0,1,7.8,23.918,23.158,23.158,0,0,1-4.375,10.194c-12.849,16.8-11.2,30.77-11.181,30.909Z" transform="translate(-322.868 -236.043)" fill="#e99629"/>
    <path id="Path_350" data-name="Path 350" d="M515.562,534.98l-20.5-32.6,6.456-59.3L492.6,398.735l.474.012a20.209,20.209,0,0,1,19.7,19.713l8.676,43.458Z" transform="translate(-335.259 -236.036)" fill="#2f2e41"/>
    <path id="Path_351" data-name="Path 351" d="M488.4,638.853a3.743,3.743,0,0,1-3.666-3l-8.98-44.654a70.051,70.051,0,0,0-9.12-23.1l-25.339-40.989a1.3,1.3,0,0,0-2.312.185L397.322,627.367a3.751,3.751,0,0,1-4.2,2.228l-11.129-2.269a3.726,3.726,0,0,1-2.942-4.292l9.079-53.5a138.1,138.1,0,0,1,9.4-31.7l30.746-71.058,45.374,14.9,2.994,31.772,20.965,50.764a34.8,34.8,0,0,1,2.564,11.01l3.873,58.67a3.76,3.76,0,0,1-3.429,3.977l-11.906.974Q488.552,638.853,488.4,638.853Z" transform="translate(-307.629 -252.583)" fill="#2f2e41"/>
    <path id="Path_352" data-name="Path 352" d="M409.562,550.336l-14.385-13.654,27.185-104.829a43.94,43.94,0,0,1,25.856-29.538l.534-.217L447.3,465.9Z" transform="translate(-311.565 -236.854)" fill="#2f2e41"/>
    <path id="Path_353" data-name="Path 353" d="M468.529,376.9A16,16,0,0,1,465,358.166a14.916,14.916,0,0,1,17-7.434c6.021,1.8,12.866-4.2,12.132-10.64s-8.74-10.629-14.192-7.432a23.09,23.09,0,0,0-24.614,4.794,25.069,25.069,0,0,0-5.959,25.157C452.239,371.237,460.265,377.767,468.529,376.9Z" transform="translate(-324.452 -219.562)" fill="#2f2e41"/>
    <path id="Path_354" data-name="Path 354" d="M430.009,578.815a3.527,3.527,0,0,1-.782.2L396.386,583.6a3.534,3.534,0,0,1-3.8-2.242L364.313,507.8a3.549,3.549,0,0,1,2.54-4.738h0l30.884-6.892a2.821,2.821,0,0,0,.686-.251l30.039-15.705a3.514,3.514,0,0,1,.73-.284l33.058-8.813a3.543,3.543,0,0,1,4.228,2.156l24.648,64.137a3.532,3.532,0,0,1-.466,3.393l-8.524,11.447a3.545,3.545,0,0,1-1.574,1.193l-18.629,7.159a2.826,2.826,0,0,0-.387.184L430.5,578.581A3.548,3.548,0,0,1,430.009,578.815Z" transform="translate(-304.001 -253.611)" fill="#fff"/>
    <path id="Path_355" data-name="Path 355" d="M447.152,482.69l-4.2,1.12-11.125,2.967-.02,0-15.23,7.964-5.652,2.956h0l-8.489,4.438-.233.052-8.819,1.967-4.262.953-17.383,3.879L399.028,580l17.913-2.5,4.392-.614,9.362-1.308.109-.014,30.082-17.241,18.3-7.034,8.356-11.221L463.79,478.255Z" transform="translate(-305.864 -255.376)" fill="#e6e6e6"/>
    <rect id="Rectangle_163" data-name="Rectangle 163" width="96.95" height="4.32" transform="translate(71.342 267.841) rotate(-21.022)" fill="#fff"/>
    <rect id="Rectangle_164" data-name="Rectangle 164" width="96.95" height="4.32" transform="translate(76.508 281.283) rotate(-21.022)" fill="#fff"/>
    <rect id="Rectangle_165" data-name="Rectangle 165" width="96.95" height="4.32" transform="translate(86.943 308.436) rotate(-21.022)" fill="#fff"/>
    <path id="Path_356" data-name="Path 356" d="M185.343,300.365l27.093,70.5-4.032,1.55-27.259-70.928Z" transform="translate(-44.056 -73.051)" fill="#fff"/>
    <path id="Path_357" data-name="Path 357" d="M137.72,316.294l-5.563,15.479-1.929,5.369-4.5,12.529-.964,2.678-.965,2.691-1.271,3.533-9.12,25.381-2.371-6.17,7.436-20.7,1.682-4.686.247-.684,1.99-5.54,2.51-6.987,1.929-5.37,5.234-14.569h0Z" transform="translate(-27.005 -76.925)" fill="#fff"/>
    <path id="Path_358" data-name="Path 358" d="M186.637,377.059l-.656.252L155.9,394.552l-.109.014L127.3,321.18l.233-.052,8.489-4.438h0l5.652-2.956,15.23-7.964.02,0Z" transform="translate(-30.96 -74.364)" opacity="0.1"/>
    <path id="Path_359" data-name="Path 359" d="M430.023,579.046a3.919,3.919,0,0,1-.865.223l-32.841,4.584a3.912,3.912,0,0,1-4.21-2.481l-28.268-73.557a3.928,3.928,0,0,1,2.811-5.243l30.884-6.892a2.452,2.452,0,0,0,.593-.217l30.039-15.705a3.9,3.9,0,0,1,.808-.314l33.058-8.813a3.92,3.92,0,0,1,4.678,2.386l24.648,64.137a3.909,3.909,0,0,1-.516,3.755l-8.524,11.447a3.922,3.922,0,0,1-1.741,1.321l-18.629,7.159a2.429,2.429,0,0,0-.335.159l-31.043,17.791A3.927,3.927,0,0,1,430.023,579.046Zm-63.384-74.893a2.415,2.415,0,0,0-1.387,3.12l28.268,73.557a2.4,2.4,0,0,0,2.588,1.525l32.841-4.584a2.422,2.422,0,0,0,.867-.3l31.043-17.791a3.941,3.941,0,0,1,.544-.259l18.629-7.159a2.413,2.413,0,0,0,1.071-.812l8.524-11.447a2.4,2.4,0,0,0,.317-2.308L465.3,473.561a2.41,2.41,0,0,0-2.875-1.467l-33.058,8.813a2.493,2.493,0,0,0-.5.193l-30.039,15.706a3.993,3.993,0,0,1-.964.353l-30.884,6.892A2.4,2.4,0,0,0,366.638,504.153Z" transform="translate(-303.879 -253.489)" fill="#e6e6e6"/>
    <path id="Path_360" data-name="Path 360" d="M114.276,328.733l27.949,72.727-4.392.614-27.82-72.388Z" transform="translate(-26.756 -79.95)" fill="#fff"/>
    <circle id="Ellipse_85" data-name="Ellipse 85" cx="2.016" cy="2.016" r="2.016" transform="translate(93.543 274.107)" fill="#3f3d56"/>
    <circle id="Ellipse_86" data-name="Ellipse 86" cx="2.016" cy="2.016" r="2.016" transform="translate(165.025 276.255)" fill="#e99629"/>
    <path id="Path_361" data-name="Path 361" d="M497.905,500.483c2.288,5.954-.465,25.685-1.434,32.018a1.151,1.151,0,0,1-1.867.718c-4.961-4.055-20.22-16.864-22.508-22.818a13.825,13.825,0,1,1,25.809-9.919Z" transform="translate(-330.047 -258.625)" fill="#e99629"/>
    <circle id="Ellipse_87" data-name="Ellipse 87" cx="7.488" cy="7.488" r="7.488" transform="translate(147.465 239.328)" fill="#fff"/>
    <path id="Path_362" data-name="Path 362" d="M476.64,483.028a7.886,7.886,0,0,1,10.985-5.053l13.368-12.084,9.325,6.333-19.118,16.8a7.928,7.928,0,0,1-14.56-6Z" transform="translate(-331.305 -252.369)" fill="#ffb8b8"/>
    <path id="Path_363" data-name="Path 363" d="M501.829,471.4,491.35,457.183l23.889-15.289-17.122-24.432a9.9,9.9,0,0,1,14.78-13l21.439,19.56a17.958,17.958,0,0,1-2.52,28.454Z" transform="translate(-334.954 -236.801)" fill="#2f2e41"/>
    <path id="Path_364" data-name="Path 364" d="M392.7,531.69a7.886,7.886,0,0,0,1.095-12.042l6.927-16.636-9.083-6.675-9.452,23.63A7.928,7.928,0,0,0,392.7,531.69Z" transform="translate(-307.925 -259.773)" fill="#ffb8b8"/>
    <path id="Path_365" data-name="Path 365" d="M397.634,493.276l-16.382-3.815,12.208-35.2a57.715,57.715,0,0,1,9.183-16.805l19.916-25.326a11.137,11.137,0,1,1,17.558,13.705l-22.1,28.522Z" transform="translate(-308.178 -238.251)" fill="#2f2e41"/>
    <path id="Path_366" data-name="Path 366" d="M573.789,715.764H285.451a.757.757,0,1,1,0-1.514H573.789a.757.757,0,1,1,0,1.514Z" transform="translate(-284.694 -312.771)" fill="#ccc"/>
    <path id="Path_367" data-name="Path 367" d="M812.293,586.364h-6.811V187.156a3.406,3.406,0,0,1,6.811,0Z" transform="translate(-411.354 -183.75)" fill="#e6e6e6"/>
    <path id="Path_368" data-name="Path 368" d="M845.4,715.764H739.451a.757.757,0,1,1,0-1.514H845.4a.757.757,0,1,1,0,1.514Z" transform="translate(-395.11 -312.771)" fill="#ccc"/>
    <path id="Path_369" data-name="Path 369" d="M843.99,241.319h-99.1a3.409,3.409,0,0,1-3.406-3.406V209.156a3.409,3.409,0,0,1,3.406-3.406H844a3.413,3.413,0,0,1,1.66.432l25.629,14.3a3.405,3.405,0,0,1,.013,5.94L845.662,240.88A3.415,3.415,0,0,1,843.99,241.319Z" transform="translate(-395.788 -189.101)" fill="#e99629"/>
    <path id="Path_370" data-name="Path 370" d="M823.8,323.319H724.7a3.414,3.414,0,0,1-1.673-.439l-25.636-14.456a3.405,3.405,0,0,1,.013-5.94l25.629-14.3a3.413,3.413,0,0,1,1.66-.432H823.8a3.409,3.409,0,0,1,3.406,3.406v28.758a3.409,3.409,0,0,1-3.406,3.406Z" transform="translate(-384.643 -209.044)" fill="#e6e6e6"/>
    <path id="Path_371" data-name="Path 371" d="M824.3,403.819H725.2a3.414,3.414,0,0,1-1.673-.439l-25.636-14.456a3.405,3.405,0,0,1,.013-5.94l25.629-14.3a3.413,3.413,0,0,1,1.66-.432H824.3a3.409,3.409,0,0,1,3.406,3.406v28.758A3.409,3.409,0,0,1,824.3,403.819Z" transform="translate(-384.765 -228.622)" fill="#e6e6e6"/>
  </g>
</svg>
