<svg xmlns="http://www.w3.org/2000/svg" xmlns:xlink="http://www.w3.org/1999/xlink" width="698.461" height="366.5" viewBox="0 0 698.461 366.5">
  <defs>
    <linearGradient id="linear-gradient" x1="0.5" y1="1" x2="0.5" gradientUnits="objectBoundingBox">
      <stop offset="0" stop-color="gray" stop-opacity="0.251"/>
      <stop offset="0.54" stop-color="gray" stop-opacity="0.122"/>
      <stop offset="1" stop-color="gray" stop-opacity="0.102"/>
    </linearGradient>
    <linearGradient id="linear-gradient-2" x1="0.5" y1="1" x2="0.5" y2="-0.001" xlink:href="#linear-gradient"/>
  </defs>
  <g id="Group_31" data-name="Group 31" transform="translate(0 0.359)">
    <g id="Group_23" data-name="Group 23" transform="translate(270.94 25.132)" opacity="0.1">
      <ellipse id="Ellipse_88" data-name="Ellipse 88" cx="7.252" cy="9.495" rx="7.252" ry="9.495" transform="translate(27.334 196.014)" fill="#3f3d56"/>
      <path id="Path_372" data-name="Path 372" d="M533.019,452.291a11.471,11.471,0,0,0,1.517-5.806c0-5.245-3.25-9.5-7.259-9.5S520,441.253,520,446.5a11.471,11.471,0,0,0,1.517,5.806,11.86,11.86,0,0,0,0,11.6,11.86,11.86,0,0,0,0,11.6A11.432,11.432,0,0,0,520,481.319c0,5.238,3.25,9.5,7.252,9.5s7.259-4.257,7.259-9.5a11.433,11.433,0,0,0-1.517-5.806,11.86,11.86,0,0,0,0-11.6,11.86,11.86,0,0,0,0-11.6Z" transform="translate(-492.692 -287.408)" fill="#3f3d56"/>
      <ellipse id="Ellipse_89" data-name="Ellipse 89" cx="7.252" cy="9.495" rx="7.252" ry="9.495" transform="translate(27.334 137.99)" fill="#3f3d56"/>
      <ellipse id="Ellipse_90" data-name="Ellipse 90" cx="7.252" cy="9.495" rx="7.252" ry="9.495" transform="translate(27.334 126.385)" fill="#3f3d56"/>
      <path id="Path_373" data-name="Path 373" d="M484.587,258.727a33.822,33.822,0,0,1-2.7-3.977l19.055-3.129-20.61.153a34.808,34.808,0,0,1-.637-27.531l27.652,14.345L481.853,219.84a34.751,34.751,0,1,1,57.355,38.874,34.753,34.753,0,0,1,3.964,6.335l-24.746,12.886,26.377-8.852a34.751,34.751,0,0,1-5.6,32.629,34.745,34.745,0,1,1-54.615,0,34.745,34.745,0,0,1,0-42.966Z" transform="translate(-477.149 -202.271)" fill="#e99629"/>
      <path id="Path_374" data-name="Path 374" d="M546.639,324.279a34.585,34.585,0,0,1-7.437,21.483,34.745,34.745,0,1,1-54.615,0C479.928,339.847,546.639,320.378,546.639,324.279Z" transform="translate(-477.149 -246.34)" opacity="0.1"/>
    </g>
    <g id="Group_24" data-name="Group 24" transform="translate(364.347 56.889)" opacity="0.1">
      <ellipse id="Ellipse_91" data-name="Ellipse 91" cx="5.423" cy="7.093" rx="5.423" ry="7.093" transform="translate(20.425 146.356)" fill="#3f3d56"/>
      <path id="Path_375" data-name="Path 375" d="M665.472,438.753a8.559,8.559,0,0,0,1.128-4.333c0-3.919-2.428-7.1-5.417-7.1s-5.423,3.186-5.423,7.1a8.5,8.5,0,0,0,1.134,4.333,8.859,8.859,0,0,0,0,8.673,8.858,8.858,0,0,0,0,8.673,8.5,8.5,0,0,0-1.134,4.333c0,3.919,2.428,7.1,5.423,7.1s5.417-3.186,5.417-7.1a8.559,8.559,0,0,0-1.128-4.334,8.922,8.922,0,0,0,0-8.673,8.922,8.922,0,0,0,0-8.673Z" transform="translate(-635.341 -315.657)" fill="#3f3d56"/>
      <ellipse id="Ellipse_92" data-name="Ellipse 92" cx="5.423" cy="7.093" rx="5.423" ry="7.093" transform="translate(20.425 102.996)" fill="#3f3d56"/>
      <ellipse id="Ellipse_93" data-name="Ellipse 93" cx="5.423" cy="7.093" rx="5.423" ry="7.093" transform="translate(20.425 94.322)" fill="#3f3d56"/>
      <path id="Path_376" data-name="Path 376" d="M629.277,294.168a24.856,24.856,0,0,1-2.02-2.97L641.5,288.86l-15.4.115a26.026,26.026,0,0,1-.5-20.578l20.667,10.725L627.206,265.1a25.969,25.969,0,1,1,42.883,29.06,26.261,26.261,0,0,1,2.963,4.735l-18.481,9.6,19.711-6.615a25.976,25.976,0,0,1-4.187,24.382,25.963,25.963,0,1,1-40.786,0,25.963,25.963,0,0,1,0-32.106Z" transform="translate(-623.72 -252.103)" fill="#e99629"/>
      <path id="Path_377" data-name="Path 377" d="M675.653,343.082a25.854,25.854,0,0,1-5.557,16.053,25.963,25.963,0,1,1-40.786,0C625.817,354.719,675.653,340.17,675.653,343.082Z" transform="translate(-623.727 -284.964)" opacity="0.1"/>
    </g>
    <g id="Group_25" data-name="Group 25" transform="translate(626.793 -0.359)" opacity="0.1">
      <ellipse id="Ellipse_94" data-name="Ellipse 94" cx="7.252" cy="9.495" rx="7.252" ry="9.495" transform="translate(27.823 196.014)" fill="#3f3d56"/>
      <path id="Path_378" data-name="Path 378" d="M1080.706,412.291a11.472,11.472,0,0,1-1.517-5.806c0-5.245,3.25-9.5,7.259-9.5s7.252,4.251,7.252,9.5a11.471,11.471,0,0,1-1.517,5.806,11.86,11.86,0,0,1,0,11.6,11.86,11.86,0,0,1,0,11.6,11.433,11.433,0,0,1,1.517,5.806c0,5.238-3.25,9.5-7.252,9.5s-7.259-4.257-7.259-9.5a11.431,11.431,0,0,1,1.517-5.806,11.86,11.86,0,0,1,0-11.6A11.86,11.86,0,0,1,1080.706,412.291Z" transform="translate(-1051.373 -247.408)" fill="#3f3d56"/>
      <ellipse id="Ellipse_95" data-name="Ellipse 95" cx="7.252" cy="9.495" rx="7.252" ry="9.495" transform="translate(27.823 137.99)" fill="#3f3d56"/>
      <ellipse id="Ellipse_96" data-name="Ellipse 96" cx="7.252" cy="9.495" rx="7.252" ry="9.495" transform="translate(27.823 126.385)" fill="#3f3d56"/>
      <path id="Path_379" data-name="Path 379" d="M1097.765,218.727a33.816,33.816,0,0,0,2.7-3.977l-19.055-3.129,20.61.153a34.808,34.808,0,0,0,.637-27.531l-27.652,14.345L1100.5,179.84a34.751,34.751,0,1,0-57.355,38.874,34.762,34.762,0,0,0-3.964,6.335l24.746,12.886-26.377-8.852a34.751,34.751,0,0,0,5.6,32.629,34.745,34.745,0,1,0,54.615,0,34.744,34.744,0,0,0,0-42.966Z" transform="translate(-1035.541 -162.271)" fill="#e99629"/>
      <path id="Path_380" data-name="Path 380" d="M1035.81,284.279a34.586,34.586,0,0,0,7.437,21.483,34.745,34.745,0,1,0,54.615,0C1102.52,299.847,1035.81,280.378,1035.81,284.279Z" transform="translate(-1035.638 -206.34)" opacity="0.1"/>
    </g>
    <g id="Group_26" data-name="Group 26" transform="translate(565.751 53.066)" opacity="0.1">
      <ellipse id="Ellipse_97" data-name="Ellipse 97" cx="5.423" cy="7.093" rx="5.423" ry="7.093" transform="translate(20.682 146.356)" fill="#3f3d56"/>
      <path id="Path_381" data-name="Path 381" d="M973.358,432.753a8.559,8.559,0,0,1-1.128-4.334c0-3.919,2.428-7.1,5.417-7.1s5.423,3.186,5.423,7.1a8.5,8.5,0,0,1-1.134,4.334,8.858,8.858,0,0,1,0,8.673,8.858,8.858,0,0,1,0,8.673,8.5,8.5,0,0,1,1.134,4.334c0,3.919-2.428,7.1-5.423,7.1s-5.417-3.186-5.417-7.1a8.559,8.559,0,0,1,1.128-4.334,8.922,8.922,0,0,1,0-8.673A8.922,8.922,0,0,1,973.358,432.753Z" transform="translate(-951.535 -309.657)" fill="#3f3d56"/>
      <ellipse id="Ellipse_98" data-name="Ellipse 98" cx="5.423" cy="7.093" rx="5.423" ry="7.093" transform="translate(20.682 102.996)" fill="#3f3d56"/>
      <ellipse id="Ellipse_99" data-name="Ellipse 99" cx="5.423" cy="7.093" rx="5.423" ry="7.093" transform="translate(20.682 94.322)" fill="#3f3d56"/>
      <path id="Path_382" data-name="Path 382" d="M986.153,288.168a24.839,24.839,0,0,0,2.02-2.97l-14.243-2.339,15.4.115a26.026,26.026,0,0,0,.5-20.578l-20.667,10.725,19.061-14.02a25.969,25.969,0,1,0-42.883,29.06,26.257,26.257,0,0,0-2.963,4.735l18.481,9.6-19.673-6.609a25.976,25.976,0,0,0,4.187,24.382,25.963,25.963,0,1,0,40.786,0,25.963,25.963,0,0,0,0-32.106Z" transform="translate(-939.756 -246.103)" fill="#e99629"/>
      <path id="Path_383" data-name="Path 383" d="M939.793,337.082a25.855,25.855,0,0,0,5.557,16.053,25.963,25.963,0,1,0,40.786,0C989.628,348.719,939.793,334.17,939.793,337.082Z" transform="translate(-939.765 -278.964)" opacity="0.1"/>
    </g>
    <g id="Group_27" data-name="Group 27" transform="translate(4.658 -0.252)" opacity="0.1">
      <ellipse id="Ellipse_100" data-name="Ellipse 100" cx="7.252" cy="9.495" rx="7.252" ry="9.495" transform="translate(27.34 195.908)" fill="#3f3d56"/>
      <path id="Path_384" data-name="Path 384" d="M115.2,412.291a11.471,11.471,0,0,0,1.517-5.806c0-5.245-3.25-9.5-7.252-9.5s-7.252,4.251-7.252,9.5a11.471,11.471,0,0,0,1.51,5.806,11.9,11.9,0,0,0,0,11.6,11.9,11.9,0,0,0,0,11.6,11.427,11.427,0,0,0-1.51,5.806c0,5.238,3.244,9.5,7.252,9.5s7.271-4.244,7.271-9.483a11.433,11.433,0,0,0-1.517-5.806,11.86,11.86,0,0,0,0-11.6,11.86,11.86,0,0,0,0-11.6Z" transform="translate(-74.87 -247.515)" fill="#3f3d56"/>
      <ellipse id="Ellipse_101" data-name="Ellipse 101" cx="7.252" cy="9.495" rx="7.252" ry="9.495" transform="translate(27.34 137.883)" fill="#3f3d56"/>
      <ellipse id="Ellipse_102" data-name="Ellipse 102" cx="7.252" cy="9.495" rx="7.252" ry="9.495" transform="translate(27.34 126.278)" fill="#3f3d56"/>
      <path id="Path_385" data-name="Path 385" d="M66.76,218.788a34.621,34.621,0,0,1-2.7-3.977l19.061-3.129-20.629.185a34.808,34.808,0,0,1-.637-27.531L89.51,198.682,64.019,179.933a34.745,34.745,0,1,1,57.355,38.874,34.757,34.757,0,0,1,3.964,6.335L100.586,238l26.383-8.852a34.789,34.789,0,0,1-5.608,32.629,34.745,34.745,0,1,1-54.615,0,34.745,34.745,0,0,1,0-42.966Z" transform="translate(-59.309 -162.439)" fill="#e99629"/>
      <path id="Path_386" data-name="Path 386" d="M128.8,284.279a34.585,34.585,0,0,1-7.437,21.483,34.745,34.745,0,1,1-54.615,0C62.088,299.847,128.8,280.378,128.8,284.279Z" transform="translate(-59.309 -206.446)" opacity="0.1"/>
    </g>
    <g id="Group_28" data-name="Group 28" transform="translate(83.408 53.066)" opacity="0.1">
      <ellipse id="Ellipse_103" data-name="Ellipse 103" cx="5.423" cy="7.093" rx="5.423" ry="7.093" transform="translate(20.425 146.356)" fill="#3f3d56"/>
      <path id="Path_387" data-name="Path 387" d="M224.642,432.753a8.559,8.559,0,0,0,1.128-4.334c0-3.919-2.422-7.1-5.417-7.1s-5.423,3.186-5.423,7.1a8.559,8.559,0,0,0,1.134,4.334,8.858,8.858,0,0,0,0,8.673,8.858,8.858,0,0,0,0,8.673,8.559,8.559,0,0,0-1.134,4.334c0,3.919,2.428,7.1,5.423,7.1s5.417-3.186,5.417-7.1a8.559,8.559,0,0,0-1.128-4.333,8.922,8.922,0,0,0,0-8.673,8.922,8.922,0,0,0,0-8.673Z" transform="translate(-194.505 -309.657)" fill="#3f3d56"/>
      <ellipse id="Ellipse_104" data-name="Ellipse 104" cx="5.423" cy="7.093" rx="5.423" ry="7.093" transform="translate(20.425 102.996)" fill="#3f3d56"/>
      <ellipse id="Ellipse_105" data-name="Ellipse 105" cx="5.423" cy="7.093" rx="5.423" ry="7.093" transform="translate(20.425 94.322)" fill="#3f3d56"/>
      <path id="Path_388" data-name="Path 388" d="M188.437,288.168a25.623,25.623,0,0,1-2.02-2.97l14.243-2.339-15.4.115a26.027,26.027,0,0,1-.5-20.578l20.667,10.725L186.366,259.1a25.969,25.969,0,1,1,42.883,29.06,25.568,25.568,0,0,1,2.963,4.735l-18.481,9.6,19.711-6.615a25.976,25.976,0,0,1-4.187,24.382,25.963,25.963,0,1,1-40.786,0,25.963,25.963,0,0,1,0-32.106Z" transform="translate(-182.88 -246.103)" fill="#e99629"/>
      <path id="Path_389" data-name="Path 389" d="M234.813,337.082a25.855,25.855,0,0,1-5.557,16.053,25.963,25.963,0,1,1-40.786,0C184.965,348.719,234.813,334.17,234.813,337.082Z" transform="translate(-182.887 -278.964)" opacity="0.1"/>
    </g>
    <ellipse id="Ellipse_106" data-name="Ellipse 106" cx="349.23" cy="5.646" rx="349.23" ry="5.646" transform="translate(0 308.486)" fill="#e99629" opacity="0.1"/>
    <ellipse id="Ellipse_107" data-name="Ellipse 107" cx="349.23" cy="5.646" rx="349.23" ry="5.646" transform="translate(0 354.849)" fill="#e99629" opacity="0.1"/>
    <ellipse id="Ellipse_108" data-name="Ellipse 108" cx="349.23" cy="5.646" rx="349.23" ry="5.646" transform="translate(0 211.728)" fill="#e99629" opacity="0.1"/>
    <ellipse id="Ellipse_109" data-name="Ellipse 109" cx="349.23" cy="5.646" rx="349.23" ry="5.646" transform="translate(0 260.104)" fill="#e99629" opacity="0.1"/>
    <path id="Path_390" data-name="Path 390" d="M840.9,264.164a11.662,11.662,0,0,0-6.755.739,9.973,9.973,0,0,1-8.119,0,11.4,11.4,0,0,0-9.559.185,5.888,5.888,0,0,1-2.747.688c-3.875,0-7.093-3.9-7.762-9.043a7.569,7.569,0,0,0,1.912-2.084c2.269-3.658,5.78-6.01,9.731-6.01s7.418,2.32,9.687,5.939a7.443,7.443,0,0,0,6.43,3.531h.1C836.938,258.078,839.609,260.551,840.9,264.164Z" transform="translate(-325.475 -193.958)" fill="#e99629" opacity="0.1"/>
    <path id="Path_391" data-name="Path 391" d="M852.691,239.819l-6.258,3.964,3.824-6.908a6.182,6.182,0,0,0-3.786-1.345h-.1a7.233,7.233,0,0,1-1.275-.1l-2.154,1.345.911-1.657a7.513,7.513,0,0,1-3.715-2.817l-3.824,2.409,2.4-4.359a11.1,11.1,0,0,0-8.5-4.3c-3.951,0-7.463,2.345-9.738,6a7.271,7.271,0,0,1-6.43,3.467h-.21c-4.359,0-7.89,4.939-7.89,11.031s3.531,11.038,7.89,11.038a5.984,5.984,0,0,0,2.747-.688,11.382,11.382,0,0,1,9.559-.191,9.91,9.91,0,0,0,8.119,0,11.42,11.42,0,0,1,9.47.185,5.927,5.927,0,0,0,2.715.675c4.359,0,7.89-4.945,7.89-11.038A13.975,13.975,0,0,0,852.691,239.819Z" transform="translate(-325.468 -185.767)" fill="#e99629" opacity="0.1"/>
    <path id="Path_392" data-name="Path 392" d="M429.346,261.406a8.183,8.183,0,0,0-4.735.516,6.959,6.959,0,0,1-5.678,0,7.953,7.953,0,0,0-6.685.134,4.219,4.219,0,0,1-1.912.478c-2.708,0-4.964-2.728-5.436-6.328a5.3,5.3,0,0,0,1.357-1.459,7.615,7.615,0,0,1,13.593-.051,5.219,5.219,0,0,0,4.506,2.473h.07C426.568,257.155,428.435,258.888,429.346,261.406Z" transform="translate(-180.003 -194.647)" fill="#e99629" opacity="0.1"/>
    <path id="Path_393" data-name="Path 393" d="M437.592,244.376l-4.378,2.779,2.657-4.837a4.3,4.3,0,0,0-2.645-.943h-.076a4.776,4.776,0,0,1-.9-.07l-1.485.943.637-1.16a5.289,5.289,0,0,1-2.6-1.969L426.14,240.8l1.682-3.046a7.781,7.781,0,0,0-5.952-3.014,8.151,8.151,0,0,0-6.813,4.206,5.1,5.1,0,0,1-4.506,2.428h-.147c-3.053,0-5.525,3.454-5.525,7.724s2.473,7.724,5.525,7.724a4.142,4.142,0,0,0,1.912-.484A7.966,7.966,0,0,1,419,256.21a6.845,6.845,0,0,0,5.685.038,7.992,7.992,0,0,1,6.628.127,4.13,4.13,0,0,0,1.912.472c3.046,0,5.519-3.46,5.519-7.724A9.77,9.77,0,0,0,437.592,244.376Z" transform="translate(-179.996 -188.916)" fill="#e99629" opacity="0.1"/>
    <path id="Path_394" data-name="Path 394" d="M321.59,339.816a8.17,8.17,0,0,1,4.729.516,6.972,6.972,0,0,0,5.685,0,7.979,7.979,0,0,1,6.685.127,4.123,4.123,0,0,0,1.912.484c2.708,0,4.964-2.734,5.43-6.335a5.194,5.194,0,0,1-1.351-1.459,7.623,7.623,0,0,0-13.6-.045,5.22,5.22,0,0,1-4.5,2.473h-.07C324.362,335.59,322.489,337.318,321.59,339.816Z" transform="translate(-149.785 -223.087)" fill="#e99629" opacity="0.1"/>
    <path id="Path_395" data-name="Path 395" d="M307.987,322.819l4.384,2.779-2.664-4.831a4.327,4.327,0,0,1,2.651-.95h.07a5.429,5.429,0,0,0,.911-.064l1.485.937-.637-1.153a5.283,5.283,0,0,0,2.594-1.969l2.657,1.682-1.657-3.053a7.775,7.775,0,0,1,5.952-3.008,8.16,8.16,0,0,1,6.813,4.206,5.1,5.1,0,0,0,4.5,2.428h.153c3.046,0,5.519,3.46,5.519,7.724s-2.473,7.724-5.519,7.724a4.136,4.136,0,0,1-1.912-.478,7.953,7.953,0,0,0-6.685-.134,6.921,6.921,0,0,1-2.855.637,7.01,7.01,0,0,1-2.83-.6,7.979,7.979,0,0,0-6.621.127,4.13,4.13,0,0,1-1.912.472c-3.053,0-5.525-3.454-5.525-7.724A9.84,9.84,0,0,1,307.987,322.819Z" transform="translate(-144.441 -217.371)" fill="#e99629" opacity="0.1"/>
    <path id="Path_396" data-name="Path 396" d="M712.24,614.268c1.663-3.084-.223-6.857-2.39-9.6s-4.818-5.608-4.76-9.107c.083-5.028,5.423-8,9.687-10.668a47.35,47.35,0,0,0,8.7-7.01,12.826,12.826,0,0,0,2.67-3.582,14.485,14.485,0,0,0,.8-6.373q-.274-10.764-1.064-21.515" transform="translate(-288.887 -301.964)" fill="none" stroke="#3f3d56" stroke-miterlimit="10" stroke-width="4"/>
    <path id="Path_397" data-name="Path 397" d="M741.525,541.591a7.845,7.845,0,0,0-3.919-6.43l-1.759,3.473.057-4.206a7.845,7.845,0,1,0,5.621,7.163Z" transform="translate(-296.415 -297.502)" fill="#e99629"/>
    <path id="Path_398" data-name="Path 398" d="M720.054,622.7a7.845,7.845,0,0,1-14.81-3.186,7.646,7.646,0,0,1,.51-3.186,7.851,7.851,0,0,1,14.657.083l-4.9,3.989,5.391-1.275A7.8,7.8,0,0,1,720.054,622.7Z" transform="translate(-288.939 -325.513)" fill="#e99629"/>
    <path id="Path_399" data-name="Path 399" d="M717.734,596.342a7.845,7.845,0,0,1-2.485-15.39l-.045,3.231,1.778-3.518h0a7.847,7.847,0,0,1,.733,15.677Z" transform="translate(-290.494 -314.386)" fill="#e99629"/>
    <path id="Path_400" data-name="Path 400" d="M747.6,576.456a7.845,7.845,0,1,1,3.467-14.657l-1.383,3.824,2.823-2.791a7.845,7.845,0,0,1-4.932,13.619Z" transform="translate(-301.316 -307.175)" fill="#e99629"/>
    <path id="Path_401" data-name="Path 401" d="M740.46,546.13c-1.81.2-3.569.758-5.391.873a5.833,5.833,0,0,1-4.958-1.733,25.149,25.149,0,0,1-1.453-2.549,5.583,5.583,0,0,0-1.976-1.861,7.845,7.845,0,1,0,14.657,5.213C741.052,546.079,740.753,546.1,740.46,546.13Z" transform="translate(-296.408 -299.951)" opacity="0.1"/>
    <path id="Path_402" data-name="Path 402" d="M747.624,579.011a7.845,7.845,0,0,1-7.463-11.191,5.806,5.806,0,0,1,1.574,1.58,26.593,26.593,0,0,0,1.555,2.594,6.4,6.4,0,0,0,5.207,1.816c1.893-.1,3.722-.637,5.608-.8.261,0,.523-.038.79-.045a7.845,7.845,0,0,1-7.271,6.041Z" transform="translate(-301.335 -309.73)" opacity="0.1"/>
    <path id="Path_403" data-name="Path 403" d="M717.736,598.984a7.845,7.845,0,0,1-7.526-11.044,6.372,6.372,0,0,1,1.663,1.593,26.284,26.284,0,0,0,1.7,2.645,7.1,7.1,0,0,0,5.551,1.912c2-.083,3.824-.516,5.736-.637A7.858,7.858,0,0,1,717.736,598.984Z" transform="translate(-290.496 -317.028)" opacity="0.1"/>
    <path id="Path_404" data-name="Path 404" d="M720.054,625.543a7.845,7.845,0,0,1-14.81-3.186,7.646,7.646,0,0,1,.51-3.186,7.831,7.831,0,0,1,1.721,1.536c.746.9,1.236,1.912,2.1,2.785a9.8,9.8,0,0,0,6.494,2.281,32.953,32.953,0,0,0,3.983-.229Z" transform="translate(-288.939 -328.355)" opacity="0.1"/>
    <path id="Path_405" data-name="Path 405" d="M102.24,542.268c1.663-3.084-.223-6.857-2.39-9.6s-4.818-5.621-4.76-9.107c.083-5.028,5.423-8,9.687-10.668a47.354,47.354,0,0,0,8.7-7.01,12.829,12.829,0,0,0,2.67-3.582,14.485,14.485,0,0,0,.8-6.373q-.28-10.764-1.064-21.515" transform="translate(-67.629 -275.848)" fill="none" stroke="#3f3d56" stroke-miterlimit="10" stroke-width="4"/>
    <path id="Path_406" data-name="Path 406" d="M131.525,469.591a7.845,7.845,0,0,0-3.919-6.43l-1.759,3.473.057-4.206a7.845,7.845,0,1,0,5.621,7.163Z" transform="translate(-75.157 -271.386)" fill="#e99629"/>
    <path id="Path_407" data-name="Path 407" d="M110.054,550.7a7.845,7.845,0,0,1-14.81-3.186,7.648,7.648,0,0,1,.51-3.186,7.851,7.851,0,0,1,14.657.083l-4.9,3.989,5.391-1.275a7.8,7.8,0,0,1-.848,3.575Z" transform="translate(-67.681 -299.397)" fill="#e99629"/>
    <path id="Path_408" data-name="Path 408" d="M107.734,524.342a7.845,7.845,0,0,1-2.485-15.39l-.045,3.231,1.778-3.518h0a7.847,7.847,0,1,1,.733,15.677Z" transform="translate(-69.236 -288.27)" fill="#e99629"/>
    <path id="Path_409" data-name="Path 409" d="M137.6,504.456a7.845,7.845,0,1,1,3.467-14.657l-1.383,3.824,2.823-2.791a7.845,7.845,0,0,1-4.933,13.619Z" transform="translate(-80.058 -281.059)" fill="#e99629"/>
    <path id="Path_410" data-name="Path 410" d="M130.46,474.13c-1.81.2-3.569.758-5.391.873a5.833,5.833,0,0,1-4.958-1.733,25.161,25.161,0,0,1-1.453-2.549,5.583,5.583,0,0,0-1.976-1.861,7.845,7.845,0,1,0,14.658,5.213C131.052,474.079,130.753,474.1,130.46,474.13Z" transform="translate(-75.15 -273.835)" opacity="0.1"/>
    <path id="Path_411" data-name="Path 411" d="M137.624,507.011a7.845,7.845,0,0,1-7.463-11.191,5.805,5.805,0,0,1,1.574,1.58,26.586,26.586,0,0,0,1.555,2.594,6.4,6.4,0,0,0,5.207,1.816c1.893-.1,3.722-.637,5.608-.8.261,0,.523-.038.79-.045A7.845,7.845,0,0,1,137.624,507.011Z" transform="translate(-80.077 -283.614)" opacity="0.1"/>
    <path id="Path_412" data-name="Path 412" d="M107.736,526.984a7.845,7.845,0,0,1-7.526-11.044,6.372,6.372,0,0,1,1.663,1.593,26.279,26.279,0,0,0,1.7,2.645,7.1,7.1,0,0,0,5.551,1.912c2-.083,3.824-.516,5.736-.637A7.858,7.858,0,0,1,107.736,526.984Z" transform="translate(-69.238 -290.912)" opacity="0.1"/>
    <path id="Path_413" data-name="Path 413" d="M110.054,553.543a7.845,7.845,0,0,1-14.81-3.186,7.648,7.648,0,0,1,.51-3.186,7.833,7.833,0,0,1,1.721,1.536c.746.9,1.236,1.912,2.1,2.785a9.8,9.8,0,0,0,6.494,2.281,32.953,32.953,0,0,0,3.983-.229Z" transform="translate(-67.681 -302.24)" opacity="0.1"/>
    <path id="Path_414" data-name="Path 414" d="M504.137,459.905c-1.663-3.078.223-6.851,2.4-9.6s4.811-5.608,4.754-9.107c-.076-5.035-5.417-8-9.687-10.668a47.16,47.16,0,0,1-8.693-7.01,12.606,12.606,0,0,1-2.677-3.575,14.686,14.686,0,0,1-.8-6.373q.287-10.764,1.064-21.515" transform="translate(-210.656 -245.979)" fill="none" stroke="#3f3d56" stroke-miterlimit="10" stroke-width="4"/>
    <path id="Path_415" data-name="Path 415" d="M478.385,387.231a7.839,7.839,0,0,1,3.913-6.43l1.759,3.473-.051-4.206a8.044,8.044,0,0,1,2.581-.312,7.845,7.845,0,1,1-8.2,7.475Z" transform="translate(-206.655 -241.513)" fill="#e99629"/>
    <path id="Path_416" data-name="Path 416" d="M499.847,468.3a7.845,7.845,0,1,0-.376-6.315l4.9,3.989L498.98,464.7A7.8,7.8,0,0,0,499.847,468.3Z" transform="translate(-214.128 -269.488)" fill="#e99629"/>
    <path id="Path_417" data-name="Path 417" d="M502.164,441.982a7.845,7.845,0,0,0,2.492-15.39l.038,3.231-1.778-3.518h0a7.845,7.845,0,0,0-8.221,7.45,7.748,7.748,0,0,0,.338,2.677,7.838,7.838,0,0,0,7.131,5.551Z" transform="translate(-212.57 -258.396)" fill="#e99629"/>
    <path id="Path_418" data-name="Path 418" d="M472.272,422.076a7.845,7.845,0,1,0-3.473-14.658l1.389,3.824-2.855-2.734a7.781,7.781,0,0,0-2.549,5.417,7.589,7.589,0,0,0,.2,2.16,7.839,7.839,0,0,0,7.291,5.99Z" transform="translate(-201.721 -251.178)" fill="#e99629"/>
    <path id="Path_419" data-name="Path 419" d="M479.549,391.77c1.81.2,3.569.758,5.385.873a5.86,5.86,0,0,0,4.964-1.733,25.112,25.112,0,0,0,1.447-2.549,5.6,5.6,0,0,1,1.982-1.861,7.845,7.845,0,1,1-14.658,5.207C478.957,391.713,479.25,391.738,479.549,391.77Z" transform="translate(-206.761 -243.962)" opacity="0.1"/>
    <path id="Path_420" data-name="Path 420" d="M472.4,424.631a7.851,7.851,0,0,0,7.463-11.191,5.831,5.831,0,0,0-1.58,1.581,26.579,26.579,0,0,1-1.555,2.594,6.379,6.379,0,0,1-5.2,1.816c-1.893-.1-3.722-.637-5.608-.8-.261,0-.529-.038-.79-.045A7.839,7.839,0,0,0,472.4,424.631Z" transform="translate(-201.85 -253.733)" opacity="0.1"/>
    <path id="Path_421" data-name="Path 421" d="M502.365,444.624a7.839,7.839,0,0,0,7.526-11.044,6.264,6.264,0,0,0-1.657,1.593,26.269,26.269,0,0,1-1.7,2.645,7.118,7.118,0,0,1-5.557,1.912c-2.007-.083-3.824-.516-5.736-.637A7.839,7.839,0,0,0,502.365,444.624Z" transform="translate(-212.771 -261.039)" opacity="0.1"/>
    <path id="Path_422" data-name="Path 422" d="M500.34,471.183a7.845,7.845,0,0,0,14.307-6.373,7.534,7.534,0,0,0-1.721,1.536c-.746.9-1.275,1.912-2.1,2.785a9.82,9.82,0,0,1-6.5,2.281,34.384,34.384,0,0,1-3.983-.229Z" transform="translate(-214.621 -272.366)" opacity="0.1"/>
    <circle id="Ellipse_110" data-name="Ellipse 110" cx="63.703" cy="63.703" r="63.703" transform="translate(433.205 87.955)" fill="#3f3d56"/>
    <path id="Path_423" data-name="Path 423" d="M842.55,400.713a48.27,48.27,0,0,0-10.2-6.813c-3.053-1.466-4.174-1.44-6.335.121-1.8,1.275-2.963,2.5-5.028,2.052s-6.156-3.537-10.114-7.482-7.029-8.011-7.469-10.107.771-3.237,2.058-5.035c1.555-2.16,1.6-3.282.121-6.335-1.275-2.645-4.582-7.966-6.819-10.2s-2.721-1.74-3.945-1.275a22.811,22.811,0,0,0-3.613,1.912,10.9,10.9,0,0,0-4.334,4.582C786,364,785.017,367.453,790.1,376.5a80.1,80.1,0,0,0,14.084,18.781h0a80.22,80.22,0,0,0,18.844,14.109c9.037,5.1,12.5,4.085,14.358,3.218a10.7,10.7,0,0,0,4.576-4.333,22.507,22.507,0,0,0,1.912-3.613C844.29,403.434,844.787,402.937,842.55,400.713Z" transform="translate(-318.297 -232.626)" fill="#e99629"/>
    <path id="Path_424" data-name="Path 424" d="M795.44,300.86a63.728,63.728,0,1,0,63.7,63.707A63.728,63.728,0,0,0,795.44,300.86Zm0,118.93a55.233,55.233,0,1,1,55.233-55.233A55.233,55.233,0,0,1,795.44,419.79Z" transform="translate(-298.532 -212.899)" opacity="0.1"/>
    <circle id="Ellipse_111" data-name="Ellipse 111" cx="63.703" cy="63.703" r="63.703" transform="translate(286.853 184.713)" fill="#3f3d56"/>
    <path id="Path_425" data-name="Path 425" d="M617.33,522.363l-19.074,19.405a.344.344,0,0,0,0,.5L611.639,556.5a2.3,2.3,0,1,1-3.257,3.256l-13.313-14.18a.363.363,0,0,0-.51,0l-3.244,3.276a14.256,14.256,0,0,1-10.2,4.289,14.568,14.568,0,0,1-10.375-4.41l-3.116-3.186a.363.363,0,0,0-.51,0l-13.281,14.148a2.3,2.3,0,1,1-3.256-3.257l13.332-14.2a.382.382,0,0,0,0-.5l-19.074-19.405a.351.351,0,0,0-.6.248v38.83a5.685,5.685,0,0,0,5.665,5.665h62.371a5.684,5.684,0,0,0,5.665-5.666v-38.8a.351.351,0,0,0-.612-.249Z" transform="translate(-230.544 -293.193)" fill="#e99629"/>
    <path id="Path_426" data-name="Path 426" d="M582.337,545.049a9.648,9.648,0,0,0,6.959-2.868L617.076,513.9a5.544,5.544,0,0,0-3.505-1.275H551.155a5.506,5.506,0,0,0-3.505,1.275l27.785,28.276A9.61,9.61,0,0,0,582.337,545.049Z" transform="translate(-231.781 -289.711)" fill="#e99629"/>
    <path id="Path_427" data-name="Path 427" d="M564.53,452.69a63.728,63.728,0,1,0,63.7,63.707A63.728,63.728,0,0,0,564.53,452.69Zm0,118.93a55.233,55.233,0,1,1,55.233-55.233A55.233,55.233,0,0,1,564.53,571.62Z" transform="translate(-214.777 -267.97)" opacity="0.1"/>
    <circle id="Ellipse_112" data-name="Ellipse 112" cx="63.703" cy="63.703" r="63.703" transform="translate(135.671 137.14)" fill="#3f3d56"/>
    <path id="Path_428" data-name="Path 428" d="M350.4,430.16,325,488.752l2.371,2.371L350.4,480.964l23.031,10.158,2.371-2.371Z" transform="translate(-151.022 -259.798)" fill="#e99629"/>
    <path id="Path_429" data-name="Path 429" d="M328.56,378a63.691,63.691,0,1,0,.011,0Zm0,118.93a45.5,45.5,0,1,1,.006.026Z" transform="translate(-129.186 -240.879)" opacity="0.1"/>
    <path id="Path_430" data-name="Path 430" d="M823.616,588.131q-.867-2.116-1.778-4.219a12.524,12.524,0,0,0-2.173-3.754,3.977,3.977,0,0,0-1.275-.956,5.437,5.437,0,0,0-1.663-.331,13.278,13.278,0,0,0-2.613-.07c-.338-.1-.72-.236-1.1-.389a9.1,9.1,0,0,0,6.781-8.444c0-.127,0-.261,0-.389a9.081,9.081,0,0,0-9.043-9.12,8.922,8.922,0,0,0-4.748,1.357,8.52,8.52,0,0,0-9.559,4.607,10.535,10.535,0,0,0-3.25,7.839c0,.134,0,.274,0,.4.166,4.952,3.365,8.922,7.405,9.323a4.244,4.244,0,0,0-1.173.784c-1.236,1.192-1.44,3.084-1.574,4.805l-.1,1.275-2.141.765a.4.4,0,0,0-.1.695l2.046,1.459v.363a1.594,1.594,0,0,0,.038.414,2.925,2.925,0,0,0-.79,1.128,5.212,5.212,0,0,0-.185,2.065l.076,1.778a13.965,13.965,0,0,0,.542,3.957c.268.79,1.428,2.7,2.262,2.708a82.45,82.45,0,0,0-.975,10.9c-.1.1.172.185.637.261.459,3.518,1.956,13.383,4.614,17.723a37.382,37.382,0,0,1,1,4.308s.758,9.374,1.759,12.159c.854,2.371,1.53,8.221,1.714,9.916a.975.975,0,0,0-.707.727c-.5,1.517-3.766,3.824-3.766,3.824a15.781,15.781,0,0,0-2.817,1.8c-1.026.924-.988,1.759,3.569,1.236,8.794-1.013,10.3-3.824,10.3-3.824s-.14-.472-.351-1.083a11.763,11.763,0,0,0-1.153-2.721c-.128-.121-.255.083-.408.4a54.571,54.571,0,0,1-.6-12.306,19.967,19.967,0,0,0-1.007-7.348,13.912,13.912,0,0,1,0-4.812c.5-2.026-2.008-11.911-2.008-11.911l-1.44-7.278a2.09,2.09,0,0,1,.4.848l.038.147.038.21a.4.4,0,0,0,.1.2c.981,4.079,3.671,15.378,3.671,17.034,0,2.027,2.511,7.093,2.511,7.093s1,8.361,2.759,11.649c1.338,2.5,1.37,6.175,1.306,7.794h0a7.218,7.218,0,0,1-.8,2.587,6.157,6.157,0,0,0-.95,1.651l-.057.121s-.752,1.523-.249,1.778a12.345,12.345,0,0,0,6.029.758s1.007-1.275,1.007-1.772a7.987,7.987,0,0,0-.115-.9c-.185-1.2-.529-3.084-.535-3.1.21-.816-.637-3.084-.637-3.084l-.255-7.093a32.744,32.744,0,0,0-1.759-14.192s-1.275-4.557-1-5.825-.5-14.7-.5-14.7l-.076-.191a14.518,14.518,0,0,1,.076-2.849,37.84,37.84,0,0,0-1.007-9.623,8.348,8.348,0,0,1-.357-2.1c.057-.529.229-2.078.465-4a71.944,71.944,0,0,0,7.405-.637.924.924,0,0,0,.637-.255.892.892,0,0,0,.147-.516C826.458,595.37,825.063,591.661,823.616,588.131Zm-5.054,8.036c.261-1.816.542-3.575.822-4.882l.038.115a35.454,35.454,0,0,1,1.211,4.015A13.656,13.656,0,0,1,818.563,596.167Z" transform="translate(-320.845 -307.06)" fill="url(#linear-gradient)"/>
    <path id="Path_431" data-name="Path 431" d="M802.37,648.4s1.5,13.529,4.76,18.787a36.476,36.476,0,0,1,1,4.257s.752,9.266,1.753,12.019,1.753,10.273,1.753,10.273,3.505,4,4.76.752a52.78,52.78,0,0,1-.752-13.026,19.617,19.617,0,0,0-1-7.265,13.586,13.586,0,0,1,0-4.754c.5-2.008-2.008-11.771-2.008-11.771l-2-9.77Z" transform="translate(-324.173 -338.776)" fill="#be6f72"/>
    <path id="Path_432" data-name="Path 432" d="M818.952,722.768s-1.5,2.753-10.267,3.754c-4.55.516-4.582-.306-3.556-1.224a15.866,15.866,0,0,1,2.8-1.784s3.257-2.25,3.754-3.754,2.256-.249,2.256-.249c2.5,3.754,3.008-1.007,3.505-.5a11.3,11.3,0,0,1,1.153,2.683C818.811,722.3,818.952,722.768,818.952,722.768Z" transform="translate(-324.975 -364.555)" fill="#ff6f61"/>
    <path id="Path_433" data-name="Path 433" d="M818.952,724.317s-1.5,2.753-10.267,3.754c-4.55.516-4.582-.306-3.556-1.224.714.452,2.154.637,5.054-.529,4.174-1.708,7.2-2.7,8.418-3.078C818.811,723.845,818.952,724.317,818.952,724.317Z" transform="translate(-324.975 -366.104)" opacity="0.1"/>
    <path id="Path_434" data-name="Path 434" d="M819.362,681.459a19.618,19.618,0,0,0-1-7.265,13.586,13.586,0,0,1,0-4.754c.5-2.007-2.007-11.771-2.007-11.771l-2-9.77-1.733.1,1.982,9.667s2.5,9.763,2.007,11.771a13.586,13.586,0,0,0,0,4.754,19.045,19.045,0,0,1,1,7.265,52.774,52.774,0,0,0,.752,13.026,2.193,2.193,0,0,1-.727,1.032,1.637,1.637,0,0,0,2.479-1.032A52.78,52.78,0,0,1,819.362,681.459Z" transform="translate(-327.891 -338.776)" opacity="0.1"/>
    <path id="Path_435" data-name="Path 435" d="M810.66,562.42a8.923,8.923,0,0,0-4.729,1.345,8.508,8.508,0,0,0-9.559,4.557,10.375,10.375,0,0,0-3.244,7.749c0,5.328,3.588,9.642,8.011,9.642,3.186,0,5.978-2.269,7.259-5.551a8.792,8.792,0,0,0,2.256.293,9.018,9.018,0,1,0,0-18.035Z" transform="translate(-320.82 -307.771)" fill="#3f3d56"/>
    <path id="Path_436" data-name="Path 436" d="M826.516,650.65l.752,2s.752,13.275.5,14.53,1.007,5.735,1.007,5.735a32.061,32.061,0,0,1,1.753,14.02l.249,7.01s1,2.753.5,3.257-4.276-.446-4.276-.446.5-5.258-1.275-8.514-2.753-11.522-2.753-11.522-2.5-5.009-2.5-7.01-4.008-18.284-4.008-18.284Z" transform="translate(-329.284 -339.774)" fill="#be6f72"/>
    <path id="Path_437" data-name="Path 437" d="M801.569,641.286s.255-9.018,1.275-11.771a18.689,18.689,0,0,0,1.115-4s15.161,2.74,16.416,1.74a21.749,21.749,0,0,0,.5,3.754,36.015,36.015,0,0,1,1,9.521c-.274,3.008,0,3,0,3s-10.273,1.5-10.522,0-1-1.5-1-1.5S801.072,641.758,801.569,641.286Z" transform="translate(-323.875 -330.659)" fill="#3f3d56"/>
    <g id="Group_29" data-name="Group 29" transform="translate(477.694 296.601)" opacity="0.1">
      <path id="Path_438" data-name="Path 438" d="M809.845,649.966s-6.335-.172-8.246-.516v.516c-.5.5,8.769.752,8.769.752a.637.637,0,0,1,.344.14C810.374,649.966,809.845,649.966,809.845,649.966Z" transform="translate(-801.58 -635.94)"/>
      <path id="Path_439" data-name="Path 439" d="M826.387,632a21.748,21.748,0,0,1-.5-3.754,1.079,1.079,0,0,1-.427.153,12.659,12.659,0,0,0,.427,2.849,39.779,39.779,0,0,1,1,9.521c-.274,3.008,0,3,0,3s-8.125,1.192-10.095.4a3.012,3.012,0,0,0,.077.357c.249,1.5,10.521,0,10.521,0s-.255,0,0-3A37.23,37.23,0,0,0,826.387,632Z" transform="translate(-807.097 -628.25)"/>
      <path id="Path_440" data-name="Path 440" d="M809.845,649.966s-6.335-.172-8.246-.516v.516c-.5.5,8.769.752,8.769.752a.637.637,0,0,1,.344.14C810.374,649.966,809.845,649.966,809.845,649.966Z" transform="translate(-801.58 -635.94)"/>
      <path id="Path_441" data-name="Path 441" d="M826.387,632a21.748,21.748,0,0,1-.5-3.754,1.079,1.079,0,0,1-.427.153,12.659,12.659,0,0,0,.427,2.849,39.779,39.779,0,0,1,1,9.521c-.274,3.008,0,3,0,3s-8.125,1.192-10.095.4a3.012,3.012,0,0,0,.077.357c.249,1.5,10.521,0,10.521,0s-.255,0,0-3A37.23,37.23,0,0,0,826.387,632Z" transform="translate(-807.097 -628.25)"/>
    </g>
    <path id="Path_442" data-name="Path 442" d="M815.831,585.714a3.32,3.32,0,0,0,.956,1.236,2.142,2.142,0,0,0,.9.389c-.561.325-1.173.567-1.733.892a30.84,30.84,0,0,0-2.549,1.912,5.186,5.186,0,0,1-2.925,1.134,3.581,3.581,0,0,0,.408-3.562,3.329,3.329,0,0,1-.446-1.236,2.221,2.221,0,0,1,1.23-1.657c.478-.325.969-.637,1.466-.95.389-.242.975-.752,1.466-.733s.548.452.637.9A7.066,7.066,0,0,0,815.831,585.714Z" transform="translate(-327.1 -315.286)" fill="#be6f72"/>
    <path id="Path_443" data-name="Path 443" d="M815.831,585.714a3.32,3.32,0,0,0,.956,1.236,2.142,2.142,0,0,0,.9.389c-.561.325-1.173.567-1.733.892a30.84,30.84,0,0,0-2.549,1.912,5.186,5.186,0,0,1-2.925,1.134,3.581,3.581,0,0,0,.408-3.562,3.329,3.329,0,0,1-.446-1.236,2.221,2.221,0,0,1,1.23-1.657c.478-.325.969-.637,1.466-.95.389-.242.975-.752,1.466-.733s.548.452.637.9A7.066,7.066,0,0,0,815.831,585.714Z" transform="translate(-327.1 -315.286)" opacity="0.1"/>
    <circle id="Ellipse_113" data-name="Ellipse 113" cx="5.761" cy="5.761" r="5.761" transform="translate(488.84 273.684)" fill="#be6f72"/>
    <path id="Path_444" data-name="Path 444" d="M836.791,726.249c0,.5-1,1.753-1,1.753a12.4,12.4,0,0,1-6.01-.752c-.5-.249.249-1.752.249-1.752l.057-.121a6.078,6.078,0,0,1,.95-1.631,7.131,7.131,0,0,0,.8-2.549c1.555-2.549,4.314,1.1,4.314,1.1s.35,1.912.535,3.072A8.757,8.757,0,0,1,836.791,726.249Z" transform="translate(-334.052 -365.034)" fill="#ff6f61"/>
    <path id="Path_445" data-name="Path 445" d="M836.791,729.132c0,.5-1,1.753-1,1.753a12.4,12.4,0,0,1-6.01-.752c-.5-.248.249-1.752.249-1.752l.057-.121a12.11,12.11,0,0,0,5.455,1.122l1.141-1.141C836.747,728.667,836.791,729,836.791,729.132Z" transform="translate(-334.052 -367.917)" opacity="0.1"/>
    <circle id="Ellipse_114" data-name="Ellipse 114" cx="5.634" cy="5.634" r="5.634" transform="translate(477.445 261.786)" fill="#be6f72"/>
    <path id="Path_446" data-name="Path 446" d="M801.861,599.282c-1.236,1.179-1.44,3.046-1.568,4.748l-.191,2.492a12.58,12.58,0,0,0-.045,2.02c0,.414.1.835.14,1.275s.051.994.057,1.5V615a4.346,4.346,0,0,0,.408,2.211,1.5,1.5,0,0,0,1.912.688,2.18,2.18,0,0,0,.79-1.224,19.022,19.022,0,0,0,1.275-4.665c.051-.554.057-1.109.108-1.663s.147-1.134.229-1.7c.357-2.345.516-4.716.676-7.08.045-.7.676-3.46-.242-3.766-.446-.147-1.37.312-1.8.465a5.06,5.06,0,0,0-1.752,1.013Z" transform="translate(-323.326 -320.595)" fill="#be6f72"/>
    <path id="Path_447" data-name="Path 447" d="M801.861,599.282c-1.236,1.179-1.44,3.046-1.568,4.748l-.191,2.492a12.58,12.58,0,0,0-.045,2.02c0,.414.1.835.14,1.275s.051.994.057,1.5V615a4.346,4.346,0,0,0,.408,2.211,1.5,1.5,0,0,0,1.912.688,2.18,2.18,0,0,0,.79-1.224,19.022,19.022,0,0,0,1.275-4.665c.051-.554.057-1.109.108-1.663s.147-1.134.229-1.7c.357-2.345.516-4.716.676-7.08.045-.7.676-3.46-.242-3.766-.446-.147-1.37.312-1.8.465a5.06,5.06,0,0,0-1.752,1.013Z" transform="translate(-323.326 -320.595)" opacity="0.1"/>
    <path id="Path_448" data-name="Path 448" d="M815.151,588.16s-4.257,3.257-6.761,4.008c0,0-1.485,1.7-1.74,2.1s-.765,4.907-1.275,5.914-1.752,3.257,0,5.506a9.547,9.547,0,0,1,.249,3.008c-.249.752-1.16,3.505-.331,3.633s3.339,1.874,5.589,1.377,10.649,1.912,10.649,1.912,1.389-12.9,2.4-15.186l-2.256-.752s-6.258-3.754-2.5-9.515C819.159,590.167,815.641,589.415,815.151,588.16Z" transform="translate(-324.935 -317.108)" fill="#ff6f61"/>
    <path id="Path_449" data-name="Path 449" d="M796.749,610.906l5.175,3.664a.383.383,0,0,0,.453,0l1.4-1.052a.4.4,0,0,0,0-.6l-3.983-3.537a.382.382,0,0,0-.389-.076l-2.556.918a.389.389,0,0,0-.1.682Z" transform="translate(-322.076 -324.769)" fill="#3f3d56"/>
    <path id="Path_450" data-name="Path 450" d="M799.2,623.537a13.87,13.87,0,0,1-.542-3.907l-.076-1.765a5.1,5.1,0,0,1,.185-2.039,3.333,3.333,0,0,1,2.148-1.88,7.417,7.417,0,0,1,2.925-.21.752.752,0,0,1,.376.1.7.7,0,0,1,.2.344,2.307,2.307,0,0,1,.115,1.842,1.91,1.91,0,0,1-.586.605c-.695.5-1.5.828-2.16,1.37a.783.783,0,0,0-.293.37.862.862,0,0,0,0,.4,6.423,6.423,0,0,0,.331,1.026,1.012,1.012,0,0,0,.287.433c.121.1.28.14.408.236.274.223.848.516.816.867a28.563,28.563,0,0,1-1.16,3.964C801.6,627.762,799.57,624.614,799.2,623.537Z" transform="translate(-322.787 -326.363)" fill="#be6f72"/>
    <g id="Group_30" data-name="Group 30" transform="translate(484.321 282.95)" opacity="0.1">
      <path id="Path_451" data-name="Path 451" d="M812.12,628.216h-.14a4.289,4.289,0,0,0,1.638,0h.159a5.738,5.738,0,0,0-1.657,0Z" transform="translate(-811.98 -614.565)"/>
      <path id="Path_452" data-name="Path 452" d="M831.43,606.83c-.9,2.02-2.224,12.962-2.46,15.135.879.229,1.459.4,1.459.4s1.377-12.873,2.383-15.155Z" transform="translate(-818.143 -606.83)"/>
    </g>
    <path id="Path_453" data-name="Path 453" d="M822.431,597.7a1.912,1.912,0,0,0,.822,1.243,11.032,11.032,0,0,1,1.459,1.479,10.471,10.471,0,0,1,1.447,2.9,35.538,35.538,0,0,1,1.2,3.964c-3.186,1.478-6.806,1.408-10.2,2.383a8.138,8.138,0,0,0-3.824,2.262,5.27,5.27,0,0,0-1.408,4.149.434.434,0,0,0,.523.427,3.823,3.823,0,0,0,2.339-.8,11.133,11.133,0,0,0,1.791-1.759,2.881,2.881,0,0,1,1.275-.943,20.859,20.859,0,0,1,5.735-.561,72.271,72.271,0,0,0,8.546-.676.688.688,0,0,0,.765-.765c.28-3.76-1.115-7.431-2.549-10.917q-.86-2.1-1.772-4.174a12.366,12.366,0,0,0-2.167-3.709,3.825,3.825,0,0,0-1.275-.943,5.391,5.391,0,0,0-1.708-.319,12.11,12.11,0,0,0-2.8-.051,5.959,5.959,0,0,0-.268,1.447,12.532,12.532,0,0,0,1.542,4.888C822.01,597.458,822.284,597.47,822.431,597.7Z" transform="translate(-327.632 -318.076)" fill="#be6f72"/>
    <path id="Path_454" data-name="Path 454" d="M812.047,606.67a4.67,4.67,0,0,0-.637,2.434,3.277,3.277,0,0,0,.159.994,3.224,3.224,0,0,0,2.033,1.912" transform="translate(-327.451 -323.822)" fill="none" stroke="#000" stroke-miterlimit="10" stroke-width="1" opacity="0.1"/>
    <path id="Path_455" data-name="Path 455" d="M810.935,572.677a2.924,2.924,0,0,0-.924.147c-.835-1.275-2.8-2.154-5.1-2.154-3.046,0-5.512,1.574-5.512,3.511s2.466,3.505,5.512,3.505a7.755,7.755,0,0,0,3.307-.7,3,3,0,1,0,2.7-4.308Z" transform="translate(-323.096 -310.764)" fill="#3f3d56"/>
    <path id="Path_456" data-name="Path 456" d="M811.176,579.306a3,3,0,0,1-2.7-1.7,7.756,7.756,0,0,1-3.307.7c-3.04,0-5.506-1.568-5.506-3.505a2.1,2.1,0,0,1,0-.351,2.376,2.376,0,0,0-.28,1.1c0,1.912,2.466,3.505,5.513,3.505a7.756,7.756,0,0,0,3.307-.7,3,3,0,0,0,5.653-.746A2.989,2.989,0,0,1,811.176,579.306Z" transform="translate(-323.088 -312.135)" opacity="0.1"/>
    <path id="Path_457" data-name="Path 457" d="M796.364,569.8a8.508,8.508,0,0,1,9.559-4.557,9.011,9.011,0,0,1,13.714,6.921v-.752a9.011,9.011,0,0,0-13.746-7.647,8.508,8.508,0,0,0-9.559,4.557,10.375,10.375,0,0,0-3.244,7.749v.752A10.2,10.2,0,0,1,796.364,569.8Z" transform="translate(-320.806 -307.771)" opacity="0.1"/>
    <path id="Path_458" data-name="Path 458" d="M884.32,538.381c1.663-3.078-.223-6.857-2.4-9.6s-4.811-5.6-4.754-9.107c.076-5.028,5.417-8,9.687-10.668a47.1,47.1,0,0,0,8.693-7.01,12.7,12.7,0,0,0,2.677-3.575,14.686,14.686,0,0,0,.8-6.373q-.28-10.77-1.064-21.515" transform="translate(-351.304 -274.441)" fill="none" stroke="#3f3d56" stroke-miterlimit="10" stroke-width="4"/>
    <path id="Path_459" data-name="Path 459" d="M913.595,465.674a7.833,7.833,0,0,0-3.913-6.424l-1.759,3.473.051-4.206a7.7,7.7,0,0,0-2.581-.312,7.845,7.845,0,1,0,8.2,7.469Z" transform="translate(-358.828 -269.967)" fill="#e99629"/>
    <path id="Path_460" data-name="Path 460" d="M892.134,546.753a7.845,7.845,0,1,1,.376-6.322l-4.9,3.989L893,543.146a7.8,7.8,0,0,1-.867,3.607Z" transform="translate(-351.356 -297.942)" fill="#e99629"/>
    <path id="Path_461" data-name="Path 461" d="M889.81,520.426a7.845,7.845,0,0,1-2.492-15.39l-.038,3.231,1.778-3.511h0a7.847,7.847,0,1,1,.733,15.677Z" transform="translate(-352.906 -286.852)" fill="#e99629"/>
    <path id="Path_462" data-name="Path 462" d="M919.678,500.546a7.845,7.845,0,1,1,3.473-14.657l-1.389,3.824,2.855-2.74a7.8,7.8,0,0,1,2.549,5.417,7.576,7.576,0,0,1-.2,2.16A7.845,7.845,0,0,1,919.678,500.546Z" transform="translate(-363.732 -279.641)" fill="#e99629"/>
    <path id="Path_463" data-name="Path 463" d="M912.538,470.21c-1.81.2-3.575.765-5.391.879a5.845,5.845,0,0,1-4.964-1.74,24.341,24.341,0,0,1-1.447-2.549,5.64,5.64,0,0,0-1.976-1.861,7.845,7.845,0,1,0,14.657,5.207C913.125,470.159,912.832,470.178,912.538,470.21Z" transform="translate(-358.823 -272.413)" opacity="0.1"/>
    <path id="Path_464" data-name="Path 464" d="M919.7,503.1a7.851,7.851,0,0,1-7.463-11.191,5.806,5.806,0,0,1,1.581,1.574,25.146,25.146,0,0,0,1.555,2.594,6.383,6.383,0,0,0,5.2,1.823c1.893-.089,3.722-.637,5.608-.8.261,0,.529-.045.79-.051A7.845,7.845,0,0,1,919.7,503.1Z" transform="translate(-363.75 -282.196)" opacity="0.1"/>
    <path id="Path_465" data-name="Path 465" d="M889.81,523.057A7.839,7.839,0,0,1,882.284,512a6.467,6.467,0,0,1,1.657,1.593c.637.86.988,1.855,1.7,2.645a7.262,7.262,0,0,0,5.557,1.95c2.007-.045,3.824-.523,5.736-.669A7.845,7.845,0,0,1,889.81,523.057Z" transform="translate(-352.907 -289.483)" opacity="0.1"/>
    <path id="Path_466" data-name="Path 466" d="M892.159,549.633a7.851,7.851,0,0,1-14.307-6.373,7.686,7.686,0,0,1,1.721,1.536c.752.911,1.243,1.912,2.1,2.791a9.854,9.854,0,0,0,6.5,2.281A34.389,34.389,0,0,0,892.159,549.633Z" transform="translate(-351.381 -300.822)" opacity="0.1"/>
    <path id="Path_467" data-name="Path 467" d="M1043.32,690.381c1.663-3.078-.223-6.857-2.4-9.6s-4.811-5.6-4.754-9.107c.076-5.028,5.417-8,9.687-10.668a47.093,47.093,0,0,0,8.693-7.01,12.7,12.7,0,0,0,2.677-3.575,14.684,14.684,0,0,0,.8-6.373q-.274-10.77-1.064-21.515" transform="translate(-408.976 -329.574)" fill="none" stroke="#3f3d56" stroke-miterlimit="10" stroke-width="4"/>
    <path id="Path_468" data-name="Path 468" d="M1072.613,617.674a7.832,7.832,0,0,0-3.913-6.424l-1.759,3.473.051-4.206a7.7,7.7,0,0,0-2.549-.312,7.845,7.845,0,1,0,8.2,7.469Z" transform="translate(-416.518 -325.101)" fill="#e99629"/>
    <path id="Path_469" data-name="Path 469" d="M1051.134,698.753a7.845,7.845,0,1,1,.376-6.322l-4.9,3.989,5.391-1.275a7.8,7.8,0,0,1-.867,3.607Z" transform="translate(-409.028 -353.075)" fill="#e99629"/>
    <path id="Path_470" data-name="Path 470" d="M1048.81,672.426a7.845,7.845,0,0,1-2.492-15.39l-.038,3.231,1.778-3.511h0a7.847,7.847,0,1,1,.733,15.677Z" transform="translate(-410.579 -341.985)" fill="#e99629"/>
    <path id="Path_471" data-name="Path 471" d="M1078.678,652.546a7.845,7.845,0,1,1,3.473-14.657l-1.389,3.824,2.855-2.74a7.8,7.8,0,0,1,2.549,5.417,7.581,7.581,0,0,1-.2,2.16A7.845,7.845,0,0,1,1078.678,652.546Z" transform="translate(-421.404 -334.774)" fill="#e99629"/>
    <path id="Path_472" data-name="Path 472" d="M1071.539,622.21c-1.81.2-3.575.765-5.391.879a5.845,5.845,0,0,1-4.965-1.74,24.328,24.328,0,0,1-1.447-2.549,5.64,5.64,0,0,0-1.976-1.861,7.845,7.845,0,1,0,14.657,5.207C1072.125,622.159,1071.832,622.178,1071.539,622.21Z" transform="translate(-416.496 -327.547)" opacity="0.1"/>
    <path id="Path_473" data-name="Path 473" d="M1078.7,655.1a7.851,7.851,0,0,1-7.463-11.191,5.806,5.806,0,0,1,1.581,1.574,25.158,25.158,0,0,0,1.555,2.594,6.383,6.383,0,0,0,5.2,1.823c1.893-.089,3.722-.637,5.608-.8.261,0,.529-.045.79-.051A7.845,7.845,0,0,1,1078.7,655.1Z" transform="translate(-421.423 -337.329)" opacity="0.1"/>
    <path id="Path_474" data-name="Path 474" d="M1048.811,675.057A7.839,7.839,0,0,1,1041.284,664a6.47,6.47,0,0,1,1.657,1.593c.637.86.988,1.854,1.7,2.645a7.262,7.262,0,0,0,5.557,1.95c2.007-.045,3.824-.523,5.735-.669A7.845,7.845,0,0,1,1048.811,675.057Z" transform="translate(-410.579 -344.616)" opacity="0.1"/>
    <path id="Path_475" data-name="Path 475" d="M1051.159,701.633a7.851,7.851,0,0,1-14.307-6.373,7.688,7.688,0,0,1,1.721,1.536c.752.911,1.275,1.912,2.1,2.791a9.853,9.853,0,0,0,6.5,2.281,34.377,34.377,0,0,0,3.983-.236Z" transform="translate(-409.053 -355.955)" opacity="0.1"/>
    <path id="Path_476" data-name="Path 476" d="M481.368,577.725a6.251,6.251,0,0,0-2.492-5.047,7.329,7.329,0,0,0-6.124-7.189,7.316,7.316,0,0,0-4.875-5.449h0a6.22,6.22,0,0,0-.9-.21H465.9a7.176,7.176,0,0,0-6.934,6.131c-2.237-.516-4.283.153-4.659,1.568a1.912,1.912,0,0,0,.064,1.134,4.932,4.932,0,0,0,3.288,2.664l.217.064.325.083h.07a5.633,5.633,0,0,0-.535,2.415,5.57,5.57,0,0,0,3,4.971l-.147.089a1.988,1.988,0,0,0-.484.676,10.1,10.1,0,0,0-.937,2.256c-.159.676-.185,1.377-.382,2.046-.37,1.23-1.313,2.269-1.421,3.55-.051.574.045,1.275-.363,1.644a1.989,1.989,0,0,1-.325.229,2.631,2.631,0,0,0-.707.746,2.473,2.473,0,0,1-.5.714c-.37.274-.975.249-1.153.676s.287.93.178,1.4-.5.554-.79.816a2.836,2.836,0,0,0-.682,1.275,4.18,4.18,0,0,1-3.441-.879,6.433,6.433,0,0,1,.357,1.275,5.582,5.582,0,0,0-1.854-.93,5.855,5.855,0,0,1-1.976-1.466l1.058-.147-4.671-7.131-1.383-.287,1.236,2.377a.758.758,0,0,0-.421.5,2.161,2.161,0,0,0-.045.809,14.492,14.492,0,0,0,.319,1.912l.357,1.67c.032.153.07.312.115.465a4.39,4.39,0,0,0-1.383.153,12.033,12.033,0,0,0-2.874-.682,1.592,1.592,0,0,0-.637,0,1.65,1.65,0,0,0-.605.491,19.605,19.605,0,0,0-2.135,3.008c-2.549,4.372-5.869,8.189-9.011,12.14-2.167.879-4.353,1.714-6.539,2.549l-4.7,1.8a7.132,7.132,0,0,1-2.919.637c-.446,0-1-.1-1.275.287a2.681,2.681,0,0,0-.287.637l-.484.051h0a5.57,5.57,0,0,0-1.128-2.078.714.714,0,0,0-.529.408c-.115.21-.185.44-.319.637-.249.37-.688.548-1,.86s-.51.8-.854,1.115a3.377,3.377,0,0,1-1.6.637,10.1,10.1,0,0,0-2.5.95,4.033,4.033,0,0,1-.924.427,3.473,3.473,0,0,1-1.09.038l-2.485-.185a1.962,1.962,0,0,0-.669.032,1.275,1.275,0,0,0-.79,1.275,2.007,2.007,0,0,0,.79,1.37,5.059,5.059,0,0,0,1.415.733,41.523,41.523,0,0,0,6.628,1.963v.5a11.311,11.311,0,0,0,5.1,1.211.791.791,0,0,0,.382-.07.841.841,0,0,0,.319-.5,20.5,20.5,0,0,0,.994-4.882h0a2.549,2.549,0,0,0,.9-.229c.854-.236,1.708.35,2.594.446,1.09.121,2.1-.516,3.129-.9l.446-.147a4.893,4.893,0,0,1-1.032.988c-.427.306-.9.535-1.319.854a9.078,9.078,0,0,1-1.122.867,7.028,7.028,0,0,1-.86.331,5.678,5.678,0,0,0-1.23.637,2.492,2.492,0,0,0-.835.816,1.223,1.223,0,0,0-.07,1.147,1.211,1.211,0,0,0,.822.574,3.373,3.373,0,0,0,1.013,0c1.351-.1,2.7-.223,4.04-.344a10.773,10.773,0,0,0,1.689-.242c.293-.07.586-.166.879-.249a7.846,7.846,0,0,1,1.536-.229,1.274,1.274,0,0,1,.446.045c.312.1.535.421.854.484a1.274,1.274,0,0,0,.637-.083,14.216,14.216,0,0,1,2.989-.319,1.234,1.234,0,0,0,1.16-.516c.2-.408-.166-1.064-.331-1.606a4.919,4.919,0,0,1-.14-1.058,6.623,6.623,0,0,0-.739-2.511,6.55,6.55,0,0,1-.555-1.147,28.981,28.981,0,0,0,5.5-2.791,9.834,9.834,0,0,1,3.135-1.51,8.527,8.527,0,0,1,3.938.459,89.6,89.6,0,0,1,9.03,3.148c1.408.58,2.81,1.192,4.263,1.631a6.647,6.647,0,0,0,1.517,1.472,7.01,7.01,0,0,0,3.282.9,43,43,0,0,0,4.62.172,7.794,7.794,0,0,0,3.441-.637,3.536,3.536,0,0,0,.72-.478,2.855,2.855,0,0,0,2.269-.835,5.5,5.5,0,0,0,1.727-2.728c.376-1.453.089-3.186.981-4.346.236-.319.548-.574.784-.892a2.511,2.511,0,0,0,.408-1.472.3.3,0,0,1,.038-.057,5.4,5.4,0,0,0,.382-1.466,8.387,8.387,0,0,1,.414-1.16,35.807,35.807,0,0,0,1.185-3.435,20.068,20.068,0,0,0,.548-2.358c.1-.637.153-1.275.2-1.912a11.872,11.872,0,0,1,.58-2.951,24.013,24.013,0,0,0,1.338-7.061v-.14A4.735,4.735,0,0,0,480.954,583a5.028,5.028,0,0,0-.44-2.058,6.372,6.372,0,0,0,.854-3.212Zm-22.8,27.7c.07.249.153.491.236.733-.376-.363-.739-.739-1.115-1.109.147.051.3.1.44.153a2.373,2.373,0,0,1,.421.223Zm-1.8-1.224c-2.205-1.912-4.754-3.4-7.01-5.251,1.23.605,2.428,1.313,3.613,1.988q2.109,1.2,4.276,2.313a3.5,3.5,0,0,1-.9.95Zm.937-4.818.108-.108v.758l-.593-.2a5.281,5.281,0,0,0,.465-.446Zm-19.392,5.162a18.245,18.245,0,0,0,2.345-3.346,22.524,22.524,0,0,0,3.5,3.907C442.207,604.86,440.257,604.65,438.307,604.548Z" transform="translate(-176.748 -306.832)" fill="url(#linear-gradient-2)"/>
    <path id="Path_477" data-name="Path 477" d="M415.35,438.25l1.389.28,4.735,7-2.084.28Z" transform="translate(-150.655 -159.091)" fill="#2f2e41"/>
    <path id="Path_478" data-name="Path 478" d="M414.49,645.42a27.261,27.261,0,0,0,1.389,3.613,34.4,34.4,0,0,0,4.62-1.319,14.55,14.55,0,0,0-.962-1.275,4.752,4.752,0,0,0-1.306-1,3.6,3.6,0,0,0-1.587,0C415.93,645.42,415.21,645.433,414.49,645.42Z" transform="translate(-183.482 -337.852)" fill="#fbbebe"/>
    <path id="Path_479" data-name="Path 479" d="M411.461,646.145a2.88,2.88,0,0,1-1.58-1.8,5.787,5.787,0,0,0-1.2-2.148.688.688,0,0,0-.535.4c-.115.2-.185.433-.312.637-.255.363-.7.542-1.02.848s-.51.784-.854,1.1a3.39,3.39,0,0,1-1.612.637,10.454,10.454,0,0,0-2.549.937,4.4,4.4,0,0,1-.937.421,3.707,3.707,0,0,1-1.1,0L397.25,647a1.966,1.966,0,0,0-.637,0,1.217,1.217,0,0,0-.8,1.275,1.912,1.912,0,0,0,.8,1.351,5.289,5.289,0,0,0,1.427.727,42.011,42.011,0,0,0,6.73,1.912v.5a11.649,11.649,0,0,0,5.13,1.192.867.867,0,0,0,.382-.064.841.841,0,0,0,.319-.5,19.882,19.882,0,0,0,1.052-5.455,4.345,4.345,0,0,0-.108-1.408c-.14-.453.331-.261-.1-.44" transform="translate(-176.706 -336.709)" fill="#2f2e41"/>
    <path id="Path_480" data-name="Path 480" d="M467.8,632.409c-7.443.446-14.8-1.733-22.254-1.963a10.863,10.863,0,0,0-2.766.172,13.931,13.931,0,0,0-2.74,1.064c-4,1.861-8.132,3.4-12.261,4.939l-4.748,1.765a7.189,7.189,0,0,1-2.938.637c-.452,0-1.007-.1-1.275.28-.771,1.147-.408,2.823.1,4.11.166.414.446.867.892.911a2.594,2.594,0,0,0,.9-.229c.86-.229,1.721.35,2.613.446a7.343,7.343,0,0,0,3.155-.892,27.376,27.376,0,0,1,5.4-.918,24.213,24.213,0,0,0,8.463-3.511,9.878,9.878,0,0,1,3.155-1.491,8.73,8.73,0,0,1,3.97.452,91.136,91.136,0,0,1,9.107,3.1,42.438,42.438,0,0,0,4.754,1.74A17.207,17.207,0,0,0,472,642.383c1.192-.472,2.485-1.275,2.549-2.587.045-.733-.529-1.377-.9-2.007-.242-.4-.491-.8-.752-1.192C471.616,634.748,470.061,632.276,467.8,632.409Z" transform="translate(-184.89 -332.437)" fill="#2f2e41"/>
    <path id="Path_481" data-name="Path 481" d="M467.8,632.409c-7.443.446-14.8-1.733-22.254-1.963a10.863,10.863,0,0,0-2.766.172,13.931,13.931,0,0,0-2.74,1.064c-4,1.861-8.132,3.4-12.261,4.939l-4.748,1.765a7.189,7.189,0,0,1-2.938.637c-.452,0-1.007-.1-1.275.28-.771,1.147-.408,2.823.1,4.11.166.414.446.867.892.911a2.594,2.594,0,0,0,.9-.229c.86-.229,1.721.35,2.613.446a7.343,7.343,0,0,0,3.155-.892,27.376,27.376,0,0,1,5.4-.918,24.213,24.213,0,0,0,8.463-3.511,9.878,9.878,0,0,1,3.155-1.491,8.73,8.73,0,0,1,3.97.452,91.136,91.136,0,0,1,9.107,3.1,42.438,42.438,0,0,0,4.754,1.74A17.207,17.207,0,0,0,472,642.383c1.192-.472,2.485-1.275,2.549-2.587.045-.733-.529-1.377-.9-2.007-.242-.4-.491-.8-.752-1.192C471.616,634.748,470.061,632.276,467.8,632.409Z" transform="translate(-184.89 -332.437)" opacity="0.1"/>
    <path id="Path_482" data-name="Path 482" d="M436.92,644.236q1.746.593,3.524,1.1c.637-1.09,1.912-1.848,2.186-3.1a.293.293,0,0,0,0-.166.306.306,0,0,0-.134-.121,6.678,6.678,0,0,0-2.766-.809c-.765-.045-1.115.752-1.459,1.313C438.137,642.7,437.232,644.357,436.92,644.236Z" transform="translate(-191.618 -336.323)" fill="#fbbebe"/>
    <path id="Path_483" data-name="Path 483" d="M432.929,643.774a2.549,2.549,0,0,1-1.714-1.128c-.159-.287-.338-.675-.669-.637s-.44.382-.51.682a19.112,19.112,0,0,1-.962,3.307,6.207,6.207,0,0,1-2.058,2.708c-.433.3-.911.523-1.338.841a9.188,9.188,0,0,1-1.128.854,6.682,6.682,0,0,1-.867.319,6.009,6.009,0,0,0-1.236.637,2.453,2.453,0,0,0-.848.809,1.166,1.166,0,0,0-.064,1.128,1.2,1.2,0,0,0,.822.561,3.47,3.47,0,0,0,1.026,0c1.357-.1,2.715-.217,4.072-.338a11.753,11.753,0,0,0,1.7-.236l.886-.242a7.045,7.045,0,0,1,1.549-.229,1.2,1.2,0,0,1,.452.045c.312.1.535.414.86.478a1.441,1.441,0,0,0,.637-.083,14.07,14.07,0,0,1,3.014-.312,1.272,1.272,0,0,0,1.173-.51c.255-.5-.166-1.052-.338-1.587a5.1,5.1,0,0,1-.14-1.039,6.334,6.334,0,0,0-.746-2.473c-.344-.637-.816-1.338-.574-2.014a1.912,1.912,0,0,0,.229-.695C436.064,643.525,433.553,643.914,432.929,643.774Z" transform="translate(-185.995 -336.638)" fill="#2f2e41"/>
    <path id="Path_484" data-name="Path 484" d="M474.851,611.075a5.812,5.812,0,0,1-2.97-2.944c-.121-.28-.223-.58-.344-.86a6.54,6.54,0,0,0-1.772-2.466.873.873,0,0,0-.637-.274.7.7,0,0,0-.478.516,1.969,1.969,0,0,0-.051.8,14.2,14.2,0,0,0,.319,1.861l.363,1.644a3.609,3.609,0,0,0,.223.733,2.549,2.549,0,0,0,.605.72c.331.306.669.6,1.007.892a3.458,3.458,0,0,0,.637.44,3.7,3.7,0,0,0,1.128.331,9.6,9.6,0,0,1,4.232,1.631s0-1.1,0-1.224a1.619,1.619,0,0,0-.319-.886A5.652,5.652,0,0,0,474.851,611.075Z" transform="translate(-203.101 -323.045)" fill="#fbbebe"/>
    <path id="Path_485" data-name="Path 485" d="M474.851,611.075a5.812,5.812,0,0,1-2.97-2.944c-.121-.28-.223-.58-.344-.86a6.54,6.54,0,0,0-1.772-2.466.873.873,0,0,0-.637-.274.7.7,0,0,0-.478.516,1.969,1.969,0,0,0-.051.8,14.2,14.2,0,0,0,.319,1.861l.363,1.644a3.609,3.609,0,0,0,.223.733,2.549,2.549,0,0,0,.605.72c.331.306.669.6,1.007.892a3.458,3.458,0,0,0,.637.44,3.7,3.7,0,0,0,1.128.331,9.6,9.6,0,0,1,4.232,1.631s0-1.1,0-1.224a1.619,1.619,0,0,0-.319-.886A5.652,5.652,0,0,0,474.851,611.075Z" transform="translate(-203.101 -323.045)" opacity="0.1"/>
    <ellipse id="Ellipse_115" data-name="Ellipse 115" cx="1.81" cy="1.823" rx="1.81" ry="1.823" transform="translate(285.094 271.804)" fill="#2f2e41"/>
    <path id="Path_486" data-name="Path 486" d="M493.313,590.449a1.956,1.956,0,0,0-1.428.2,1.982,1.982,0,0,0-.491.669,9.721,9.721,0,0,0-.943,2.218c-.159.637-.185,1.357-.389,2.014-.37,1.211-1.319,2.237-1.428,3.5-.051.567.045,1.23-.37,1.612a2.341,2.341,0,0,1-.325.236,2.447,2.447,0,0,0-.714.733,2.4,2.4,0,0,1-.5.695c-.37.274-.981.249-1.16.637s.287.918.178,1.377-.51.548-.8.8a2.784,2.784,0,0,0-.688,1.275,4.251,4.251,0,0,1-3.467-.86,11.038,11.038,0,0,1,.542,3.964,1.619,1.619,0,0,1-.319,1.224,22.07,22.07,0,0,1,4.251.739,2.932,2.932,0,0,0,1.854,0,3.1,3.1,0,0,0,.854-.675,5.444,5.444,0,0,0,1.753-2.7,15.881,15.881,0,0,0,.032-1.829,10.311,10.311,0,0,1,.465-2.224,26.468,26.468,0,0,0,.809-4.576c.083-.956.911-1.721,1.345-2.549a12.482,12.482,0,0,0,1.714-5.1C494.116,591.246,493.912,590.513,493.313,590.449Z" transform="translate(-207.53 -317.918)" fill="#2f2e41"/>
    <path id="Path_487" data-name="Path 487" d="M493.313,590.449a1.956,1.956,0,0,0-1.428.2,1.982,1.982,0,0,0-.491.669,9.721,9.721,0,0,0-.943,2.218c-.159.637-.185,1.357-.389,2.014-.37,1.211-1.319,2.237-1.428,3.5-.051.567.045,1.23-.37,1.612a2.341,2.341,0,0,1-.325.236,2.447,2.447,0,0,0-.714.733,2.4,2.4,0,0,1-.5.695c-.37.274-.981.249-1.16.637s.287.918.178,1.377-.51.548-.8.8a2.784,2.784,0,0,0-.688,1.275,4.251,4.251,0,0,1-3.467-.86,11.038,11.038,0,0,1,.542,3.964,1.619,1.619,0,0,1-.319,1.224,22.07,22.07,0,0,1,4.251.739,2.932,2.932,0,0,0,1.854,0,3.1,3.1,0,0,0,.854-.675,5.444,5.444,0,0,0,1.753-2.7,15.881,15.881,0,0,0,.032-1.829,10.311,10.311,0,0,1,.465-2.224,26.468,26.468,0,0,0,.809-4.576c.083-.956.911-1.721,1.345-2.549a12.482,12.482,0,0,0,1.714-5.1C494.116,591.246,493.912,590.513,493.313,590.449Z" transform="translate(-207.53 -317.918)" opacity="0.1"/>
    <path id="Path_488" data-name="Path 488" d="M476.625,627.274a16.8,16.8,0,0,1-3.938-3.288c-2.39-2.25-5.315-3.824-7.832-5.946a55.188,55.188,0,0,0-4.99-4.193,12.47,12.47,0,0,0-5.347-1.867,1.422,1.422,0,0,0-.637,0,1.466,1.466,0,0,0-.605.478,19.257,19.257,0,0,0-2.16,2.963c-3.186,5.417-7.718,9.967-11.471,15a.955.955,0,0,0-.185.357.886.886,0,0,0,.14.554l.765,1.491c.427.841,1.115,1.816,2.033,1.651a2.224,2.224,0,0,0,1.064-.682l3.429-3.282,3.594-3.435a27.568,27.568,0,0,0,5.621-6.64c1.071,1.861,2.976,3.078,4.276,4.78.5.637.9,1.357,1.351,2.046.707,1.1,1.517,2.129,2.32,3.186l4.123,5.258a7.889,7.889,0,0,0,1.912,1.912,7.3,7.3,0,0,0,3.307.886,43.7,43.7,0,0,0,4.659.166,8.03,8.03,0,0,0,3.473-.637,3.148,3.148,0,0,0,1.88-2.8,4.1,4.1,0,0,0-.593-1.74A14.2,14.2,0,0,0,476.625,627.274Z" transform="translate(-192.537 -325.734)" fill="#2f2e41"/>
    <ellipse id="Ellipse_116" data-name="Ellipse 116" cx="1.396" cy="1.402" rx="1.396" ry="1.402" transform="translate(286.624 273.487)" fill="#e8e8f0"/>
    <path id="Path_489" data-name="Path 489" d="M502.382,590.038a2.683,2.683,0,0,1,.153,2.014,8.167,8.167,0,0,1-.9,1.855,8.829,8.829,0,0,1-1.166,1.657A12,12,0,0,0,506.6,593.8a8.9,8.9,0,0,0,3.868-3.371,1.784,1.784,0,0,1-1.427-.268,5.1,5.1,0,0,1-1.09-1.013l-1.077-1.211a4.847,4.847,0,0,1-.637-.873,2.409,2.409,0,0,1-.287-1.408,8.2,8.2,0,0,1-1.428,1.185c-.771.5-1.619.867-2.4,1.364-.268.178-.879.459-.72.816S502.165,589.656,502.382,590.038Z" transform="translate(-214.668 -316.201)" fill="#fbbebe"/>
    <path id="Path_490" data-name="Path 490" d="M502.382,590.038a2.683,2.683,0,0,1,.153,2.014,8.167,8.167,0,0,1-.9,1.855,8.829,8.829,0,0,1-1.166,1.657A12,12,0,0,0,506.6,593.8a8.9,8.9,0,0,0,3.868-3.371,1.784,1.784,0,0,1-1.427-.268,5.1,5.1,0,0,1-1.09-1.013l-1.077-1.211a4.847,4.847,0,0,1-.637-.873,2.409,2.409,0,0,1-.287-1.408,8.2,8.2,0,0,1-1.428,1.185c-.771.5-1.619.867-2.4,1.364-.268.178-.879.459-.72.816S502.165,589.656,502.382,590.038Z" transform="translate(-214.668 -316.201)" opacity="0.1"/>
    <path id="Path_491" data-name="Path 491" d="M498.682,592.732a1.816,1.816,0,0,0,0,2.1c.064.076.293.554.389.561a.351.351,0,0,0,.242-.127,16,16,0,0,0,1.364-1.625,3.033,3.033,0,0,1,1.733-1.134,3.747,3.747,0,0,1,2.39.746,2.269,2.269,0,0,1,.822.637,2.225,2.225,0,0,1,.268.911,43.912,43.912,0,0,1,.242,5.793,22.829,22.829,0,0,1-.274,4.174c-.14.707-.344,1.4-.44,2.122a13.529,13.529,0,0,0-.089,1.912v2.664a7.009,7.009,0,0,0,.1,1.459c.127.58.4,1.122.586,1.689a11.049,11.049,0,0,1,.389,1.995l.363,2.753a3.48,3.48,0,0,1-.325,2.549c-.236.312-.548.567-.79.879-.9,1.173-.637,2.849-.988,4.283a5.34,5.34,0,0,1-1.746,2.677,2.887,2.887,0,0,1-2.3.822,3.152,3.152,0,0,1-2.1-2.479,9.912,9.912,0,0,0-1.077-3.231,8.569,8.569,0,0,0-2.128-1.778,3.677,3.677,0,0,1-1.663-2.16c-.07-.4,0-.816-.07-1.224a2.887,2.887,0,0,0-1.778-2.339c-.574-.223-1.275-.306-1.606-.828a3.868,3.868,0,0,0,1.676-2.25,11.557,11.557,0,0,0,.408-2.842l.191-3.186a10.644,10.644,0,0,1,.758-4.136c.28-.574.637-1.115.924-1.682a18.257,18.257,0,0,0,.988-2.466c.459-1.313.918-2.626,1.326-3.951a7.444,7.444,0,0,1,.727-1.842C497.541,593.579,498.039,592.859,498.682,592.732Z" transform="translate(-210.943 -318.684)" fill="#e8e8f0"/>
    <path id="Path_492" data-name="Path 492" d="M492.308,613.2h.848l.178-1.275a2.657,2.657,0,0,1,.178-.746,4.463,4.463,0,0,1,.491-.714c.828-1.179.771-2.74.975-4.174a21.24,21.24,0,0,1,1.861-5.455l1.644-3.664a5.058,5.058,0,0,0,.357-.937,5.619,5.619,0,0,0,.1-1.083c0-.567.178-2.632.2-3.186,0-.21-.465-.1-.561-.28-.2-.408-.484.695-.873.937a2.141,2.141,0,0,0-.758,1.109c-.357.918-.574,1.912-.9,2.823a5.767,5.767,0,0,1-1.536,2.5c-.338.293-.727.529-1.045.848-1.02,1.007-1.122,2.607-1.153,4.047C492.283,604.83,492.117,613.2,492.308,613.2Z" transform="translate(-211.675 -318.355)" fill="#2f2e41"/>
    <path id="Path_493" data-name="Path 493" d="M507.1,590.421a2.893,2.893,0,0,0-1.51,2.071,10.476,10.476,0,0,1-.765,2.549c-1.032,1.8-3.664,2.32-4.4,4.263a7.84,7.84,0,0,0-.293,2.007c-.127,1.4-.586,2.74-.727,4.13a18.4,18.4,0,0,0,.076,3.244l.924,10.974a14.659,14.659,0,0,1-.274,4.831,4.652,4.652,0,0,0,2.766-.459c.86-.4,1.651-.937,2.485-1.4a25.6,25.6,0,0,0,4.263-2.4,2.608,2.608,0,0,0,.574-.637,5.51,5.51,0,0,0,.382-1.44,7.773,7.773,0,0,1,.414-1.134,33.412,33.412,0,0,0,1.2-3.39,19.474,19.474,0,0,0,.548-2.32c.1-.637.159-1.275.21-1.912a11.214,11.214,0,0,1,.586-2.9,23.357,23.357,0,0,0,1.345-6.959,3.638,3.638,0,0,0-.07-1.02,5.457,5.457,0,0,0-.561-1.166c-.382-.72-.637-1.51-.969-2.243a11.031,11.031,0,0,0-3.766-3.958A2.868,2.868,0,0,0,507.1,590.421Z" transform="translate(-214.269 -317.896)" fill="#2f2e41"/>
    <path id="Path_494" data-name="Path 494" d="M475.611,616.464a6.646,6.646,0,0,1-1.753-1.332c-.229-.268-.421-.567-.637-.835a4.34,4.34,0,0,0-2.205-1.275,10.771,10.771,0,0,0-2.549-.249,4.624,4.624,0,0,0-1.7.2,1.733,1.733,0,0,0-1.128,1.211,2.007,2.007,0,0,0,.86,1.784,4.054,4.054,0,0,0,1.714.828,13.721,13.721,0,0,0,1.549.185c3.046.319,5.767,1.976,8.438,3.486q3.518,2,7.176,3.722a14.912,14.912,0,0,0,.121-2.2c0-.548-.045-1.389-.561-1.714a11.257,11.257,0,0,0-2.281-.682,35.892,35.892,0,0,1-4.595-1.861A22.858,22.858,0,0,1,475.611,616.464Z" transform="translate(-202.032 -326.032)" fill="#fbbebe"/>
    <ellipse id="Ellipse_117" data-name="Ellipse 117" cx="5.43" cy="5.462" rx="5.43" ry="5.462" transform="translate(281.475 262.29)" fill="#fbbebe"/>
    <path id="Path_495" data-name="Path 495" d="M506.31,599.786a8.7,8.7,0,0,0-1.052,1.969c-.637,1.377-1.721,2.549-2.25,4.008s-.535,3.333-1.625,4.525a1.587,1.587,0,0,0-.478.688,3.282,3.282,0,0,1-.051.5c-.159.433-.867.452-1,.9-.038.127,0,.268-.064.4-.108.287-.491.331-.739.5-.529.357-.421,1.185-.8,1.7a1.434,1.434,0,0,1-1.357.478,4.78,4.78,0,0,1-1.408-.529,1.358,1.358,0,0,0-.51-.159,1.051,1.051,0,0,0-.586.2,3.613,3.613,0,0,0-1.466,3.091,10.093,10.093,0,0,0,.841,3.46,1.388,1.388,0,0,0,.274.516,1.217,1.217,0,0,0,1.351.1,6.372,6.372,0,0,1,1.319-.593c.841-.153,1.663.427,2.517.376a3.5,3.5,0,0,0,1.7-.746,9.368,9.368,0,0,0,2.281-1.912c.37-.491.637-1.045.969-1.568a20.111,20.111,0,0,1,1.37-1.829l3.135-3.824a8.807,8.807,0,0,0,.841-1.16,8.176,8.176,0,0,0,.637-1.752,13.424,13.424,0,0,0,.637-3.116,11.974,11.974,0,0,0-.229-2.613,9.234,9.234,0,0,0-.637-2.492C509.248,599.467,507.591,598.295,506.31,599.786Z" transform="translate(-211.931 -321.074)" fill="#2f2e41"/>
    <path id="Path_496" data-name="Path 496" d="M515.491,578.915a6.118,6.118,0,0,0-2.511-4.971,7.271,7.271,0,0,0-6.175-7.08,7.055,7.055,0,0,0-13.9.376c-2.256-.51-4.321.153-4.7,1.542s1.217,3.186,3.594,3.824a6.7,6.7,0,0,0,2.307.229,7.061,7.061,0,0,0,4.856,3.027,7.246,7.246,0,0,0,5.3,5.468,6.086,6.086,0,0,0,1.638,2.262v.529a4.595,4.595,0,1,0,9.19,0,4.9,4.9,0,0,0-.44-2.033A6.142,6.142,0,0,0,515.491,578.915Z" transform="translate(-210.201 -307.327)" fill="#f86d70"/>
    <path id="Path_497" data-name="Path 497" d="M489.735,569.073c.376-1.389,2.441-2.052,4.7-1.542a7.176,7.176,0,0,1,7.01-6.041h.465a6.908,6.908,0,0,0-2-.3,7.176,7.176,0,0,0-7.01,6.041c-2.256-.51-4.321.153-4.7,1.542s1.217,3.186,3.594,3.824a7.012,7.012,0,0,0,1.364.236C490.882,572.151,489.359,570.494,489.735,569.073Z" transform="translate(-210.197 -307.325)" opacity="0.1"/>
    <path id="Path_498" data-name="Path 498" d="M510.88,591.148a4.792,4.792,0,0,1,0-.523,5.952,5.952,0,0,1-1.638-2.262,7.227,7.227,0,0,1-5.3-5.474,7.042,7.042,0,0,1-4.862-3.021,6.12,6.12,0,0,1-1.357-.038,7.08,7.08,0,0,0,4.684,2.785,7.246,7.246,0,0,0,5.3,5.468,6.086,6.086,0,0,0,1.638,2.262v.529a4.678,4.678,0,0,0,4.569,4.754A4.754,4.754,0,0,1,510.88,591.148Z" transform="translate(-213.671 -314.086)" opacity="0.1"/>
    <ellipse id="Ellipse_118" data-name="Ellipse 118" cx="0.835" cy="1.115" rx="0.835" ry="1.115" transform="translate(287.382 268.484) rotate(-37.22)" fill="#fbbebe"/>
  </g>
</svg>
