<svg xmlns="http://www.w3.org/2000/svg" xmlns:xlink="http://www.w3.org/1999/xlink" width="514.507" height="484.852" viewBox="0 0 514.507 484.852">
  <defs>
    <linearGradient id="linear-gradient" x1="0.5" y1="1" x2="0.5" gradientUnits="objectBoundingBox">
      <stop offset="0" stop-color="gray" stop-opacity="0.251"/>
      <stop offset="0.54" stop-color="gray" stop-opacity="0.122"/>
      <stop offset="1" stop-color="gray" stop-opacity="0.102"/>
    </linearGradient>
    <linearGradient id="linear-gradient-2" x1="0.5" y1="1" x2="0.5" y2="0" xlink:href="#linear-gradient"/>
    <linearGradient id="linear-gradient-3" x1="1.115" y1="1.124" x2="1.115" y2="0.124" xlink:href="#linear-gradient"/>
    <linearGradient id="linear-gradient-4" x1="0.5" y1="1" x2="0.5" y2="0" xlink:href="#linear-gradient"/>
    <linearGradient id="linear-gradient-5" x1="1.17" y1="2.05" x2="1.17" y2="1.05" xlink:href="#linear-gradient"/>
    <linearGradient id="linear-gradient-6" x1="0.5" y1="1" x2="0.5" gradientUnits="objectBoundingBox">
      <stop offset="0" stop-opacity="0.122"/>
      <stop offset="0.55" stop-opacity="0.09"/>
      <stop offset="1" stop-opacity="0.02"/>
    </linearGradient>
    <linearGradient id="linear-gradient-7" x1="0.5" y1="1" x2="0.5" y2="0" xlink:href="#linear-gradient"/>
    <linearGradient id="linear-gradient-8" x1="2.85" y1="1.97" x2="2.85" y2="0.969" xlink:href="#linear-gradient-6"/>
    <linearGradient id="linear-gradient-9" x1="0.5" y1="1" x2="0.5" y2="0" xlink:href="#linear-gradient"/>
    <linearGradient id="linear-gradient-10" x1="0.5" y1="1" x2="0.5" y2="0" xlink:href="#linear-gradient"/>
    <linearGradient id="linear-gradient-11" x1="0.5" y1="1" x2="0.5" y2="0" xlink:href="#linear-gradient"/>
    <linearGradient id="linear-gradient-12" x1="0.5" y1="1" x2="0.5" y2="0" xlink:href="#linear-gradient-6"/>
    <linearGradient id="linear-gradient-13" x1="2.688" y1="2.908" x2="2.688" y2="1.864" xlink:href="#linear-gradient"/>
  </defs>
  <g id="Group_32" data-name="Group 32" transform="translate(0.004)">
    <path id="Path_499" data-name="Path 499" d="M221.363,518.953s-.437-1.284-1.143-3.673" transform="translate(-204.56 -230.943)" fill="none" stroke="#69f0ae" stroke-miterlimit="10" stroke-width="9"/>
    <path id="Path_500" data-name="Path 500" d="M211.933,380.928c-15.608-60.1-64.27-337.069,423.542-164.162" transform="translate(-198.34 -104.04)" fill="none" stroke="#69f0ae" stroke-miterlimit="10" stroke-width="9" stroke-dasharray="12.04 12.04"/>
    <path id="Path_501" data-name="Path 501" d="M882.35,250l3.628,1.284" transform="translate(-441.562 -135.989)" fill="none" stroke="#69f0ae" stroke-miterlimit="10" stroke-width="9"/>
    <path id="Path_502" data-name="Path 502" d="M647.974,553.613A52.142,52.142,0,0,0,544.6,543.892L384.35,539.546l1.759,27.532s-22.851,52.726,97.247,66.774v53.291H622.2v-88.6a52.11,52.11,0,0,0,25.779-44.925Z" transform="translate(-263.308 -225.995)" fill="url(#linear-gradient)"/>
    <path id="Path_503" data-name="Path 503" d="M394.708,590.759s-21.881,50.492,93.131,63.962v51.057H620.8V570.56L393,564.39Z" transform="translate(-266.405 -248.522)" fill="#f6b9ad"/>
    <path id="Path_504" data-name="Path 504" d="M434.216,230.2h0a24.514,24.514,0,0,1-33.708,7.66l-71.391-47.044a24.514,24.514,0,0,1-7.66-33.708h0a24.514,24.514,0,0,1,33.682-7.66l71.391,47.044A24.514,24.514,0,0,1,434.216,230.2Z" transform="translate(-239.46 -98.663)" fill="url(#linear-gradient-2)"/>
    <path id="Path_505" data-name="Path 505" d="M432.62,229.5h0a22.787,22.787,0,0,1-31.333,7.12L334.9,192.888a22.787,22.787,0,0,1-7.12-31.333h0a22.787,22.787,0,0,1,31.333-7.12l66.37,43.737A22.787,22.787,0,0,1,432.62,229.5Z" transform="translate(-241.819 -100.54)" fill="#f6b9ad"/>
    <circle id="Ellipse_119" data-name="Ellipse 119" cx="49.933" cy="49.933" r="49.933" transform="translate(279.22 279.406)" fill="#f6b9ad"/>
    <rect id="Rectangle_166" data-name="Rectangle 166" width="207.013" height="373.654" rx="12.25" transform="translate(121.016)" fill="url(#linear-gradient-3)"/>
    <rect id="Rectangle_167" data-name="Rectangle 167" width="201.415" height="363.561" rx="13.64" transform="translate(123.815 5.053)" fill="#fff"/>
    <path id="Path_506" data-name="Path 506" d="M542.8,94.49a16.328,16.328,0,0,1-16.1,13.888H457.138a16.328,16.328,0,0,1-16.09-13.888H404.193a7.647,7.647,0,0,0-7.653,7.647V432.156a7.647,7.647,0,0,0,7.647,7.653H580.2a7.647,7.647,0,0,0,7.653-7.647V102.143a7.647,7.647,0,0,0-7.647-7.653Z" transform="translate(-267.672 -80.326)" fill="#e99629"/>
    <rect id="Rectangle_168" data-name="Rectangle 168" width="44.886" height="2.806" rx="1.403" transform="translate(202.365 18.517)" fill="#dbdbdb"/>
    <circle id="Ellipse_120" data-name="Ellipse 120" cx="1.682" cy="1.682" r="1.682" transform="translate(255.104 17.958)" fill="#dbdbdb"/>
    <path id="Path_507" data-name="Path 507" d="M724.325,500.219h0c-14.491,3.352-24.437-6.1-27.788-20.584L663.239,356a27.121,27.121,0,0,1,20.257-32.43h0a27.121,27.121,0,0,1,32.43,20.257L743.1,470.633C746.45,485.144,738.81,496.868,724.325,500.219Z" transform="translate(-362.889 -162.078)" fill="url(#linear-gradient-4)"/>
    <rect id="Rectangle_169" data-name="Rectangle 169" width="45.445" height="181.453" rx="22.723" transform="translate(299.907 172.873) rotate(-13.01)" fill="#f6b9ad"/>
    <rect id="Rectangle_170" data-name="Rectangle 170" width="190.05" height="44.302" transform="translate(188.83 440.55)" fill="url(#linear-gradient-5)"/>
    <rect id="Rectangle_171" data-name="Rectangle 171" width="179.777" height="34.671" transform="translate(193.967 445.687)" fill="#ff8976"/>
    <path id="Path_508" data-name="Path 508" d="M562.433,237.293,547.7,226.2l6.421-8.347-10.716-8.411-6.7,8.488-15.146-11.4a3.332,3.332,0,0,0-4,0l-40.148,29.888a7.119,7.119,0,0,0-2.96,6.119h-.045l-.1,46.049h0v2.048a5.021,5.021,0,0,0,5.008,5.034H481.3l38.068.083,40.052.09a5.021,5.021,0,0,0,5.034-5.008l.109-48.013h.083C564.642,239.457,563.955,238.577,562.433,237.293Z" transform="translate(-295.509 -120.194)" fill="url(#linear-gradient-6)"/>
    <path id="Path_509" data-name="Path 509" d="M562.895,245.739c0-3.069-.642-3.852-2.016-5.04L523.594,212.66a3.043,3.043,0,0,0-3.653,0l-36.63,27.275a6.459,6.459,0,0,0-2.7,5.579h-.039l-.1,42.016h0V289.4a4.584,4.584,0,0,0,4.572,4.591h1.8l34.736.077,36.54.083a4.584,4.584,0,0,0,4.591-4.571l.1-43.808Z" transform="translate(-297.717 -122.406)" fill="url(#linear-gradient-7)"/>
    <path id="Path_510" data-name="Path 510" d="M0,0H80.791V44.45a2.684,2.684,0,0,1-2.684,2.684H2.986a2.96,2.96,0,0,1-2.96-2.96V0Z" transform="translate(183.533 123.278) rotate(0.13)" fill="#e99629"/>
    <path id="Path_511" data-name="Path 511" d="M0,0H80.791V44.45a2.684,2.684,0,0,1-2.684,2.684H2.986a2.96,2.96,0,0,1-2.96-2.96V0Z" transform="translate(183.533 123.278) rotate(0.13)" fill="#fff" opacity="0.2"/>
    <path id="Path_512" data-name="Path 512" d="M481.64,264.41l-.09,40.829a6.273,6.273,0,0,0,6.26,6.286l68.245.154" transform="translate(-298.1 -141.147)" fill="#f5f5f5"/>
    <path id="Path_513" data-name="Path 513" d="M565.93,264.69l-.09,40.854a6.273,6.273,0,0,1-6.286,6.26l-68.245-.154" transform="translate(-301.594 -141.247)" fill="#fff"/>
    <path id="Path_514" data-name="Path 514" d="M520.4,214.328l-35.955,26.517a6.26,6.26,0,0,0-2.652,5.425l80.829.257c0-2.986-.642-3.769-1.978-4.9l-36.63-27.288A3.011,3.011,0,0,0,520.4,214.328Z" transform="translate(-298.185 -123.007)" fill="#e99629"/>
    <path id="Path_515" data-name="Path 515" d="M520.4,214.328l-35.955,26.517a6.26,6.26,0,0,0-2.652,5.425l80.829.257c0-2.986-.642-3.769-1.978-4.9l-36.63-27.288A3.011,3.011,0,0,0,520.4,214.328Z" transform="translate(-298.185 -123.007)" opacity="0.2"/>
    <path id="Path_516" data-name="Path 516" d="M365.418,152.326l-9.779-7.666-23.634,29.933-12.7-9.849-7.955,10.112,18.485,14.119h0l4.584,3.679Z" transform="translate(-109.832 -51.779)" fill="url(#linear-gradient-8)"/>
    <path id="Path_517" data-name="Path 517" d="M365.35,152.523l-8.86-6.793-23.48,30.62-13.04-10-6.8,8.86,17.47,13.381h0l4.482,3.358Z" transform="translate(-110.484 -52.162)" fill="#fff"/>
    <path id="Path_518" data-name="Path 518" d="M416.5,339.5h0a24.334,24.334,0,0,1-33.458,7.6l-60.675-39.506a24.334,24.334,0,0,1-7.6-33.458h0a24.334,24.334,0,0,1,33.458-7.6L408.9,306.039a24.334,24.334,0,0,1,7.6,33.458Z" transform="translate(-237.074 -140.58)" fill="url(#linear-gradient-9)"/>
    <path id="Path_519" data-name="Path 519" d="M415.206,338.969h0a22.787,22.787,0,0,1-31.333,7.12l-56.829-37a22.787,22.787,0,0,1-7.12-31.333h0a22.787,22.787,0,0,1,31.333-7.12l56.829,37A22.787,22.787,0,0,1,415.206,338.969Z" transform="translate(-239.005 -142.132)" fill="#f6b9ad"/>
    <path id="Path_520" data-name="Path 520" d="M404.461,445.966h0a24.219,24.219,0,0,1-33.3,7.57l-47.885-30.979a24.219,24.219,0,0,1-7.57-33.3h0a24.219,24.219,0,0,1,33.3-7.57l47.878,30.986A24.219,24.219,0,0,1,404.461,445.966Z" transform="translate(-237.416 -181.803)" fill="url(#linear-gradient-10)"/>
    <path id="Path_521" data-name="Path 521" d="M395.677,553.137h0a24.437,24.437,0,0,1-33.605,7.641L332.415,539.14a24.437,24.437,0,0,1-7.641-33.605h0a24.437,24.437,0,0,1,33.605-7.615l29.657,21.631A24.437,24.437,0,0,1,395.677,553.137Z" transform="translate(-240.651 -223.394)" fill="url(#linear-gradient-11)"/>
    <path id="Path_522" data-name="Path 522" d="M394.761,552.841h0a22.787,22.787,0,0,1-31.333,7.12l-27.654-20.174a22.787,22.787,0,0,1-7.12-31.333h0a22.787,22.787,0,0,1,31.333-7.12l27.654,20.174a22.787,22.787,0,0,1,7.12,31.332Z" transform="translate(-242.13 -224.709)" fill="#f6b9ad"/>
    <rect id="Rectangle_172" data-name="Rectangle 172" width="130.98" height="39.166" transform="translate(159.032 207.752)" fill="url(#linear-gradient-12)"/>
    <rect id="Rectangle_173" data-name="Rectangle 173" width="121.992" height="28.251" transform="translate(163.527 211.604)" fill="#69f0ae"/>
    <path id="Path_523" data-name="Path 523" d="M762.6,192.378l2.3.36-.36-.34h.193l-.3-.1L722.641,152.66,712.5,168.667l-8.437,14.6,3.91.61-1.734,7.91Z" transform="translate(-250.399 -54.643)" fill="url(#linear-gradient-13)"/>
    <path id="Path_524" data-name="Path 524" d="M715.635,177.34l-7.7,13.361,56.5,9.2L728.039,174.56Z" transform="translate(-251.784 -62.482)" fill="#e99629"/>
    <path id="Path_525" data-name="Path 525" d="M715.635,177.34l-7.7,13.361,56.5,9.2L728.039,174.56Z" transform="translate(-251.784 -62.482)" opacity="0.2"/>
    <path id="Path_526" data-name="Path 526" d="M729.208,156.09l39.519,37.2-48.8-22.562Z" transform="translate(-256.079 -55.871)" fill="#e99629"/>
    <path id="Path_527" data-name="Path 527" d="M711.17,202.477l54.267,1.034L714.778,185.52Z" transform="translate(-252.944 -66.405)" fill="#e99629"/>
    <path id="Path_528" data-name="Path 528" d="M403.415,445.584h0a22.787,22.787,0,0,1-31.333,7.12l-45.047-29.15a22.787,22.787,0,0,1-7.12-31.333h0a22.787,22.787,0,0,1,31.333-7.153l45.047,29.15a22.787,22.787,0,0,1,7.12,31.365Z" transform="translate(-239.002 -183.097)" fill="#f6b9ad"/>
  </g>
</svg>
