<?xml version="1.0" encoding="UTF-8" standalone="no"?>
<!DOCTYPE svg PUBLIC "-//W3C//DTD SVG 1.1//EN" "http://www.w3.org/Graphics/SVG/1.1/DTD/svg11.dtd">
<svg width="100%" height="100%" viewBox="0 0 600 132" version="1.1" xmlns="http://www.w3.org/2000/svg" xmlns:xlink="http://www.w3.org/1999/xlink" xml:space="preserve" xmlns:serif="http://www.serif.com/" style="fill-rule:evenodd;clip-rule:evenodd;stroke-linejoin:round;stroke-miterlimit:2;">
    <g transform="matrix(1,0,0,1,-114.62,-638.539)">
        <g transform="matrix(0.283596,0,0,0.283596,-47.4164,490.821)">
            <g transform="matrix(446.667,0,0,446.667,540.543,910.126)">
                <path d="M0.313,-0.698C0.386,-0.698 0.451,-0.684 0.506,-0.655C0.562,-0.626 0.605,-0.586 0.635,-0.533C0.666,-0.48 0.681,-0.418 0.681,-0.348C0.681,-0.278 0.666,-0.217 0.635,-0.165C0.605,-0.112 0.562,-0.072 0.506,-0.043C0.451,-0.014 0.386,-0 0.313,-0L0.069,-0L0.069,-0.698L0.313,-0.698ZM0.308,-0.119C0.381,-0.119 0.438,-0.139 0.478,-0.179C0.518,-0.219 0.538,-0.275 0.538,-0.348C0.538,-0.421 0.518,-0.477 0.478,-0.519C0.438,-0.56 0.381,-0.58 0.308,-0.58L0.209,-0.58L0.209,-0.119L0.308,-0.119Z" style="fill-rule:nonzero;"/>
            </g>
            <g transform="matrix(446.667,0,0,446.667,967.11,910.126)">
                <path d="M0.209,-0.585L0.209,-0.41L0.444,-0.41L0.444,-0.299L0.209,-0.299L0.209,-0.114L0.474,-0.114L0.474,-0L0.069,-0L0.069,-0.699L0.474,-0.699L0.474,-0.585L0.209,-0.585Z" style="fill-rule:nonzero;"/>
            </g>
            <g transform="matrix(446.667,0,0,446.667,1311.04,910.126)">
                <path d="M0.606,-0L0.53,-0.075C0.465,-0.017 0.386,0.012 0.293,0.012C0.242,0.012 0.197,0.003 0.158,-0.015C0.118,-0.032 0.088,-0.057 0.067,-0.09C0.046,-0.122 0.035,-0.159 0.035,-0.202C0.035,-0.248 0.048,-0.289 0.074,-0.326C0.1,-0.363 0.138,-0.392 0.189,-0.415C0.171,-0.437 0.158,-0.458 0.15,-0.478C0.142,-0.499 0.138,-0.521 0.138,-0.544C0.138,-0.576 0.146,-0.605 0.163,-0.63C0.18,-0.656 0.203,-0.676 0.234,-0.691C0.266,-0.706 0.302,-0.713 0.343,-0.713C0.385,-0.713 0.421,-0.705 0.451,-0.689C0.481,-0.673 0.503,-0.652 0.518,-0.625C0.533,-0.598 0.539,-0.569 0.537,-0.536L0.401,-0.536C0.402,-0.558 0.396,-0.575 0.385,-0.587C0.374,-0.598 0.358,-0.604 0.339,-0.604C0.32,-0.604 0.305,-0.599 0.293,-0.588C0.28,-0.577 0.274,-0.562 0.274,-0.545C0.274,-0.528 0.279,-0.512 0.289,-0.496C0.299,-0.479 0.315,-0.459 0.338,-0.435L0.514,-0.261C0.515,-0.262 0.516,-0.264 0.517,-0.265C0.518,-0.266 0.518,-0.268 0.519,-0.269L0.576,-0.364L0.722,-0.364L0.652,-0.241C0.639,-0.215 0.624,-0.19 0.609,-0.167L0.778,-0L0.606,-0ZM0.297,-0.104C0.352,-0.104 0.4,-0.123 0.442,-0.162L0.27,-0.332C0.205,-0.303 0.173,-0.263 0.173,-0.21C0.173,-0.18 0.184,-0.155 0.207,-0.135C0.23,-0.114 0.26,-0.104 0.297,-0.104Z" style="fill:rgb(144,144,144);fill-rule:nonzero;"/>
            </g>
            <g transform="matrix(446.667,0,0,446.667,1764.86,910.126)">
                <path d="M0.578,-0.482C0.578,-0.445 0.569,-0.41 0.552,-0.377C0.534,-0.344 0.506,-0.318 0.469,-0.298C0.431,-0.278 0.383,-0.268 0.326,-0.268L0.209,-0.268L0.209,-0L0.069,-0L0.069,-0.698L0.326,-0.698C0.38,-0.698 0.426,-0.689 0.464,-0.67C0.502,-0.651 0.531,-0.626 0.55,-0.593C0.569,-0.56 0.578,-0.523 0.578,-0.482ZM0.32,-0.381C0.359,-0.381 0.387,-0.39 0.406,-0.407C0.425,-0.425 0.434,-0.45 0.434,-0.482C0.434,-0.55 0.396,-0.584 0.32,-0.584L0.209,-0.584L0.209,-0.381L0.32,-0.381Z" style="fill-rule:nonzero;"/>
            </g>
        </g>
        <g transform="matrix(0.325034,0,0,0.325034,-34.2063,464.787)">
            <circle cx="1995.27" cy="808.897" r="131.728" style="fill:url(#_Linear1);"/>
        </g>
        <g transform="matrix(0.325034,0,0,0.325034,23.2737,464.787)">
            <circle cx="1995.27" cy="808.897" r="131.728" style="fill:url(#_Linear2);"/>
        </g>
        <g transform="matrix(0.325034,0,0,0.325034,-4.3609,418.436)">
            <circle cx="1995.27" cy="808.897" r="131.728" style="fill:url(#_Linear3);"/>
        </g>
        <g transform="matrix(0.172333,0,0,0.175404,102.136,651.469)">
            <path d="M624.904,442.005L639.116,484.979L685.108,484.979L647.9,511.538L662.112,554.511L624.904,527.952L587.696,554.511L601.908,511.538L564.7,484.979L610.691,484.979L624.904,442.005Z"/>
        </g>
    </g>
    <defs>
        <linearGradient id="_Linear1" x1="0" y1="0" x2="1" y2="0" gradientUnits="userSpaceOnUse" gradientTransform="matrix(202.245,-156.61,156.61,202.245,1894.9,892.979)"><stop offset="0" style="stop-color:rgb(255,147,0);stop-opacity:1"/><stop offset="1" style="stop-color:rgb(255,191,105);stop-opacity:1"/></linearGradient>
        <linearGradient id="_Linear2" x1="0" y1="0" x2="1" y2="0" gradientUnits="userSpaceOnUse" gradientTransform="matrix(-188.443,-122.384,122.384,-188.443,2098.69,879.496)"><stop offset="0" style="stop-color:rgb(255,187,0);stop-opacity:1"/><stop offset="1" style="stop-color:rgb(255,211,90);stop-opacity:1"/></linearGradient>
        <linearGradient id="_Linear3" x1="0" y1="0" x2="1" y2="0" gradientUnits="userSpaceOnUse" gradientTransform="matrix(1.58498e-14,258.847,-258.847,1.58498e-14,1995.27,677.169)"><stop offset="0" style="stop-color:rgb(255,99,0);stop-opacity:1"/><stop offset="1" style="stop-color:rgb(255,139,65);stop-opacity:1"/></linearGradient>
    </defs>
</svg>
