<?xml version="1.0" encoding="UTF-8" standalone="no"?>
<!DOCTYPE svg PUBLIC "-//W3C//DTD SVG 1.1//EN" "http://www.w3.org/Graphics/SVG/1.1/DTD/svg11.dtd">
<svg width="100%" height="100%" viewBox="0 0 600 132" version="1.1" xmlns="http://www.w3.org/2000/svg" xmlns:xlink="http://www.w3.org/1999/xlink" xml:space="preserve" xmlns:serif="http://www.serif.com/" style="fill-rule:evenodd;clip-rule:evenodd;stroke-linejoin:round;stroke-miterlimit:2;">
    <g transform="matrix(1,0,0,1,-114.62,-638.539)">
        <g transform="matrix(0.283596,0,0,0.283596,-47.4164,490.821)">
            <text x="540.543px" y="910.126px" style="font-family:'Poppins-SemiBold', 'Poppins';font-weight:600;font-size:446.667px;">D E</text>
            <text x="1311.04px" y="910.126px" style="font-family:'Poppins-SemiBold', 'Poppins';font-weight:600;font-size:446.667px;fill:rgb(144,144,144);">&amp;</text>
            <text x="1764.86px" y="910.126px" style="font-family:'Poppins-SemiBold', 'Poppins';font-weight:600;font-size:446.667px;">P</text>
        </g>
        <g transform="matrix(0.325034,0,0,0.325034,-34.2063,464.787)">
            <circle cx="1995.27" cy="808.897" r="131.728" style="fill:url(#_Linear1);"/>
        </g>
        <g transform="matrix(0.325034,0,0,0.325034,23.2737,464.787)">
            <circle cx="1995.27" cy="808.897" r="131.728" style="fill:url(#_Linear2);"/>
        </g>
        <g transform="matrix(0.325034,0,0,0.325034,-4.3609,418.436)">
            <circle cx="1995.27" cy="808.897" r="131.728" style="fill:url(#_Linear3);"/>
        </g>
        <g transform="matrix(0.172333,0,0,0.175404,102.136,651.469)">
            <path d="M624.904,442.005L639.116,484.979L685.108,484.979L647.9,511.538L662.112,554.511L624.904,527.952L587.696,554.511L601.908,511.538L564.7,484.979L610.691,484.979L624.904,442.005Z"/>
        </g>
    </g>
    <defs>
        <linearGradient id="_Linear1" x1="0" y1="0" x2="1" y2="0" gradientUnits="userSpaceOnUse" gradientTransform="matrix(202.245,-156.61,156.61,202.245,1894.9,892.979)"><stop offset="0" style="stop-color:rgb(255,147,0);stop-opacity:1"/><stop offset="1" style="stop-color:rgb(255,191,105);stop-opacity:1"/></linearGradient>
        <linearGradient id="_Linear2" x1="0" y1="0" x2="1" y2="0" gradientUnits="userSpaceOnUse" gradientTransform="matrix(-188.443,-122.384,122.384,-188.443,2098.69,879.496)"><stop offset="0" style="stop-color:rgb(255,187,0);stop-opacity:1"/><stop offset="1" style="stop-color:rgb(255,211,90);stop-opacity:1"/></linearGradient>
        <linearGradient id="_Linear3" x1="0" y1="0" x2="1" y2="0" gradientUnits="userSpaceOnUse" gradientTransform="matrix(1.58498e-14,258.847,-258.847,1.58498e-14,1995.27,677.169)"><stop offset="0" style="stop-color:rgb(255,99,0);stop-opacity:1"/><stop offset="1" style="stop-color:rgb(255,139,65);stop-opacity:1"/></linearGradient>
    </defs>
</svg>
